<?xml version="1.0" encoding="utf-8" standalone="no"?>
<!DOCTYPE svg PUBLIC "-//W3C//DTD SVG 1.1//EN"
  "http://www.w3.org/Graphics/SVG/1.1/DTD/svg11.dtd">
<svg xmlns:xlink="http://www.w3.org/1999/xlink" width="1290.597399pt" height="505.68pt" viewBox="0 0 1290.597399 505.68" xmlns="http://www.w3.org/2000/svg" version="1.1">
 <metadata>
  <rdf:RDF xmlns:dc="http://purl.org/dc/elements/1.1/" xmlns:cc="http://creativecommons.org/ns#" xmlns:rdf="http://www.w3.org/1999/02/22-rdf-syntax-ns#">
   <cc:Work>
    <dc:type rdf:resource="http://purl.org/dc/dcmitype/StillImage"/>
    <dc:date>2024-05-08T14:38:45.145166</dc:date>
    <dc:format>image/svg+xml</dc:format>
    <dc:creator>
     <cc:Agent>
      <dc:title>Matplotlib v3.8.4, https://matplotlib.org/</dc:title>
     </cc:Agent>
    </dc:creator>
   </cc:Work>
  </rdf:RDF>
 </metadata>
 <defs>
  <style type="text/css">*{stroke-linejoin: round; stroke-linecap: butt}</style>
 </defs>
 <g id="figure_1">
  <g id="patch_1">
   <path d="M 0 505.68 
L 1290.597399 505.68 
L 1290.597399 0 
L 0 0 
z
" style="fill: #ffffff"/>
  </g>
  <g id="axes_1">
   <g id="line2d_1">
    <path d="M 98.936477 56.902857 
L 1257.270763 56.902857 
" clip-path="url(#p008e252782)" style="fill: none; stroke: #000000; stroke-width: 2; stroke-linecap: square"/>
   </g>
   <g id="line2d_2">
    <path d="M 98.936477 114.531429 
L 1257.270763 114.531429 
" clip-path="url(#p008e252782)" style="fill: none; stroke: #000000; stroke-width: 2; stroke-linecap: square"/>
   </g>
   <g id="line2d_3">
    <path d="M 98.936477 172.16 
L 1257.270763 172.16 
" clip-path="url(#p008e252782)" style="fill: none; stroke: #000000; stroke-width: 2; stroke-linecap: square"/>
   </g>
   <g id="line2d_4">
    <path d="M 98.936477 229.788571 
L 1257.270763 229.788571 
" clip-path="url(#p008e252782)" style="fill: none; stroke: #000000; stroke-width: 2; stroke-linecap: square"/>
   </g>
   <g id="line2d_5">
    <path d="M 98.936477 287.417143 
L 1257.270763 287.417143 
" clip-path="url(#p008e252782)" style="fill: none; stroke: #000000; stroke-width: 2; stroke-linecap: square"/>
   </g>
   <g id="line2d_6">
    <path d="M 98.936477 345.045714 
L 1257.270763 345.045714 
" clip-path="url(#p008e252782)" style="fill: none; stroke: #000000; stroke-width: 2; stroke-linecap: square"/>
   </g>
   <g id="line2d_7">
    <path d="M 98.936477 402.674286 
L 1257.270763 402.674286 
" clip-path="url(#p008e252782)" style="fill: none; stroke: #000000; stroke-width: 2; stroke-linecap: square"/>
   </g>
   <g id="line2d_8">
    <path d="M 98.936477 458.429929 
L 1257.270763 458.429929 
" clip-path="url(#p008e252782)" style="fill: none; stroke: #778899; stroke-width: 2; stroke-linecap: square"/>
   </g>
   <g id="line2d_9">
    <path d="M 98.936477 462.175786 
L 1257.270763 462.175786 
" clip-path="url(#p008e252782)" style="fill: none; stroke: #778899; stroke-width: 2; stroke-linecap: square"/>
   </g>
   <g id="line2d_10">
    <path d="M 245.313048 114.531429 
L 245.313048 56.902857 
" clip-path="url(#p008e252782)" style="fill: none; stroke: #6fa4ff; stroke-width: 2; stroke-linecap: square"/>
   </g>
   <g id="line2d_11">
    <path d="M 302.94162 172.16 
L 302.94162 56.902857 
" clip-path="url(#p008e252782)" style="fill: none; stroke: #6fa4ff; stroke-width: 2; stroke-linecap: square"/>
   </g>
   <g id="patch_2">
    <path d="M 349.33262 85.717143 
L 371.807763 85.717143 
L 371.807763 28.088571 
L 349.33262 28.088571 
z
" clip-path="url(#p008e252782)" style="fill: #bdbdbd; opacity: 0.6"/>
   </g>
   <g id="patch_3">
    <path d="M 349.33262 143.345714 
L 371.807763 143.345714 
L 371.807763 85.717143 
L 349.33262 85.717143 
z
" clip-path="url(#p008e252782)" style="fill: #bdbdbd; opacity: 0.6"/>
   </g>
   <g id="patch_4">
    <path d="M 349.33262 200.974286 
L 371.807763 200.974286 
L 371.807763 143.345714 
L 349.33262 143.345714 
z
" clip-path="url(#p008e252782)" style="fill: #bdbdbd; opacity: 0.6"/>
   </g>
   <g id="patch_5">
    <path d="M 349.33262 258.602857 
L 371.807763 258.602857 
L 371.807763 200.974286 
L 349.33262 200.974286 
z
" clip-path="url(#p008e252782)" style="fill: #bdbdbd; opacity: 0.6"/>
   </g>
   <g id="patch_6">
    <path d="M 349.33262 316.231429 
L 371.807763 316.231429 
L 371.807763 258.602857 
L 349.33262 258.602857 
z
" clip-path="url(#p008e252782)" style="fill: #bdbdbd; opacity: 0.6"/>
   </g>
   <g id="patch_7">
    <path d="M 349.33262 373.86 
L 371.807763 373.86 
L 371.807763 316.231429 
L 349.33262 316.231429 
z
" clip-path="url(#p008e252782)" style="fill: #bdbdbd; opacity: 0.6"/>
   </g>
   <g id="patch_8">
    <path d="M 349.33262 431.488571 
L 371.807763 431.488571 
L 371.807763 373.86 
L 349.33262 373.86 
z
" clip-path="url(#p008e252782)" style="fill: #bdbdbd; opacity: 0.6"/>
   </g>
   <g id="line2d_12">
    <path d="M 418.198763 402.674286 
L 418.198763 56.902857 
" clip-path="url(#p008e252782)" style="fill: none; stroke: #6fa4ff; stroke-width: 2; stroke-linecap: square"/>
   </g>
   <g id="line2d_13">
    <path d="M 475.827334 402.674286 
L 475.827334 114.531429 
" clip-path="url(#p008e252782)" style="fill: none; stroke: #6fa4ff; stroke-width: 2; stroke-linecap: square"/>
   </g>
   <g id="line2d_14">
    <path d="M 533.455905 402.674286 
L 533.455905 229.788571 
" clip-path="url(#p008e252782)" style="fill: none; stroke: #6fa4ff; stroke-width: 2; stroke-linecap: square"/>
   </g>
   <g id="patch_9">
    <path d="M 579.846905 85.717143 
L 602.322048 85.717143 
L 602.322048 28.088571 
L 579.846905 28.088571 
z
" clip-path="url(#p008e252782)" style="fill: #bdbdbd; opacity: 0.6"/>
   </g>
   <g id="patch_10">
    <path d="M 579.846905 143.345714 
L 602.322048 143.345714 
L 602.322048 85.717143 
L 579.846905 85.717143 
z
" clip-path="url(#p008e252782)" style="fill: #bdbdbd; opacity: 0.6"/>
   </g>
   <g id="patch_11">
    <path d="M 579.846905 200.974286 
L 602.322048 200.974286 
L 602.322048 143.345714 
L 579.846905 143.345714 
z
" clip-path="url(#p008e252782)" style="fill: #bdbdbd; opacity: 0.6"/>
   </g>
   <g id="patch_12">
    <path d="M 579.846905 258.602857 
L 602.322048 258.602857 
L 602.322048 200.974286 
L 579.846905 200.974286 
z
" clip-path="url(#p008e252782)" style="fill: #bdbdbd; opacity: 0.6"/>
   </g>
   <g id="patch_13">
    <path d="M 579.846905 316.231429 
L 602.322048 316.231429 
L 602.322048 258.602857 
L 579.846905 258.602857 
z
" clip-path="url(#p008e252782)" style="fill: #bdbdbd; opacity: 0.6"/>
   </g>
   <g id="patch_14">
    <path d="M 579.846905 373.86 
L 602.322048 373.86 
L 602.322048 316.231429 
L 579.846905 316.231429 
z
" clip-path="url(#p008e252782)" style="fill: #bdbdbd; opacity: 0.6"/>
   </g>
   <g id="patch_15">
    <path d="M 579.846905 431.488571 
L 602.322048 431.488571 
L 602.322048 373.86 
L 579.846905 373.86 
z
" clip-path="url(#p008e252782)" style="fill: #bdbdbd; opacity: 0.6"/>
   </g>
   <g id="line2d_15">
    <path d="M 648.713048 345.045714 
L 648.713048 56.902857 
" clip-path="url(#p008e252782)" style="fill: none; stroke: #6fa4ff; stroke-width: 2; stroke-linecap: square"/>
   </g>
   <g id="line2d_16">
    <path d="M 706.34162 345.045714 
L 706.34162 172.16 
" clip-path="url(#p008e252782)" style="fill: none; stroke: #6fa4ff; stroke-width: 2; stroke-linecap: square"/>
   </g>
   <g id="line2d_17">
    <path d="M 763.970191 345.045714 
L 763.970191 229.788571 
" clip-path="url(#p008e252782)" style="fill: none; stroke: #6fa4ff; stroke-width: 2; stroke-linecap: square"/>
   </g>
   <g id="patch_16">
    <path d="M 810.361191 85.717143 
L 832.836334 85.717143 
L 832.836334 28.088571 
L 810.361191 28.088571 
z
" clip-path="url(#p008e252782)" style="fill: #bdbdbd; opacity: 0.6"/>
   </g>
   <g id="patch_17">
    <path d="M 810.361191 143.345714 
L 832.836334 143.345714 
L 832.836334 85.717143 
L 810.361191 85.717143 
z
" clip-path="url(#p008e252782)" style="fill: #bdbdbd; opacity: 0.6"/>
   </g>
   <g id="patch_18">
    <path d="M 810.361191 200.974286 
L 832.836334 200.974286 
L 832.836334 143.345714 
L 810.361191 143.345714 
z
" clip-path="url(#p008e252782)" style="fill: #bdbdbd; opacity: 0.6"/>
   </g>
   <g id="patch_19">
    <path d="M 810.361191 258.602857 
L 832.836334 258.602857 
L 832.836334 200.974286 
L 810.361191 200.974286 
z
" clip-path="url(#p008e252782)" style="fill: #bdbdbd; opacity: 0.6"/>
   </g>
   <g id="patch_20">
    <path d="M 810.361191 316.231429 
L 832.836334 316.231429 
L 832.836334 258.602857 
L 810.361191 258.602857 
z
" clip-path="url(#p008e252782)" style="fill: #bdbdbd; opacity: 0.6"/>
   </g>
   <g id="patch_21">
    <path d="M 810.361191 373.86 
L 832.836334 373.86 
L 832.836334 316.231429 
L 810.361191 316.231429 
z
" clip-path="url(#p008e252782)" style="fill: #bdbdbd; opacity: 0.6"/>
   </g>
   <g id="patch_22">
    <path d="M 810.361191 431.488571 
L 832.836334 431.488571 
L 832.836334 373.86 
L 810.361191 373.86 
z
" clip-path="url(#p008e252782)" style="fill: #bdbdbd; opacity: 0.6"/>
   </g>
   <g id="line2d_18">
    <path d="M 879.227334 287.417143 
L 879.227334 114.531429 
" clip-path="url(#p008e252782)" style="fill: none; stroke: #6fa4ff; stroke-width: 2; stroke-linecap: square"/>
   </g>
   <g id="line2d_19">
    <path d="M 936.855905 287.417143 
L 936.855905 172.16 
" clip-path="url(#p008e252782)" style="fill: none; stroke: #6fa4ff; stroke-width: 2; stroke-linecap: square"/>
   </g>
   <g id="line2d_20">
    <path d="M 994.484477 287.417143 
L 994.484477 229.788571 
" clip-path="url(#p008e252782)" style="fill: none; stroke: #6fa4ff; stroke-width: 2; stroke-linecap: square"/>
   </g>
   <g id="patch_23">
    <path d="M 1040.875477 85.717143 
L 1063.35062 85.717143 
L 1063.35062 28.088571 
L 1040.875477 28.088571 
z
" clip-path="url(#p008e252782)" style="fill: #bdbdbd; opacity: 0.6"/>
   </g>
   <g id="patch_24">
    <path d="M 1040.875477 143.345714 
L 1063.35062 143.345714 
L 1063.35062 85.717143 
L 1040.875477 85.717143 
z
" clip-path="url(#p008e252782)" style="fill: #bdbdbd; opacity: 0.6"/>
   </g>
   <g id="patch_25">
    <path d="M 1040.875477 200.974286 
L 1063.35062 200.974286 
L 1063.35062 143.345714 
L 1040.875477 143.345714 
z
" clip-path="url(#p008e252782)" style="fill: #bdbdbd; opacity: 0.6"/>
   </g>
   <g id="patch_26">
    <path d="M 1040.875477 258.602857 
L 1063.35062 258.602857 
L 1063.35062 200.974286 
L 1040.875477 200.974286 
z
" clip-path="url(#p008e252782)" style="fill: #bdbdbd; opacity: 0.6"/>
   </g>
   <g id="patch_27">
    <path d="M 1040.875477 316.231429 
L 1063.35062 316.231429 
L 1063.35062 258.602857 
L 1040.875477 258.602857 
z
" clip-path="url(#p008e252782)" style="fill: #bdbdbd; opacity: 0.6"/>
   </g>
   <g id="patch_28">
    <path d="M 1040.875477 373.86 
L 1063.35062 373.86 
L 1063.35062 316.231429 
L 1040.875477 316.231429 
z
" clip-path="url(#p008e252782)" style="fill: #bdbdbd; opacity: 0.6"/>
   </g>
   <g id="patch_29">
    <path d="M 1040.875477 431.488571 
L 1063.35062 431.488571 
L 1063.35062 373.86 
L 1040.875477 373.86 
z
" clip-path="url(#p008e252782)" style="fill: #bdbdbd; opacity: 0.6"/>
   </g>
   <g id="patch_30">
    <path d="M 1156.13262 85.717143 
L 1178.607763 85.717143 
L 1178.607763 28.088571 
L 1156.13262 28.088571 
z
" clip-path="url(#p008e252782)" style="fill: #bdbdbd; opacity: 0.6"/>
   </g>
   <g id="patch_31">
    <path d="M 1156.13262 143.345714 
L 1178.607763 143.345714 
L 1178.607763 85.717143 
L 1156.13262 85.717143 
z
" clip-path="url(#p008e252782)" style="fill: #bdbdbd; opacity: 0.6"/>
   </g>
   <g id="patch_32">
    <path d="M 1156.13262 200.974286 
L 1178.607763 200.974286 
L 1178.607763 143.345714 
L 1156.13262 143.345714 
z
" clip-path="url(#p008e252782)" style="fill: #bdbdbd; opacity: 0.6"/>
   </g>
   <g id="patch_33">
    <path d="M 1156.13262 258.602857 
L 1178.607763 258.602857 
L 1178.607763 200.974286 
L 1156.13262 200.974286 
z
" clip-path="url(#p008e252782)" style="fill: #bdbdbd; opacity: 0.6"/>
   </g>
   <g id="patch_34">
    <path d="M 1156.13262 316.231429 
L 1178.607763 316.231429 
L 1178.607763 258.602857 
L 1156.13262 258.602857 
z
" clip-path="url(#p008e252782)" style="fill: #bdbdbd; opacity: 0.6"/>
   </g>
   <g id="patch_35">
    <path d="M 1156.13262 373.86 
L 1178.607763 373.86 
L 1178.607763 316.231429 
L 1156.13262 316.231429 
z
" clip-path="url(#p008e252782)" style="fill: #bdbdbd; opacity: 0.6"/>
   </g>
   <g id="patch_36">
    <path d="M 1156.13262 431.488571 
L 1178.607763 431.488571 
L 1178.607763 373.86 
L 1156.13262 373.86 
z
" clip-path="url(#p008e252782)" style="fill: #bdbdbd; opacity: 0.6"/>
   </g>
   <g id="line2d_21">
    <path d="M 110.462191 466.065714 
L 116.225048 454.54 
" clip-path="url(#p008e252782)" style="fill: none; stroke: #778899; stroke-width: 1.5; stroke-linecap: square"/>
   </g>
   <g id="patch_37">
    <path d="M 123.512181 75.632143 
L 194.228201 75.632143 
L 194.228201 38.173571 
L 123.512181 38.173571 
z
" clip-path="url(#p008e252782)" style="fill: #bb8bff; stroke: #bb8bff; stroke-width: 1.5; stroke-linejoin: miter"/>
   </g>
   <g id="patch_38">
    <path d="M 140.140905 306.146429 
L 177.599477 306.146429 
L 177.599477 268.687857 
L 140.140905 268.687857 
z
" clip-path="url(#p008e252782)" style="fill: #6fa4ff; stroke: #6fa4ff; stroke-width: 1.5; stroke-linejoin: miter"/>
   </g>
   <g id="patch_39">
    <path d="M 140.140905 363.775 
L 177.599477 363.775 
L 177.599477 326.316429 
L 140.140905 326.316429 
z
" clip-path="url(#p008e252782)" style="fill: #6fa4ff; stroke: #6fa4ff; stroke-width: 1.5; stroke-linejoin: miter"/>
   </g>
   <g id="patch_40">
    <path d="M 140.140905 421.403571 
L 177.599477 421.403571 
L 177.599477 383.945 
L 140.140905 383.945 
z
" clip-path="url(#p008e252782)" style="fill: #6fa4ff; stroke: #6fa4ff; stroke-width: 1.5; stroke-linejoin: miter"/>
   </g>
   <g id="patch_41">
    <path d="M 245.313048 62.521643 
C 246.803168 62.521643 248.232456 61.929612 249.28613 60.875939 
C 250.339803 59.822265 250.931834 58.392977 250.931834 56.902857 
C 250.931834 55.412738 250.339803 53.983449 249.28613 52.929776 
C 248.232456 51.876102 246.803168 51.284071 245.313048 51.284071 
C 243.822929 51.284071 242.39364 51.876102 241.339967 52.929776 
C 240.286293 53.983449 239.694263 55.412738 239.694263 56.902857 
C 239.694263 58.392977 240.286293 59.822265 241.339967 60.875939 
C 242.39364 61.929612 243.822929 62.521643 245.313048 62.521643 
z
" clip-path="url(#p008e252782)" style="fill: #6fa4ff; stroke: #6fa4ff; stroke-width: 1.5; stroke-linejoin: miter"/>
   </g>
   <g id="patch_42">
    <path d="M 245.313048 127.641929 
C 248.789994 127.641929 252.125 126.260524 254.583572 123.801952 
C 257.042143 121.34338 258.423548 118.008374 258.423548 114.531429 
C 258.423548 111.054483 257.042143 107.719477 254.583572 105.260905 
C 252.125 102.802334 248.789994 101.420929 245.313048 101.420929 
C 241.836103 101.420929 238.501096 102.802334 236.042525 105.260905 
C 233.583953 107.719477 232.202548 111.054483 232.202548 114.531429 
C 232.202548 118.008374 233.583953 121.34338 236.042525 123.801952 
C 238.501096 126.260524 241.836103 127.641929 245.313048 127.641929 
z
" clip-path="url(#p008e252782)" style="fill: #6fa4ff; stroke: #6fa4ff; stroke-width: 2; stroke-linejoin: miter"/>
   </g>
   <g id="patch_43">
    <path d="M 302.94162 62.521643 
C 304.431739 62.521643 305.861028 61.929612 306.914701 60.875939 
C 307.968375 59.822265 308.560405 58.392977 308.560405 56.902857 
C 308.560405 55.412738 307.968375 53.983449 306.914701 52.929776 
C 305.861028 51.876102 304.431739 51.284071 302.94162 51.284071 
C 301.4515 51.284071 300.022212 51.876102 298.968538 52.929776 
C 297.914865 53.983449 297.322834 55.412738 297.322834 56.902857 
C 297.322834 58.392977 297.914865 59.822265 298.968538 60.875939 
C 300.022212 61.929612 301.4515 62.521643 302.94162 62.521643 
z
" clip-path="url(#p008e252782)" style="fill: #6fa4ff; stroke: #6fa4ff; stroke-width: 1.5; stroke-linejoin: miter"/>
   </g>
   <g id="patch_44">
    <path d="M 302.94162 185.2705 
C 306.418565 185.2705 309.753572 183.889095 312.212143 181.430523 
C 314.670715 178.971952 316.05212 175.636945 316.05212 172.16 
C 316.05212 168.683055 314.670715 165.348048 312.212143 162.889477 
C 309.753572 160.430905 306.418565 159.0495 302.94162 159.0495 
C 299.464674 159.0495 296.129668 160.430905 293.671096 162.889477 
C 291.212525 165.348048 289.83112 168.683055 289.83112 172.16 
C 289.83112 175.636945 291.212525 178.971952 293.671096 181.430523 
C 296.129668 183.889095 299.464674 185.2705 302.94162 185.2705 
z
" clip-path="url(#p008e252782)" style="fill: #6fa4ff; stroke: #6fa4ff; stroke-width: 2; stroke-linejoin: miter"/>
   </g>
   <g id="patch_45">
    <path d="M 418.198763 408.293071 
C 419.688882 408.293071 421.118171 407.701041 422.171844 406.647367 
C 423.225518 405.593694 423.817548 404.164405 423.817548 402.674286 
C 423.817548 401.184166 423.225518 399.754878 422.171844 398.701204 
C 421.118171 397.647531 419.688882 397.0555 418.198763 397.0555 
C 416.708643 397.0555 415.279355 397.647531 414.225681 398.701204 
C 413.172008 399.754878 412.579977 401.184166 412.579977 402.674286 
C 412.579977 404.164405 413.172008 405.593694 414.225681 406.647367 
C 415.279355 407.701041 416.708643 408.293071 418.198763 408.293071 
z
" clip-path="url(#p008e252782)" style="fill: #6fa4ff; stroke: #6fa4ff; stroke-width: 1.5; stroke-linejoin: miter"/>
   </g>
   <g id="patch_46">
    <path d="M 418.198763 70.013357 
C 421.675708 70.013357 425.010714 68.631952 427.469286 66.173381 
C 429.927858 63.714809 431.309263 60.379802 431.309263 56.902857 
C 431.309263 53.425912 429.927858 50.090905 427.469286 47.632334 
C 425.010714 45.173762 421.675708 43.792357 418.198763 43.792357 
C 414.721817 43.792357 411.386811 45.173762 408.928239 47.632334 
C 406.469668 50.090905 405.088263 53.425912 405.088263 56.902857 
C 405.088263 60.379802 406.469668 63.714809 408.928239 66.173381 
C 411.386811 68.631952 414.721817 70.013357 418.198763 70.013357 
z
" clip-path="url(#p008e252782)" style="fill: #6fa4ff; stroke: #6fa4ff; stroke-width: 2; stroke-linejoin: miter"/>
   </g>
   <g id="patch_47">
    <path d="M 475.827334 408.293071 
C 477.317453 408.293071 478.746742 407.701041 479.800415 406.647367 
C 480.854089 405.593694 481.44612 404.164405 481.44612 402.674286 
C 481.44612 401.184166 480.854089 399.754878 479.800415 398.701204 
C 478.746742 397.647531 477.317453 397.0555 475.827334 397.0555 
C 474.337215 397.0555 472.907926 397.647531 471.854253 398.701204 
C 470.800579 399.754878 470.208548 401.184166 470.208548 402.674286 
C 470.208548 404.164405 470.800579 405.593694 471.854253 406.647367 
C 472.907926 407.701041 474.337215 408.293071 475.827334 408.293071 
z
" clip-path="url(#p008e252782)" style="fill: #6fa4ff; stroke: #6fa4ff; stroke-width: 1.5; stroke-linejoin: miter"/>
   </g>
   <g id="patch_48">
    <path d="M 475.827334 127.641929 
C 479.304279 127.641929 482.639286 126.260524 485.097857 123.801952 
C 487.556429 121.34338 488.937834 118.008374 488.937834 114.531429 
C 488.937834 111.054483 487.556429 107.719477 485.097857 105.260905 
C 482.639286 102.802334 479.304279 101.420929 475.827334 101.420929 
C 472.350389 101.420929 469.015382 102.802334 466.556811 105.260905 
C 464.098239 107.719477 462.716834 111.054483 462.716834 114.531429 
C 462.716834 118.008374 464.098239 121.34338 466.556811 123.801952 
C 469.015382 126.260524 472.350389 127.641929 475.827334 127.641929 
z
" clip-path="url(#p008e252782)" style="fill: #6fa4ff; stroke: #6fa4ff; stroke-width: 2; stroke-linejoin: miter"/>
   </g>
   <g id="patch_49">
    <path d="M 533.455905 408.293071 
C 534.946025 408.293071 536.375313 407.701041 537.428987 406.647367 
C 538.48266 405.593694 539.074691 404.164405 539.074691 402.674286 
C 539.074691 401.184166 538.48266 399.754878 537.428987 398.701204 
C 536.375313 397.647531 534.946025 397.0555 533.455905 397.0555 
C 531.965786 397.0555 530.536497 397.647531 529.482824 398.701204 
C 528.42915 399.754878 527.83712 401.184166 527.83712 402.674286 
C 527.83712 404.164405 528.42915 405.593694 529.482824 406.647367 
C 530.536497 407.701041 531.965786 408.293071 533.455905 408.293071 
z
" clip-path="url(#p008e252782)" style="fill: #6fa4ff; stroke: #6fa4ff; stroke-width: 1.5; stroke-linejoin: miter"/>
   </g>
   <g id="patch_50">
    <path d="M 533.455905 242.899071 
C 536.932851 242.899071 540.267857 241.517666 542.726429 239.059095 
C 545.185 236.600523 546.566405 233.265517 546.566405 229.788571 
C 546.566405 226.311626 545.185 222.97662 542.726429 220.518048 
C 540.267857 218.059476 536.932851 216.678071 533.455905 216.678071 
C 529.97896 216.678071 526.643954 218.059476 524.185382 220.518048 
C 521.72681 222.97662 520.345405 226.311626 520.345405 229.788571 
C 520.345405 233.265517 521.72681 236.600523 524.185382 239.059095 
C 526.643954 241.517666 529.97896 242.899071 533.455905 242.899071 
z
" clip-path="url(#p008e252782)" style="fill: #6fa4ff; stroke: #6fa4ff; stroke-width: 2; stroke-linejoin: miter"/>
   </g>
   <g id="patch_51">
    <path d="M 648.713048 350.6645 
C 650.203168 350.6645 651.632456 350.072469 652.68613 349.018796 
C 653.739803 347.965122 654.331834 346.535834 654.331834 345.045714 
C 654.331834 343.555595 653.739803 342.126306 652.68613 341.072633 
C 651.632456 340.018959 650.203168 339.426929 648.713048 339.426929 
C 647.222929 339.426929 645.79364 340.018959 644.739967 341.072633 
C 643.686293 342.126306 643.094263 343.555595 643.094263 345.045714 
C 643.094263 346.535834 643.686293 347.965122 644.739967 349.018796 
C 645.79364 350.072469 647.222929 350.6645 648.713048 350.6645 
z
" clip-path="url(#p008e252782)" style="fill: #6fa4ff; stroke: #6fa4ff; stroke-width: 1.5; stroke-linejoin: miter"/>
   </g>
   <g id="patch_52">
    <path d="M 648.713048 70.013357 
C 652.189994 70.013357 655.525 68.631952 657.983572 66.173381 
C 660.442143 63.714809 661.823548 60.379802 661.823548 56.902857 
C 661.823548 53.425912 660.442143 50.090905 657.983572 47.632334 
C 655.525 45.173762 652.189994 43.792357 648.713048 43.792357 
C 645.236103 43.792357 641.901096 45.173762 639.442525 47.632334 
C 636.983953 50.090905 635.602548 53.425912 635.602548 56.902857 
C 635.602548 60.379802 636.983953 63.714809 639.442525 66.173381 
C 641.901096 68.631952 645.236103 70.013357 648.713048 70.013357 
z
" clip-path="url(#p008e252782)" style="fill: #6fa4ff; stroke: #6fa4ff; stroke-width: 2; stroke-linejoin: miter"/>
   </g>
   <g id="patch_53">
    <path d="M 706.34162 350.6645 
C 707.831739 350.6645 709.261028 350.072469 710.314701 349.018796 
C 711.368375 347.965122 711.960405 346.535834 711.960405 345.045714 
C 711.960405 343.555595 711.368375 342.126306 710.314701 341.072633 
C 709.261028 340.018959 707.831739 339.426929 706.34162 339.426929 
C 704.8515 339.426929 703.422212 340.018959 702.368538 341.072633 
C 701.314865 342.126306 700.722834 343.555595 700.722834 345.045714 
C 700.722834 346.535834 701.314865 347.965122 702.368538 349.018796 
C 703.422212 350.072469 704.8515 350.6645 706.34162 350.6645 
z
" clip-path="url(#p008e252782)" style="fill: #6fa4ff; stroke: #6fa4ff; stroke-width: 1.5; stroke-linejoin: miter"/>
   </g>
   <g id="patch_54">
    <path d="M 706.34162 185.2705 
C 709.818565 185.2705 713.153572 183.889095 715.612143 181.430523 
C 718.070715 178.971952 719.45212 175.636945 719.45212 172.16 
C 719.45212 168.683055 718.070715 165.348048 715.612143 162.889477 
C 713.153572 160.430905 709.818565 159.0495 706.34162 159.0495 
C 702.864674 159.0495 699.529668 160.430905 697.071096 162.889477 
C 694.612525 165.348048 693.23112 168.683055 693.23112 172.16 
C 693.23112 175.636945 694.612525 178.971952 697.071096 181.430523 
C 699.529668 183.889095 702.864674 185.2705 706.34162 185.2705 
z
" clip-path="url(#p008e252782)" style="fill: #6fa4ff; stroke: #6fa4ff; stroke-width: 2; stroke-linejoin: miter"/>
   </g>
   <g id="patch_55">
    <path d="M 763.970191 350.6645 
C 765.460311 350.6645 766.889599 350.072469 767.943273 349.018796 
C 768.996946 347.965122 769.588977 346.535834 769.588977 345.045714 
C 769.588977 343.555595 768.996946 342.126306 767.943273 341.072633 
C 766.889599 340.018959 765.460311 339.426929 763.970191 339.426929 
C 762.480072 339.426929 761.050783 340.018959 759.99711 341.072633 
C 758.943436 342.126306 758.351405 343.555595 758.351405 345.045714 
C 758.351405 346.535834 758.943436 347.965122 759.99711 349.018796 
C 761.050783 350.072469 762.480072 350.6645 763.970191 350.6645 
z
" clip-path="url(#p008e252782)" style="fill: #6fa4ff; stroke: #6fa4ff; stroke-width: 1.5; stroke-linejoin: miter"/>
   </g>
   <g id="patch_56">
    <path d="M 763.970191 242.899071 
C 767.447136 242.899071 770.782143 241.517666 773.240715 239.059095 
C 775.699286 236.600523 777.080691 233.265517 777.080691 229.788571 
C 777.080691 226.311626 775.699286 222.97662 773.240715 220.518048 
C 770.782143 218.059476 767.447136 216.678071 763.970191 216.678071 
C 760.493246 216.678071 757.158239 218.059476 754.699668 220.518048 
C 752.241096 222.97662 750.859691 226.311626 750.859691 229.788571 
C 750.859691 233.265517 752.241096 236.600523 754.699668 239.059095 
C 757.158239 241.517666 760.493246 242.899071 763.970191 242.899071 
z
" clip-path="url(#p008e252782)" style="fill: #6fa4ff; stroke: #6fa4ff; stroke-width: 2; stroke-linejoin: miter"/>
   </g>
   <g id="patch_57">
    <path d="M 879.227334 293.035929 
C 880.717453 293.035929 882.146742 292.443898 883.200415 291.390224 
C 884.254089 290.336551 884.84612 288.907262 884.84612 287.417143 
C 884.84612 285.927023 884.254089 284.497735 883.200415 283.444061 
C 882.146742 282.390388 880.717453 281.798357 879.227334 281.798357 
C 877.737215 281.798357 876.307926 282.390388 875.254253 283.444061 
C 874.200579 284.497735 873.608548 285.927023 873.608548 287.417143 
C 873.608548 288.907262 874.200579 290.336551 875.254253 291.390224 
C 876.307926 292.443898 877.737215 293.035929 879.227334 293.035929 
z
" clip-path="url(#p008e252782)" style="fill: #6fa4ff; stroke: #6fa4ff; stroke-width: 1.5; stroke-linejoin: miter"/>
   </g>
   <g id="patch_58">
    <path d="M 879.227334 127.641929 
C 882.704279 127.641929 886.039286 126.260524 888.497857 123.801952 
C 890.956429 121.34338 892.337834 118.008374 892.337834 114.531429 
C 892.337834 111.054483 890.956429 107.719477 888.497857 105.260905 
C 886.039286 102.802334 882.704279 101.420929 879.227334 101.420929 
C 875.750389 101.420929 872.415382 102.802334 869.956811 105.260905 
C 867.498239 107.719477 866.116834 111.054483 866.116834 114.531429 
C 866.116834 118.008374 867.498239 121.34338 869.956811 123.801952 
C 872.415382 126.260524 875.750389 127.641929 879.227334 127.641929 
z
" clip-path="url(#p008e252782)" style="fill: #6fa4ff; stroke: #6fa4ff; stroke-width: 2; stroke-linejoin: miter"/>
   </g>
   <g id="patch_59">
    <path d="M 936.855905 293.035929 
C 938.346025 293.035929 939.775313 292.443898 940.828987 291.390224 
C 941.88266 290.336551 942.474691 288.907262 942.474691 287.417143 
C 942.474691 285.927023 941.88266 284.497735 940.828987 283.444061 
C 939.775313 282.390388 938.346025 281.798357 936.855905 281.798357 
C 935.365786 281.798357 933.936497 282.390388 932.882824 283.444061 
C 931.82915 284.497735 931.23712 285.927023 931.23712 287.417143 
C 931.23712 288.907262 931.82915 290.336551 932.882824 291.390224 
C 933.936497 292.443898 935.365786 293.035929 936.855905 293.035929 
z
" clip-path="url(#p008e252782)" style="fill: #6fa4ff; stroke: #6fa4ff; stroke-width: 1.5; stroke-linejoin: miter"/>
   </g>
   <g id="patch_60">
    <path d="M 936.855905 185.2705 
C 940.332851 185.2705 943.667857 183.889095 946.126429 181.430523 
C 948.585 178.971952 949.966405 175.636945 949.966405 172.16 
C 949.966405 168.683055 948.585 165.348048 946.126429 162.889477 
C 943.667857 160.430905 940.332851 159.0495 936.855905 159.0495 
C 933.37896 159.0495 930.043954 160.430905 927.585382 162.889477 
C 925.12681 165.348048 923.745405 168.683055 923.745405 172.16 
C 923.745405 175.636945 925.12681 178.971952 927.585382 181.430523 
C 930.043954 183.889095 933.37896 185.2705 936.855905 185.2705 
z
" clip-path="url(#p008e252782)" style="fill: #6fa4ff; stroke: #6fa4ff; stroke-width: 2; stroke-linejoin: miter"/>
   </g>
   <g id="patch_61">
    <path d="M 994.484477 293.035929 
C 995.974596 293.035929 997.403885 292.443898 998.457558 291.390224 
C 999.511232 290.336551 1000.103263 288.907262 1000.103263 287.417143 
C 1000.103263 285.927023 999.511232 284.497735 998.457558 283.444061 
C 997.403885 282.390388 995.974596 281.798357 994.484477 281.798357 
C 992.994357 281.798357 991.565069 282.390388 990.511395 283.444061 
C 989.457722 284.497735 988.865691 285.927023 988.865691 287.417143 
C 988.865691 288.907262 989.457722 290.336551 990.511395 291.390224 
C 991.565069 292.443898 992.994357 293.035929 994.484477 293.035929 
z
" clip-path="url(#p008e252782)" style="fill: #6fa4ff; stroke: #6fa4ff; stroke-width: 1.5; stroke-linejoin: miter"/>
   </g>
   <g id="patch_62">
    <path d="M 994.484477 242.899071 
C 997.961422 242.899071 1001.296429 241.517666 1003.755 239.059095 
C 1006.213572 236.600523 1007.594977 233.265517 1007.594977 229.788571 
C 1007.594977 226.311626 1006.213572 222.97662 1003.755 220.518048 
C 1001.296429 218.059476 997.961422 216.678071 994.484477 216.678071 
C 991.007532 216.678071 987.672525 218.059476 985.213953 220.518048 
C 982.755382 222.97662 981.373977 226.311626 981.373977 229.788571 
C 981.373977 233.265517 982.755382 236.600523 985.213953 239.059095 
C 987.672525 241.517666 991.007532 242.899071 994.484477 242.899071 
z
" clip-path="url(#p008e252782)" style="fill: #6fa4ff; stroke: #6fa4ff; stroke-width: 2; stroke-linejoin: miter"/>
   </g>
   <g id="patch_63">
    <path d="M 1091.012334 190.889286 
L 1128.470905 190.889286 
L 1128.470905 153.430714 
L 1091.012334 153.430714 
z
" clip-path="url(#p008e252782)" style="fill: #05bab6; stroke: #05bab6; stroke-width: 1.5; stroke-linejoin: miter"/>
   </g>
   <g id="patch_64">
    <path d="M 1091.012334 306.146429 
L 1128.470905 306.146429 
L 1128.470905 268.687857 
L 1091.012334 268.687857 
z
" clip-path="url(#p008e252782)" style="fill: #05bab6; stroke: #05bab6; stroke-width: 1.5; stroke-linejoin: miter"/>
   </g>
   <g id="patch_65">
    <path d="M 1206.269477 190.889286 
L 1243.728048 190.889286 
L 1243.728048 153.430714 
L 1206.269477 153.430714 
z
" clip-path="url(#p008e252782)" style="fill: #05bab6; stroke: #05bab6; stroke-width: 1.5; stroke-linejoin: miter"/>
   </g>
   <g id="patch_66">
    <path d="M 1206.269477 306.146429 
L 1243.728048 306.146429 
L 1243.728048 268.687857 
L 1206.269477 268.687857 
z
" clip-path="url(#p008e252782)" style="fill: #05bab6; stroke: #05bab6; stroke-width: 1.5; stroke-linejoin: miter"/>
   </g>
   <g id="text_1">
    <g clip-path="url(#p008e252782)">
     <!-- circuit-0 -->
     <g transform="translate(132.436519 60.490045) scale(0.13 -0.13)">
      <defs>
       <path id="DejaVuSans-63" d="M 3122 3366 
L 3122 2828 
Q 2878 2963 2633 3030 
Q 2388 3097 2138 3097 
Q 1578 3097 1268 2742 
Q 959 2388 959 1747 
Q 959 1106 1268 751 
Q 1578 397 2138 397 
Q 2388 397 2633 464 
Q 2878 531 3122 666 
L 3122 134 
Q 2881 22 2623 -34 
Q 2366 -91 2075 -91 
Q 1284 -91 818 406 
Q 353 903 353 1747 
Q 353 2603 823 3093 
Q 1294 3584 2113 3584 
Q 2378 3584 2631 3529 
Q 2884 3475 3122 3366 
z
" transform="scale(0.015625)"/>
       <path id="DejaVuSans-69" d="M 603 3500 
L 1178 3500 
L 1178 0 
L 603 0 
L 603 3500 
z
M 603 4863 
L 1178 4863 
L 1178 4134 
L 603 4134 
L 603 4863 
z
" transform="scale(0.015625)"/>
       <path id="DejaVuSans-72" d="M 2631 2963 
Q 2534 3019 2420 3045 
Q 2306 3072 2169 3072 
Q 1681 3072 1420 2755 
Q 1159 2438 1159 1844 
L 1159 0 
L 581 0 
L 581 3500 
L 1159 3500 
L 1159 2956 
Q 1341 3275 1631 3429 
Q 1922 3584 2338 3584 
Q 2397 3584 2469 3576 
Q 2541 3569 2628 3553 
L 2631 2963 
z
" transform="scale(0.015625)"/>
       <path id="DejaVuSans-75" d="M 544 1381 
L 544 3500 
L 1119 3500 
L 1119 1403 
Q 1119 906 1312 657 
Q 1506 409 1894 409 
Q 2359 409 2629 706 
Q 2900 1003 2900 1516 
L 2900 3500 
L 3475 3500 
L 3475 0 
L 2900 0 
L 2900 538 
Q 2691 219 2414 64 
Q 2138 -91 1772 -91 
Q 1169 -91 856 284 
Q 544 659 544 1381 
z
M 1991 3584 
L 1991 3584 
z
" transform="scale(0.015625)"/>
       <path id="DejaVuSans-74" d="M 1172 4494 
L 1172 3500 
L 2356 3500 
L 2356 3053 
L 1172 3053 
L 1172 1153 
Q 1172 725 1289 603 
Q 1406 481 1766 481 
L 2356 481 
L 2356 0 
L 1766 0 
Q 1100 0 847 248 
Q 594 497 594 1153 
L 594 3053 
L 172 3053 
L 172 3500 
L 594 3500 
L 594 4494 
L 1172 4494 
z
" transform="scale(0.015625)"/>
       <path id="DejaVuSans-2d" d="M 313 2009 
L 1997 2009 
L 1997 1497 
L 313 1497 
L 313 2009 
z
" transform="scale(0.015625)"/>
       <path id="DejaVuSans-30" d="M 2034 4250 
Q 1547 4250 1301 3770 
Q 1056 3291 1056 2328 
Q 1056 1369 1301 889 
Q 1547 409 2034 409 
Q 2525 409 2770 889 
Q 3016 1369 3016 2328 
Q 3016 3291 2770 3770 
Q 2525 4250 2034 4250 
z
M 2034 4750 
Q 2819 4750 3233 4129 
Q 3647 3509 3647 2328 
Q 3647 1150 3233 529 
Q 2819 -91 2034 -91 
Q 1250 -91 836 529 
Q 422 1150 422 2328 
Q 422 3509 836 4129 
Q 1250 4750 2034 4750 
z
" transform="scale(0.015625)"/>
      </defs>
      <use xlink:href="#DejaVuSans-63"/>
      <use xlink:href="#DejaVuSans-69" x="54.980469"/>
      <use xlink:href="#DejaVuSans-72" x="82.763672"/>
      <use xlink:href="#DejaVuSans-63" x="121.626953"/>
      <use xlink:href="#DejaVuSans-75" x="176.607422"/>
      <use xlink:href="#DejaVuSans-69" x="239.986328"/>
      <use xlink:href="#DejaVuSans-74" x="267.769531"/>
      <use xlink:href="#DejaVuSans-2d" x="306.978516"/>
      <use xlink:href="#DejaVuSans-30" x="343.0625"/>
     </g>
    </g>
   </g>
   <g id="text_2">
    <g clip-path="url(#p008e252782)">
     <!-- H -->
     <g transform="translate(153.981988 291.00433) scale(0.13 -0.13)">
      <defs>
       <path id="DejaVuSans-48" d="M 628 4666 
L 1259 4666 
L 1259 2753 
L 3553 2753 
L 3553 4666 
L 4184 4666 
L 4184 0 
L 3553 0 
L 3553 2222 
L 1259 2222 
L 1259 0 
L 628 0 
L 628 4666 
z
" transform="scale(0.015625)"/>
      </defs>
      <use xlink:href="#DejaVuSans-48"/>
     </g>
    </g>
   </g>
   <g id="text_3">
    <g clip-path="url(#p008e252782)">
     <!-- H -->
     <g transform="translate(153.981988 348.632902) scale(0.13 -0.13)">
      <use xlink:href="#DejaVuSans-48"/>
     </g>
    </g>
   </g>
   <g id="text_4">
    <g clip-path="url(#p008e252782)">
     <!-- H -->
     <g transform="translate(153.981988 406.261473) scale(0.13 -0.13)">
      <use xlink:href="#DejaVuSans-48"/>
     </g>
    </g>
   </g>
   <g id="line2d_22">
    <path d="M 245.313048 122.023143 
L 245.313048 107.039714 
" clip-path="url(#p008e252782)" style="fill: none; stroke: #ffffff; stroke-width: 2; stroke-linecap: square"/>
   </g>
   <g id="line2d_23">
    <path d="M 237.821334 114.531429 
L 252.804763 114.531429 
" clip-path="url(#p008e252782)" style="fill: none; stroke: #ffffff; stroke-width: 2; stroke-linecap: square"/>
   </g>
   <g id="line2d_24">
    <path d="M 302.94162 179.651714 
L 302.94162 164.668286 
" clip-path="url(#p008e252782)" style="fill: none; stroke: #ffffff; stroke-width: 2; stroke-linecap: square"/>
   </g>
   <g id="line2d_25">
    <path d="M 295.449905 172.16 
L 310.433334 172.16 
" clip-path="url(#p008e252782)" style="fill: none; stroke: #ffffff; stroke-width: 2; stroke-linecap: square"/>
   </g>
   <g id="line2d_26">
    <path d="M 360.570191 28.088571 
L 360.570191 85.717143 
" clip-path="url(#p008e252782)" style="fill: none; stroke-dasharray: 3.7,1.6; stroke-dashoffset: 0; stroke: #000000"/>
   </g>
   <g id="line2d_27">
    <path d="M 360.570191 85.717143 
L 360.570191 143.345714 
" clip-path="url(#p008e252782)" style="fill: none; stroke-dasharray: 3.7,1.6; stroke-dashoffset: 0; stroke: #000000"/>
   </g>
   <g id="line2d_28">
    <path d="M 360.570191 143.345714 
L 360.570191 200.974286 
" clip-path="url(#p008e252782)" style="fill: none; stroke-dasharray: 3.7,1.6; stroke-dashoffset: 0; stroke: #000000"/>
   </g>
   <g id="line2d_29">
    <path d="M 360.570191 200.974286 
L 360.570191 258.602857 
" clip-path="url(#p008e252782)" style="fill: none; stroke-dasharray: 3.7,1.6; stroke-dashoffset: 0; stroke: #000000"/>
   </g>
   <g id="line2d_30">
    <path d="M 360.570191 258.602857 
L 360.570191 316.231429 
" clip-path="url(#p008e252782)" style="fill: none; stroke-dasharray: 3.7,1.6; stroke-dashoffset: 0; stroke: #000000"/>
   </g>
   <g id="line2d_31">
    <path d="M 360.570191 316.231429 
L 360.570191 373.86 
" clip-path="url(#p008e252782)" style="fill: none; stroke-dasharray: 3.7,1.6; stroke-dashoffset: 0; stroke: #000000"/>
   </g>
   <g id="line2d_32">
    <path d="M 360.570191 373.86 
L 360.570191 431.488571 
" clip-path="url(#p008e252782)" style="fill: none; stroke-dasharray: 3.7,1.6; stroke-dashoffset: 0; stroke: #000000"/>
   </g>
   <g id="line2d_33">
    <path d="M 418.198763 64.394571 
L 418.198763 49.411143 
" clip-path="url(#p008e252782)" style="fill: none; stroke: #ffffff; stroke-width: 2; stroke-linecap: square"/>
   </g>
   <g id="line2d_34">
    <path d="M 410.707048 56.902857 
L 425.690477 56.902857 
" clip-path="url(#p008e252782)" style="fill: none; stroke: #ffffff; stroke-width: 2; stroke-linecap: square"/>
   </g>
   <g id="line2d_35">
    <path d="M 475.827334 122.023143 
L 475.827334 107.039714 
" clip-path="url(#p008e252782)" style="fill: none; stroke: #ffffff; stroke-width: 2; stroke-linecap: square"/>
   </g>
   <g id="line2d_36">
    <path d="M 468.33562 114.531429 
L 483.319048 114.531429 
" clip-path="url(#p008e252782)" style="fill: none; stroke: #ffffff; stroke-width: 2; stroke-linecap: square"/>
   </g>
   <g id="line2d_37">
    <path d="M 533.455905 237.280286 
L 533.455905 222.296857 
" clip-path="url(#p008e252782)" style="fill: none; stroke: #ffffff; stroke-width: 2; stroke-linecap: square"/>
   </g>
   <g id="line2d_38">
    <path d="M 525.964191 229.788571 
L 540.94762 229.788571 
" clip-path="url(#p008e252782)" style="fill: none; stroke: #ffffff; stroke-width: 2; stroke-linecap: square"/>
   </g>
   <g id="line2d_39">
    <path d="M 591.084477 28.088571 
L 591.084477 85.717143 
" clip-path="url(#p008e252782)" style="fill: none; stroke-dasharray: 3.7,1.6; stroke-dashoffset: 0; stroke: #000000"/>
   </g>
   <g id="line2d_40">
    <path d="M 591.084477 85.717143 
L 591.084477 143.345714 
" clip-path="url(#p008e252782)" style="fill: none; stroke-dasharray: 3.7,1.6; stroke-dashoffset: 0; stroke: #000000"/>
   </g>
   <g id="line2d_41">
    <path d="M 591.084477 143.345714 
L 591.084477 200.974286 
" clip-path="url(#p008e252782)" style="fill: none; stroke-dasharray: 3.7,1.6; stroke-dashoffset: 0; stroke: #000000"/>
   </g>
   <g id="line2d_42">
    <path d="M 591.084477 200.974286 
L 591.084477 258.602857 
" clip-path="url(#p008e252782)" style="fill: none; stroke-dasharray: 3.7,1.6; stroke-dashoffset: 0; stroke: #000000"/>
   </g>
   <g id="line2d_43">
    <path d="M 591.084477 258.602857 
L 591.084477 316.231429 
" clip-path="url(#p008e252782)" style="fill: none; stroke-dasharray: 3.7,1.6; stroke-dashoffset: 0; stroke: #000000"/>
   </g>
   <g id="line2d_44">
    <path d="M 591.084477 316.231429 
L 591.084477 373.86 
" clip-path="url(#p008e252782)" style="fill: none; stroke-dasharray: 3.7,1.6; stroke-dashoffset: 0; stroke: #000000"/>
   </g>
   <g id="line2d_45">
    <path d="M 591.084477 373.86 
L 591.084477 431.488571 
" clip-path="url(#p008e252782)" style="fill: none; stroke-dasharray: 3.7,1.6; stroke-dashoffset: 0; stroke: #000000"/>
   </g>
   <g id="line2d_46">
    <path d="M 648.713048 64.394571 
L 648.713048 49.411143 
" clip-path="url(#p008e252782)" style="fill: none; stroke: #ffffff; stroke-width: 2; stroke-linecap: square"/>
   </g>
   <g id="line2d_47">
    <path d="M 641.221334 56.902857 
L 656.204763 56.902857 
" clip-path="url(#p008e252782)" style="fill: none; stroke: #ffffff; stroke-width: 2; stroke-linecap: square"/>
   </g>
   <g id="line2d_48">
    <path d="M 706.34162 179.651714 
L 706.34162 164.668286 
" clip-path="url(#p008e252782)" style="fill: none; stroke: #ffffff; stroke-width: 2; stroke-linecap: square"/>
   </g>
   <g id="line2d_49">
    <path d="M 698.849905 172.16 
L 713.833334 172.16 
" clip-path="url(#p008e252782)" style="fill: none; stroke: #ffffff; stroke-width: 2; stroke-linecap: square"/>
   </g>
   <g id="line2d_50">
    <path d="M 763.970191 237.280286 
L 763.970191 222.296857 
" clip-path="url(#p008e252782)" style="fill: none; stroke: #ffffff; stroke-width: 2; stroke-linecap: square"/>
   </g>
   <g id="line2d_51">
    <path d="M 756.478477 229.788571 
L 771.461905 229.788571 
" clip-path="url(#p008e252782)" style="fill: none; stroke: #ffffff; stroke-width: 2; stroke-linecap: square"/>
   </g>
   <g id="line2d_52">
    <path d="M 821.598763 28.088571 
L 821.598763 85.717143 
" clip-path="url(#p008e252782)" style="fill: none; stroke-dasharray: 3.7,1.6; stroke-dashoffset: 0; stroke: #000000"/>
   </g>
   <g id="line2d_53">
    <path d="M 821.598763 85.717143 
L 821.598763 143.345714 
" clip-path="url(#p008e252782)" style="fill: none; stroke-dasharray: 3.7,1.6; stroke-dashoffset: 0; stroke: #000000"/>
   </g>
   <g id="line2d_54">
    <path d="M 821.598763 143.345714 
L 821.598763 200.974286 
" clip-path="url(#p008e252782)" style="fill: none; stroke-dasharray: 3.7,1.6; stroke-dashoffset: 0; stroke: #000000"/>
   </g>
   <g id="line2d_55">
    <path d="M 821.598763 200.974286 
L 821.598763 258.602857 
" clip-path="url(#p008e252782)" style="fill: none; stroke-dasharray: 3.7,1.6; stroke-dashoffset: 0; stroke: #000000"/>
   </g>
   <g id="line2d_56">
    <path d="M 821.598763 258.602857 
L 821.598763 316.231429 
" clip-path="url(#p008e252782)" style="fill: none; stroke-dasharray: 3.7,1.6; stroke-dashoffset: 0; stroke: #000000"/>
   </g>
   <g id="line2d_57">
    <path d="M 821.598763 316.231429 
L 821.598763 373.86 
" clip-path="url(#p008e252782)" style="fill: none; stroke-dasharray: 3.7,1.6; stroke-dashoffset: 0; stroke: #000000"/>
   </g>
   <g id="line2d_58">
    <path d="M 821.598763 373.86 
L 821.598763 431.488571 
" clip-path="url(#p008e252782)" style="fill: none; stroke-dasharray: 3.7,1.6; stroke-dashoffset: 0; stroke: #000000"/>
   </g>
   <g id="line2d_59">
    <path d="M 879.227334 122.023143 
L 879.227334 107.039714 
" clip-path="url(#p008e252782)" style="fill: none; stroke: #ffffff; stroke-width: 2; stroke-linecap: square"/>
   </g>
   <g id="line2d_60">
    <path d="M 871.73562 114.531429 
L 886.719048 114.531429 
" clip-path="url(#p008e252782)" style="fill: none; stroke: #ffffff; stroke-width: 2; stroke-linecap: square"/>
   </g>
   <g id="line2d_61">
    <path d="M 936.855905 179.651714 
L 936.855905 164.668286 
" clip-path="url(#p008e252782)" style="fill: none; stroke: #ffffff; stroke-width: 2; stroke-linecap: square"/>
   </g>
   <g id="line2d_62">
    <path d="M 929.364191 172.16 
L 944.34762 172.16 
" clip-path="url(#p008e252782)" style="fill: none; stroke: #ffffff; stroke-width: 2; stroke-linecap: square"/>
   </g>
   <g id="line2d_63">
    <path d="M 994.484477 237.280286 
L 994.484477 222.296857 
" clip-path="url(#p008e252782)" style="fill: none; stroke: #ffffff; stroke-width: 2; stroke-linecap: square"/>
   </g>
   <g id="line2d_64">
    <path d="M 986.992763 229.788571 
L 1001.976191 229.788571 
" clip-path="url(#p008e252782)" style="fill: none; stroke: #ffffff; stroke-width: 2; stroke-linecap: square"/>
   </g>
   <g id="line2d_65">
    <path d="M 1052.113048 28.088571 
L 1052.113048 85.717143 
" clip-path="url(#p008e252782)" style="fill: none; stroke-dasharray: 3.7,1.6; stroke-dashoffset: 0; stroke: #000000"/>
   </g>
   <g id="line2d_66">
    <path d="M 1052.113048 85.717143 
L 1052.113048 143.345714 
" clip-path="url(#p008e252782)" style="fill: none; stroke-dasharray: 3.7,1.6; stroke-dashoffset: 0; stroke: #000000"/>
   </g>
   <g id="line2d_67">
    <path d="M 1052.113048 143.345714 
L 1052.113048 200.974286 
" clip-path="url(#p008e252782)" style="fill: none; stroke-dasharray: 3.7,1.6; stroke-dashoffset: 0; stroke: #000000"/>
   </g>
   <g id="line2d_68">
    <path d="M 1052.113048 200.974286 
L 1052.113048 258.602857 
" clip-path="url(#p008e252782)" style="fill: none; stroke-dasharray: 3.7,1.6; stroke-dashoffset: 0; stroke: #000000"/>
   </g>
   <g id="line2d_69">
    <path d="M 1052.113048 258.602857 
L 1052.113048 316.231429 
" clip-path="url(#p008e252782)" style="fill: none; stroke-dasharray: 3.7,1.6; stroke-dashoffset: 0; stroke: #000000"/>
   </g>
   <g id="line2d_70">
    <path d="M 1052.113048 316.231429 
L 1052.113048 373.86 
" clip-path="url(#p008e252782)" style="fill: none; stroke-dasharray: 3.7,1.6; stroke-dashoffset: 0; stroke: #000000"/>
   </g>
   <g id="line2d_71">
    <path d="M 1052.113048 373.86 
L 1052.113048 431.488571 
" clip-path="url(#p008e252782)" style="fill: none; stroke-dasharray: 3.7,1.6; stroke-dashoffset: 0; stroke: #000000"/>
   </g>
   <g id="text_5">
    <g clip-path="url(#p008e252782)">
     <!-- X -->
     <g transform="translate(1105.28912 175.747188) scale(0.13 -0.13)">
      <defs>
       <path id="DejaVuSans-58" d="M 403 4666 
L 1081 4666 
L 2241 2931 
L 3406 4666 
L 4084 4666 
L 2584 2425 
L 4184 0 
L 3506 0 
L 2194 1984 
L 872 0 
L 191 0 
L 1856 2491 
L 403 4666 
z
" transform="scale(0.015625)"/>
      </defs>
      <use xlink:href="#DejaVuSans-58"/>
     </g>
    </g>
   </g>
   <g id="text_6">
    <g clip-path="url(#p008e252782)">
     <!-- Z -->
     <g transform="translate(1105.28912 291.00433) scale(0.13 -0.13)">
      <defs>
       <path id="DejaVuSans-5a" d="M 359 4666 
L 4025 4666 
L 4025 4184 
L 1075 531 
L 4097 531 
L 4097 0 
L 288 0 
L 288 481 
L 3238 4134 
L 359 4134 
L 359 4666 
z
" transform="scale(0.015625)"/>
      </defs>
      <use xlink:href="#DejaVuSans-5a"/>
     </g>
    </g>
   </g>
   <g id="line2d_72">
    <path d="M 1167.370191 28.088571 
L 1167.370191 85.717143 
" clip-path="url(#p008e252782)" style="fill: none; stroke-dasharray: 3.7,1.6; stroke-dashoffset: 0; stroke: #000000"/>
   </g>
   <g id="line2d_73">
    <path d="M 1167.370191 85.717143 
L 1167.370191 143.345714 
" clip-path="url(#p008e252782)" style="fill: none; stroke-dasharray: 3.7,1.6; stroke-dashoffset: 0; stroke: #000000"/>
   </g>
   <g id="line2d_74">
    <path d="M 1167.370191 143.345714 
L 1167.370191 200.974286 
" clip-path="url(#p008e252782)" style="fill: none; stroke-dasharray: 3.7,1.6; stroke-dashoffset: 0; stroke: #000000"/>
   </g>
   <g id="line2d_75">
    <path d="M 1167.370191 200.974286 
L 1167.370191 258.602857 
" clip-path="url(#p008e252782)" style="fill: none; stroke-dasharray: 3.7,1.6; stroke-dashoffset: 0; stroke: #000000"/>
   </g>
   <g id="line2d_76">
    <path d="M 1167.370191 258.602857 
L 1167.370191 316.231429 
" clip-path="url(#p008e252782)" style="fill: none; stroke-dasharray: 3.7,1.6; stroke-dashoffset: 0; stroke: #000000"/>
   </g>
   <g id="line2d_77">
    <path d="M 1167.370191 316.231429 
L 1167.370191 373.86 
" clip-path="url(#p008e252782)" style="fill: none; stroke-dasharray: 3.7,1.6; stroke-dashoffset: 0; stroke: #000000"/>
   </g>
   <g id="line2d_78">
    <path d="M 1167.370191 373.86 
L 1167.370191 431.488571 
" clip-path="url(#p008e252782)" style="fill: none; stroke-dasharray: 3.7,1.6; stroke-dashoffset: 0; stroke: #000000"/>
   </g>
   <g id="text_7">
    <g clip-path="url(#p008e252782)">
     <!-- X -->
     <g transform="translate(1220.546263 175.747188) scale(0.13 -0.13)">
      <use xlink:href="#DejaVuSans-58"/>
     </g>
    </g>
   </g>
   <g id="text_8">
    <g clip-path="url(#p008e252782)">
     <!-- Z -->
     <g transform="translate(1220.546263 291.00433) scale(0.13 -0.13)">
      <use xlink:href="#DejaVuSans-5a"/>
     </g>
    </g>
   </g>
   <g id="text_9">
    <g clip-path="url(#p008e252782)">
     <!-- ${q}_{0}$ -->
     <g transform="translate(69.373263 61.353834) scale(0.1625 -0.1625)">
      <defs>
       <path id="DejaVuSans-Oblique-71" d="M 2669 525 
Q 2438 222 2123 65 
Q 1809 -91 1428 -91 
Q 897 -91 595 267 
Q 294 625 294 1253 
Q 294 1759 480 2231 
Q 666 2703 1013 3078 
Q 1238 3322 1530 3453 
Q 1822 3584 2144 3584 
Q 2531 3584 2781 3431 
Q 3031 3278 3144 2969 
L 3244 3494 
L 3822 3494 
L 2888 -1319 
L 2309 -1319 
L 2669 525 
z
M 891 1338 
Q 891 875 1084 633 
Q 1278 391 1644 391 
Q 2188 391 2572 911 
Q 2956 1431 2956 2175 
Q 2956 2625 2757 2864 
Q 2559 3103 2188 3103 
Q 1916 3103 1684 2976 
Q 1453 2850 1281 2606 
Q 1100 2350 995 2006 
Q 891 1663 891 1338 
z
" transform="scale(0.015625)"/>
      </defs>
      <use xlink:href="#DejaVuSans-Oblique-71"/>
      <use xlink:href="#DejaVuSans-30" transform="translate(63.476562 -16.40625) scale(0.7)"/>
     </g>
    </g>
   </g>
   <g id="text_10">
    <g clip-path="url(#p008e252782)">
     <!-- ${q}_{1}$ -->
     <g transform="translate(69.373263 118.982405) scale(0.1625 -0.1625)">
      <defs>
       <path id="DejaVuSans-31" d="M 794 531 
L 1825 531 
L 1825 4091 
L 703 3866 
L 703 4441 
L 1819 4666 
L 2450 4666 
L 2450 531 
L 3481 531 
L 3481 0 
L 794 0 
L 794 531 
z
" transform="scale(0.015625)"/>
      </defs>
      <use xlink:href="#DejaVuSans-Oblique-71"/>
      <use xlink:href="#DejaVuSans-31" transform="translate(63.476562 -16.40625) scale(0.7)"/>
     </g>
    </g>
   </g>
   <g id="text_11">
    <g clip-path="url(#p008e252782)">
     <!-- ${q}_{2}$ -->
     <g transform="translate(69.373263 176.610977) scale(0.1625 -0.1625)">
      <defs>
       <path id="DejaVuSans-32" d="M 1228 531 
L 3431 531 
L 3431 0 
L 469 0 
L 469 531 
Q 828 903 1448 1529 
Q 2069 2156 2228 2338 
Q 2531 2678 2651 2914 
Q 2772 3150 2772 3378 
Q 2772 3750 2511 3984 
Q 2250 4219 1831 4219 
Q 1534 4219 1204 4116 
Q 875 4013 500 3803 
L 500 4441 
Q 881 4594 1212 4672 
Q 1544 4750 1819 4750 
Q 2544 4750 2975 4387 
Q 3406 4025 3406 3419 
Q 3406 3131 3298 2873 
Q 3191 2616 2906 2266 
Q 2828 2175 2409 1742 
Q 1991 1309 1228 531 
z
" transform="scale(0.015625)"/>
      </defs>
      <use xlink:href="#DejaVuSans-Oblique-71"/>
      <use xlink:href="#DejaVuSans-32" transform="translate(63.476562 -16.40625) scale(0.7)"/>
     </g>
    </g>
   </g>
   <g id="text_12">
    <g clip-path="url(#p008e252782)">
     <!-- ${q}_{3}$ -->
     <g transform="translate(69.373263 234.239548) scale(0.1625 -0.1625)">
      <defs>
       <path id="DejaVuSans-33" d="M 2597 2516 
Q 3050 2419 3304 2112 
Q 3559 1806 3559 1356 
Q 3559 666 3084 287 
Q 2609 -91 1734 -91 
Q 1441 -91 1130 -33 
Q 819 25 488 141 
L 488 750 
Q 750 597 1062 519 
Q 1375 441 1716 441 
Q 2309 441 2620 675 
Q 2931 909 2931 1356 
Q 2931 1769 2642 2001 
Q 2353 2234 1838 2234 
L 1294 2234 
L 1294 2753 
L 1863 2753 
Q 2328 2753 2575 2939 
Q 2822 3125 2822 3475 
Q 2822 3834 2567 4026 
Q 2313 4219 1838 4219 
Q 1578 4219 1281 4162 
Q 984 4106 628 3988 
L 628 4550 
Q 988 4650 1302 4700 
Q 1616 4750 1894 4750 
Q 2613 4750 3031 4423 
Q 3450 4097 3450 3541 
Q 3450 3153 3228 2886 
Q 3006 2619 2597 2516 
z
" transform="scale(0.015625)"/>
      </defs>
      <use xlink:href="#DejaVuSans-Oblique-71"/>
      <use xlink:href="#DejaVuSans-33" transform="translate(63.476562 -16.40625) scale(0.7)"/>
     </g>
    </g>
   </g>
   <g id="text_13">
    <g clip-path="url(#p008e252782)">
     <!-- ${q}_{4}$ -->
     <g transform="translate(69.373263 291.868119) scale(0.1625 -0.1625)">
      <defs>
       <path id="DejaVuSans-34" d="M 2419 4116 
L 825 1625 
L 2419 1625 
L 2419 4116 
z
M 2253 4666 
L 3047 4666 
L 3047 1625 
L 3713 1625 
L 3713 1100 
L 3047 1100 
L 3047 0 
L 2419 0 
L 2419 1100 
L 313 1100 
L 313 1709 
L 2253 4666 
z
" transform="scale(0.015625)"/>
      </defs>
      <use xlink:href="#DejaVuSans-Oblique-71"/>
      <use xlink:href="#DejaVuSans-34" transform="translate(63.476562 -16.40625) scale(0.7)"/>
     </g>
    </g>
   </g>
   <g id="text_14">
    <g clip-path="url(#p008e252782)">
     <!-- ${q}_{5}$ -->
     <g transform="translate(69.373263 349.496691) scale(0.1625 -0.1625)">
      <defs>
       <path id="DejaVuSans-35" d="M 691 4666 
L 3169 4666 
L 3169 4134 
L 1269 4134 
L 1269 2991 
Q 1406 3038 1543 3061 
Q 1681 3084 1819 3084 
Q 2600 3084 3056 2656 
Q 3513 2228 3513 1497 
Q 3513 744 3044 326 
Q 2575 -91 1722 -91 
Q 1428 -91 1123 -41 
Q 819 9 494 109 
L 494 744 
Q 775 591 1075 516 
Q 1375 441 1709 441 
Q 2250 441 2565 725 
Q 2881 1009 2881 1497 
Q 2881 1984 2565 2268 
Q 2250 2553 1709 2553 
Q 1456 2553 1204 2497 
Q 953 2441 691 2322 
L 691 4666 
z
" transform="scale(0.015625)"/>
      </defs>
      <use xlink:href="#DejaVuSans-Oblique-71"/>
      <use xlink:href="#DejaVuSans-35" transform="translate(63.476562 -16.40625) scale(0.7)"/>
     </g>
    </g>
   </g>
   <g id="text_15">
    <g clip-path="url(#p008e252782)">
     <!-- ${q}_{6}$ -->
     <g transform="translate(69.373263 407.125262) scale(0.1625 -0.1625)">
      <defs>
       <path id="DejaVuSans-36" d="M 2113 2584 
Q 1688 2584 1439 2293 
Q 1191 2003 1191 1497 
Q 1191 994 1439 701 
Q 1688 409 2113 409 
Q 2538 409 2786 701 
Q 3034 994 3034 1497 
Q 3034 2003 2786 2293 
Q 2538 2584 2113 2584 
z
M 3366 4563 
L 3366 3988 
Q 3128 4100 2886 4159 
Q 2644 4219 2406 4219 
Q 1781 4219 1451 3797 
Q 1122 3375 1075 2522 
Q 1259 2794 1537 2939 
Q 1816 3084 2150 3084 
Q 2853 3084 3261 2657 
Q 3669 2231 3669 1497 
Q 3669 778 3244 343 
Q 2819 -91 2113 -91 
Q 1303 -91 875 529 
Q 447 1150 447 2328 
Q 447 3434 972 4092 
Q 1497 4750 2381 4750 
Q 2619 4750 2861 4703 
Q 3103 4656 3366 4563 
z
" transform="scale(0.015625)"/>
      </defs>
      <use xlink:href="#DejaVuSans-Oblique-71"/>
      <use xlink:href="#DejaVuSans-36" transform="translate(63.476562 -16.40625) scale(0.7)"/>
     </g>
    </g>
   </g>
   <g id="text_16">
    <g clip-path="url(#p008e252782)">
     <!-- 7 -->
     <g transform="translate(104.699334 452.377125) scale(0.104 -0.104)">
      <defs>
       <path id="DejaVuSans-37" d="M 525 4666 
L 3525 4666 
L 3525 4397 
L 1831 0 
L 1172 0 
L 2766 4134 
L 525 4134 
L 525 4666 
z
" transform="scale(0.015625)"/>
      </defs>
      <use xlink:href="#DejaVuSans-37"/>
     </g>
    </g>
   </g>
   <g id="text_17">
    <g clip-path="url(#p008e252782)">
     <!-- c -->
     <g transform="translate(78.475802 464.786842) scale(0.1625 -0.1625)">
      <use xlink:href="#DejaVuSans-63"/>
     </g>
    </g>
   </g>
  </g>
 </g>
 <defs>
  <clipPath id="p008e252782">
   <rect x="27.563779" y="10.8" width="1235.46984" height="484.08"/>
  </clipPath>
 </defs>
</svg>
