<?xml version="1.0" encoding="utf-8" standalone="no"?>
<!DOCTYPE svg PUBLIC "-//W3C//DTD SVG 1.1//EN"
  "http://www.w3.org/Graphics/SVG/1.1/DTD/svg11.dtd">
<svg xmlns:xlink="http://www.w3.org/1999/xlink" width="1230.397399pt" height="505.68pt" viewBox="0 0 1230.397399 505.68" xmlns="http://www.w3.org/2000/svg" version="1.1">
 <metadata>
  <rdf:RDF xmlns:dc="http://purl.org/dc/elements/1.1/" xmlns:cc="http://creativecommons.org/ns#" xmlns:rdf="http://www.w3.org/1999/02/22-rdf-syntax-ns#">
   <cc:Work>
    <dc:type rdf:resource="http://purl.org/dc/dcmitype/StillImage"/>
    <dc:date>2024-05-08T14:38:43.448484</dc:date>
    <dc:format>image/svg+xml</dc:format>
    <dc:creator>
     <cc:Agent>
      <dc:title>Matplotlib v3.8.4, https://matplotlib.org/</dc:title>
     </cc:Agent>
    </dc:creator>
   </cc:Work>
  </rdf:RDF>
 </metadata>
 <defs>
  <style type="text/css">*{stroke-linejoin: round; stroke-linecap: butt}</style>
 </defs>
 <g id="figure_1">
  <g id="patch_1">
   <path d="M 0 505.68 
L 1230.397399 505.68 
L 1230.397399 0 
L 0 0 
z
" style="fill: #ffffff"/>
  </g>
  <g id="axes_1">
   <g id="line2d_1">
    <path d="M 97.650763 56.902857 
L 1198.356477 56.902857 
" clip-path="url(#p52c5d9be43)" style="fill: none; stroke: #000000; stroke-width: 2; stroke-linecap: square"/>
   </g>
   <g id="line2d_2">
    <path d="M 97.650763 114.531429 
L 1198.356477 114.531429 
" clip-path="url(#p52c5d9be43)" style="fill: none; stroke: #000000; stroke-width: 2; stroke-linecap: square"/>
   </g>
   <g id="line2d_3">
    <path d="M 97.650763 172.16 
L 1198.356477 172.16 
" clip-path="url(#p52c5d9be43)" style="fill: none; stroke: #000000; stroke-width: 2; stroke-linecap: square"/>
   </g>
   <g id="line2d_4">
    <path d="M 97.650763 229.788571 
L 1198.356477 229.788571 
" clip-path="url(#p52c5d9be43)" style="fill: none; stroke: #000000; stroke-width: 2; stroke-linecap: square"/>
   </g>
   <g id="line2d_5">
    <path d="M 97.650763 287.417143 
L 1198.356477 287.417143 
" clip-path="url(#p52c5d9be43)" style="fill: none; stroke: #000000; stroke-width: 2; stroke-linecap: square"/>
   </g>
   <g id="line2d_6">
    <path d="M 97.650763 345.045714 
L 1198.356477 345.045714 
" clip-path="url(#p52c5d9be43)" style="fill: none; stroke: #000000; stroke-width: 2; stroke-linecap: square"/>
   </g>
   <g id="line2d_7">
    <path d="M 97.650763 402.674286 
L 1198.356477 402.674286 
" clip-path="url(#p52c5d9be43)" style="fill: none; stroke: #000000; stroke-width: 2; stroke-linecap: square"/>
   </g>
   <g id="line2d_8">
    <path d="M 97.650763 458.429929 
L 1198.356477 458.429929 
" clip-path="url(#p52c5d9be43)" style="fill: none; stroke: #778899; stroke-width: 2; stroke-linecap: square"/>
   </g>
   <g id="line2d_9">
    <path d="M 97.650763 462.175786 
L 1198.356477 462.175786 
" clip-path="url(#p52c5d9be43)" style="fill: none; stroke: #778899; stroke-width: 2; stroke-linecap: square"/>
   </g>
   <g id="line2d_10">
    <path d="M 244.027334 114.531429 
L 244.027334 56.902857 
" clip-path="url(#p52c5d9be43)" style="fill: none; stroke: #6fa4ff; stroke-width: 2; stroke-linecap: square"/>
   </g>
   <g id="line2d_11">
    <path d="M 301.655905 172.16 
L 301.655905 56.902857 
" clip-path="url(#p52c5d9be43)" style="fill: none; stroke: #6fa4ff; stroke-width: 2; stroke-linecap: square"/>
   </g>
   <g id="patch_2">
    <path d="M 348.046905 85.717143 
L 370.522048 85.717143 
L 370.522048 28.088571 
L 348.046905 28.088571 
z
" clip-path="url(#p52c5d9be43)" style="fill: #bdbdbd; opacity: 0.6"/>
   </g>
   <g id="patch_3">
    <path d="M 348.046905 143.345714 
L 370.522048 143.345714 
L 370.522048 85.717143 
L 348.046905 85.717143 
z
" clip-path="url(#p52c5d9be43)" style="fill: #bdbdbd; opacity: 0.6"/>
   </g>
   <g id="patch_4">
    <path d="M 348.046905 200.974286 
L 370.522048 200.974286 
L 370.522048 143.345714 
L 348.046905 143.345714 
z
" clip-path="url(#p52c5d9be43)" style="fill: #bdbdbd; opacity: 0.6"/>
   </g>
   <g id="patch_5">
    <path d="M 348.046905 258.602857 
L 370.522048 258.602857 
L 370.522048 200.974286 
L 348.046905 200.974286 
z
" clip-path="url(#p52c5d9be43)" style="fill: #bdbdbd; opacity: 0.6"/>
   </g>
   <g id="patch_6">
    <path d="M 348.046905 316.231429 
L 370.522048 316.231429 
L 370.522048 258.602857 
L 348.046905 258.602857 
z
" clip-path="url(#p52c5d9be43)" style="fill: #bdbdbd; opacity: 0.6"/>
   </g>
   <g id="patch_7">
    <path d="M 348.046905 373.86 
L 370.522048 373.86 
L 370.522048 316.231429 
L 348.046905 316.231429 
z
" clip-path="url(#p52c5d9be43)" style="fill: #bdbdbd; opacity: 0.6"/>
   </g>
   <g id="patch_8">
    <path d="M 348.046905 431.488571 
L 370.522048 431.488571 
L 370.522048 373.86 
L 348.046905 373.86 
z
" clip-path="url(#p52c5d9be43)" style="fill: #bdbdbd; opacity: 0.6"/>
   </g>
   <g id="line2d_12">
    <path d="M 416.913048 402.674286 
L 416.913048 56.902857 
" clip-path="url(#p52c5d9be43)" style="fill: none; stroke: #6fa4ff; stroke-width: 2; stroke-linecap: square"/>
   </g>
   <g id="line2d_13">
    <path d="M 474.54162 402.674286 
L 474.54162 114.531429 
" clip-path="url(#p52c5d9be43)" style="fill: none; stroke: #6fa4ff; stroke-width: 2; stroke-linecap: square"/>
   </g>
   <g id="line2d_14">
    <path d="M 532.170191 402.674286 
L 532.170191 229.788571 
" clip-path="url(#p52c5d9be43)" style="fill: none; stroke: #6fa4ff; stroke-width: 2; stroke-linecap: square"/>
   </g>
   <g id="patch_9">
    <path d="M 578.561191 85.717143 
L 601.036334 85.717143 
L 601.036334 28.088571 
L 578.561191 28.088571 
z
" clip-path="url(#p52c5d9be43)" style="fill: #bdbdbd; opacity: 0.6"/>
   </g>
   <g id="patch_10">
    <path d="M 578.561191 143.345714 
L 601.036334 143.345714 
L 601.036334 85.717143 
L 578.561191 85.717143 
z
" clip-path="url(#p52c5d9be43)" style="fill: #bdbdbd; opacity: 0.6"/>
   </g>
   <g id="patch_11">
    <path d="M 578.561191 200.974286 
L 601.036334 200.974286 
L 601.036334 143.345714 
L 578.561191 143.345714 
z
" clip-path="url(#p52c5d9be43)" style="fill: #bdbdbd; opacity: 0.6"/>
   </g>
   <g id="patch_12">
    <path d="M 578.561191 258.602857 
L 601.036334 258.602857 
L 601.036334 200.974286 
L 578.561191 200.974286 
z
" clip-path="url(#p52c5d9be43)" style="fill: #bdbdbd; opacity: 0.6"/>
   </g>
   <g id="patch_13">
    <path d="M 578.561191 316.231429 
L 601.036334 316.231429 
L 601.036334 258.602857 
L 578.561191 258.602857 
z
" clip-path="url(#p52c5d9be43)" style="fill: #bdbdbd; opacity: 0.6"/>
   </g>
   <g id="patch_14">
    <path d="M 578.561191 373.86 
L 601.036334 373.86 
L 601.036334 316.231429 
L 578.561191 316.231429 
z
" clip-path="url(#p52c5d9be43)" style="fill: #bdbdbd; opacity: 0.6"/>
   </g>
   <g id="patch_15">
    <path d="M 578.561191 431.488571 
L 601.036334 431.488571 
L 601.036334 373.86 
L 578.561191 373.86 
z
" clip-path="url(#p52c5d9be43)" style="fill: #bdbdbd; opacity: 0.6"/>
   </g>
   <g id="line2d_15">
    <path d="M 647.427334 345.045714 
L 647.427334 56.902857 
" clip-path="url(#p52c5d9be43)" style="fill: none; stroke: #6fa4ff; stroke-width: 2; stroke-linecap: square"/>
   </g>
   <g id="line2d_16">
    <path d="M 705.055905 345.045714 
L 705.055905 172.16 
" clip-path="url(#p52c5d9be43)" style="fill: none; stroke: #6fa4ff; stroke-width: 2; stroke-linecap: square"/>
   </g>
   <g id="line2d_17">
    <path d="M 762.684477 345.045714 
L 762.684477 229.788571 
" clip-path="url(#p52c5d9be43)" style="fill: none; stroke: #6fa4ff; stroke-width: 2; stroke-linecap: square"/>
   </g>
   <g id="patch_16">
    <path d="M 809.075477 85.717143 
L 831.55062 85.717143 
L 831.55062 28.088571 
L 809.075477 28.088571 
z
" clip-path="url(#p52c5d9be43)" style="fill: #bdbdbd; opacity: 0.6"/>
   </g>
   <g id="patch_17">
    <path d="M 809.075477 143.345714 
L 831.55062 143.345714 
L 831.55062 85.717143 
L 809.075477 85.717143 
z
" clip-path="url(#p52c5d9be43)" style="fill: #bdbdbd; opacity: 0.6"/>
   </g>
   <g id="patch_18">
    <path d="M 809.075477 200.974286 
L 831.55062 200.974286 
L 831.55062 143.345714 
L 809.075477 143.345714 
z
" clip-path="url(#p52c5d9be43)" style="fill: #bdbdbd; opacity: 0.6"/>
   </g>
   <g id="patch_19">
    <path d="M 809.075477 258.602857 
L 831.55062 258.602857 
L 831.55062 200.974286 
L 809.075477 200.974286 
z
" clip-path="url(#p52c5d9be43)" style="fill: #bdbdbd; opacity: 0.6"/>
   </g>
   <g id="patch_20">
    <path d="M 809.075477 316.231429 
L 831.55062 316.231429 
L 831.55062 258.602857 
L 809.075477 258.602857 
z
" clip-path="url(#p52c5d9be43)" style="fill: #bdbdbd; opacity: 0.6"/>
   </g>
   <g id="patch_21">
    <path d="M 809.075477 373.86 
L 831.55062 373.86 
L 831.55062 316.231429 
L 809.075477 316.231429 
z
" clip-path="url(#p52c5d9be43)" style="fill: #bdbdbd; opacity: 0.6"/>
   </g>
   <g id="patch_22">
    <path d="M 809.075477 431.488571 
L 831.55062 431.488571 
L 831.55062 373.86 
L 809.075477 373.86 
z
" clip-path="url(#p52c5d9be43)" style="fill: #bdbdbd; opacity: 0.6"/>
   </g>
   <g id="line2d_18">
    <path d="M 877.94162 287.417143 
L 877.94162 114.531429 
" clip-path="url(#p52c5d9be43)" style="fill: none; stroke: #6fa4ff; stroke-width: 2; stroke-linecap: square"/>
   </g>
   <g id="line2d_19">
    <path d="M 935.570191 287.417143 
L 935.570191 172.16 
" clip-path="url(#p52c5d9be43)" style="fill: none; stroke: #6fa4ff; stroke-width: 2; stroke-linecap: square"/>
   </g>
   <g id="line2d_20">
    <path d="M 993.198763 287.417143 
L 993.198763 229.788571 
" clip-path="url(#p52c5d9be43)" style="fill: none; stroke: #6fa4ff; stroke-width: 2; stroke-linecap: square"/>
   </g>
   <g id="patch_23">
    <path d="M 1039.589763 85.717143 
L 1062.064905 85.717143 
L 1062.064905 28.088571 
L 1039.589763 28.088571 
z
" clip-path="url(#p52c5d9be43)" style="fill: #bdbdbd; opacity: 0.6"/>
   </g>
   <g id="patch_24">
    <path d="M 1039.589763 143.345714 
L 1062.064905 143.345714 
L 1062.064905 85.717143 
L 1039.589763 85.717143 
z
" clip-path="url(#p52c5d9be43)" style="fill: #bdbdbd; opacity: 0.6"/>
   </g>
   <g id="patch_25">
    <path d="M 1039.589763 200.974286 
L 1062.064905 200.974286 
L 1062.064905 143.345714 
L 1039.589763 143.345714 
z
" clip-path="url(#p52c5d9be43)" style="fill: #bdbdbd; opacity: 0.6"/>
   </g>
   <g id="patch_26">
    <path d="M 1039.589763 258.602857 
L 1062.064905 258.602857 
L 1062.064905 200.974286 
L 1039.589763 200.974286 
z
" clip-path="url(#p52c5d9be43)" style="fill: #bdbdbd; opacity: 0.6"/>
   </g>
   <g id="patch_27">
    <path d="M 1039.589763 316.231429 
L 1062.064905 316.231429 
L 1062.064905 258.602857 
L 1039.589763 258.602857 
z
" clip-path="url(#p52c5d9be43)" style="fill: #bdbdbd; opacity: 0.6"/>
   </g>
   <g id="patch_28">
    <path d="M 1039.589763 373.86 
L 1062.064905 373.86 
L 1062.064905 316.231429 
L 1039.589763 316.231429 
z
" clip-path="url(#p52c5d9be43)" style="fill: #bdbdbd; opacity: 0.6"/>
   </g>
   <g id="patch_29">
    <path d="M 1039.589763 431.488571 
L 1062.064905 431.488571 
L 1062.064905 373.86 
L 1039.589763 373.86 
z
" clip-path="url(#p52c5d9be43)" style="fill: #bdbdbd; opacity: 0.6"/>
   </g>
   <g id="patch_30">
    <path d="M 1154.846905 85.717143 
L 1177.322048 85.717143 
L 1177.322048 28.088571 
L 1154.846905 28.088571 
z
" clip-path="url(#p52c5d9be43)" style="fill: #bdbdbd; opacity: 0.6"/>
   </g>
   <g id="patch_31">
    <path d="M 1154.846905 143.345714 
L 1177.322048 143.345714 
L 1177.322048 85.717143 
L 1154.846905 85.717143 
z
" clip-path="url(#p52c5d9be43)" style="fill: #bdbdbd; opacity: 0.6"/>
   </g>
   <g id="patch_32">
    <path d="M 1154.846905 200.974286 
L 1177.322048 200.974286 
L 1177.322048 143.345714 
L 1154.846905 143.345714 
z
" clip-path="url(#p52c5d9be43)" style="fill: #bdbdbd; opacity: 0.6"/>
   </g>
   <g id="patch_33">
    <path d="M 1154.846905 258.602857 
L 1177.322048 258.602857 
L 1177.322048 200.974286 
L 1154.846905 200.974286 
z
" clip-path="url(#p52c5d9be43)" style="fill: #bdbdbd; opacity: 0.6"/>
   </g>
   <g id="patch_34">
    <path d="M 1154.846905 316.231429 
L 1177.322048 316.231429 
L 1177.322048 258.602857 
L 1154.846905 258.602857 
z
" clip-path="url(#p52c5d9be43)" style="fill: #bdbdbd; opacity: 0.6"/>
   </g>
   <g id="patch_35">
    <path d="M 1154.846905 373.86 
L 1177.322048 373.86 
L 1177.322048 316.231429 
L 1154.846905 316.231429 
z
" clip-path="url(#p52c5d9be43)" style="fill: #bdbdbd; opacity: 0.6"/>
   </g>
   <g id="patch_36">
    <path d="M 1154.846905 431.488571 
L 1177.322048 431.488571 
L 1177.322048 373.86 
L 1154.846905 373.86 
z
" clip-path="url(#p52c5d9be43)" style="fill: #bdbdbd; opacity: 0.6"/>
   </g>
   <g id="line2d_21">
    <path d="M 109.176477 466.065714 
L 114.939334 454.54 
" clip-path="url(#p52c5d9be43)" style="fill: none; stroke: #778899; stroke-width: 1.5; stroke-linecap: square"/>
   </g>
   <g id="patch_37">
    <path d="M 122.226467 75.632143 
L 192.942487 75.632143 
L 192.942487 38.173571 
L 122.226467 38.173571 
z
" clip-path="url(#p52c5d9be43)" style="fill: #bb8bff; stroke: #bb8bff; stroke-width: 1.5; stroke-linejoin: miter"/>
   </g>
   <g id="patch_38">
    <path d="M 138.855191 306.146429 
L 176.313763 306.146429 
L 176.313763 268.687857 
L 138.855191 268.687857 
z
" clip-path="url(#p52c5d9be43)" style="fill: #6fa4ff; stroke: #6fa4ff; stroke-width: 1.5; stroke-linejoin: miter"/>
   </g>
   <g id="patch_39">
    <path d="M 138.855191 363.775 
L 176.313763 363.775 
L 176.313763 326.316429 
L 138.855191 326.316429 
z
" clip-path="url(#p52c5d9be43)" style="fill: #6fa4ff; stroke: #6fa4ff; stroke-width: 1.5; stroke-linejoin: miter"/>
   </g>
   <g id="patch_40">
    <path d="M 138.855191 421.403571 
L 176.313763 421.403571 
L 176.313763 383.945 
L 138.855191 383.945 
z
" clip-path="url(#p52c5d9be43)" style="fill: #6fa4ff; stroke: #6fa4ff; stroke-width: 1.5; stroke-linejoin: miter"/>
   </g>
   <g id="patch_41">
    <path d="M 244.027334 62.521643 
C 245.517453 62.521643 246.946742 61.929612 248.000415 60.875939 
C 249.054089 59.822265 249.64612 58.392977 249.64612 56.902857 
C 249.64612 55.412738 249.054089 53.983449 248.000415 52.929776 
C 246.946742 51.876102 245.517453 51.284071 244.027334 51.284071 
C 242.537215 51.284071 241.107926 51.876102 240.054253 52.929776 
C 239.000579 53.983449 238.408548 55.412738 238.408548 56.902857 
C 238.408548 58.392977 239.000579 59.822265 240.054253 60.875939 
C 241.107926 61.929612 242.537215 62.521643 244.027334 62.521643 
z
" clip-path="url(#p52c5d9be43)" style="fill: #6fa4ff; stroke: #6fa4ff; stroke-width: 1.5; stroke-linejoin: miter"/>
   </g>
   <g id="patch_42">
    <path d="M 244.027334 127.641929 
C 247.504279 127.641929 250.839286 126.260524 253.297857 123.801952 
C 255.756429 121.34338 257.137834 118.008374 257.137834 114.531429 
C 257.137834 111.054483 255.756429 107.719477 253.297857 105.260905 
C 250.839286 102.802334 247.504279 101.420929 244.027334 101.420929 
C 240.550389 101.420929 237.215382 102.802334 234.756811 105.260905 
C 232.298239 107.719477 230.916834 111.054483 230.916834 114.531429 
C 230.916834 118.008374 232.298239 121.34338 234.756811 123.801952 
C 237.215382 126.260524 240.550389 127.641929 244.027334 127.641929 
z
" clip-path="url(#p52c5d9be43)" style="fill: #6fa4ff; stroke: #6fa4ff; stroke-width: 2; stroke-linejoin: miter"/>
   </g>
   <g id="patch_43">
    <path d="M 301.655905 62.521643 
C 303.146025 62.521643 304.575313 61.929612 305.628987 60.875939 
C 306.68266 59.822265 307.274691 58.392977 307.274691 56.902857 
C 307.274691 55.412738 306.68266 53.983449 305.628987 52.929776 
C 304.575313 51.876102 303.146025 51.284071 301.655905 51.284071 
C 300.165786 51.284071 298.736497 51.876102 297.682824 52.929776 
C 296.62915 53.983449 296.03712 55.412738 296.03712 56.902857 
C 296.03712 58.392977 296.62915 59.822265 297.682824 60.875939 
C 298.736497 61.929612 300.165786 62.521643 301.655905 62.521643 
z
" clip-path="url(#p52c5d9be43)" style="fill: #6fa4ff; stroke: #6fa4ff; stroke-width: 1.5; stroke-linejoin: miter"/>
   </g>
   <g id="patch_44">
    <path d="M 301.655905 185.2705 
C 305.132851 185.2705 308.467857 183.889095 310.926429 181.430523 
C 313.385 178.971952 314.766405 175.636945 314.766405 172.16 
C 314.766405 168.683055 313.385 165.348048 310.926429 162.889477 
C 308.467857 160.430905 305.132851 159.0495 301.655905 159.0495 
C 298.17896 159.0495 294.843954 160.430905 292.385382 162.889477 
C 289.92681 165.348048 288.545405 168.683055 288.545405 172.16 
C 288.545405 175.636945 289.92681 178.971952 292.385382 181.430523 
C 294.843954 183.889095 298.17896 185.2705 301.655905 185.2705 
z
" clip-path="url(#p52c5d9be43)" style="fill: #6fa4ff; stroke: #6fa4ff; stroke-width: 2; stroke-linejoin: miter"/>
   </g>
   <g id="patch_45">
    <path d="M 416.913048 408.293071 
C 418.403168 408.293071 419.832456 407.701041 420.88613 406.647367 
C 421.939803 405.593694 422.531834 404.164405 422.531834 402.674286 
C 422.531834 401.184166 421.939803 399.754878 420.88613 398.701204 
C 419.832456 397.647531 418.403168 397.0555 416.913048 397.0555 
C 415.422929 397.0555 413.99364 397.647531 412.939967 398.701204 
C 411.886293 399.754878 411.294263 401.184166 411.294263 402.674286 
C 411.294263 404.164405 411.886293 405.593694 412.939967 406.647367 
C 413.99364 407.701041 415.422929 408.293071 416.913048 408.293071 
z
" clip-path="url(#p52c5d9be43)" style="fill: #6fa4ff; stroke: #6fa4ff; stroke-width: 1.5; stroke-linejoin: miter"/>
   </g>
   <g id="patch_46">
    <path d="M 416.913048 70.013357 
C 420.389994 70.013357 423.725 68.631952 426.183572 66.173381 
C 428.642143 63.714809 430.023548 60.379802 430.023548 56.902857 
C 430.023548 53.425912 428.642143 50.090905 426.183572 47.632334 
C 423.725 45.173762 420.389994 43.792357 416.913048 43.792357 
C 413.436103 43.792357 410.101096 45.173762 407.642525 47.632334 
C 405.183953 50.090905 403.802548 53.425912 403.802548 56.902857 
C 403.802548 60.379802 405.183953 63.714809 407.642525 66.173381 
C 410.101096 68.631952 413.436103 70.013357 416.913048 70.013357 
z
" clip-path="url(#p52c5d9be43)" style="fill: #6fa4ff; stroke: #6fa4ff; stroke-width: 2; stroke-linejoin: miter"/>
   </g>
   <g id="patch_47">
    <path d="M 474.54162 408.293071 
C 476.031739 408.293071 477.461028 407.701041 478.514701 406.647367 
C 479.568375 405.593694 480.160405 404.164405 480.160405 402.674286 
C 480.160405 401.184166 479.568375 399.754878 478.514701 398.701204 
C 477.461028 397.647531 476.031739 397.0555 474.54162 397.0555 
C 473.0515 397.0555 471.622212 397.647531 470.568538 398.701204 
C 469.514865 399.754878 468.922834 401.184166 468.922834 402.674286 
C 468.922834 404.164405 469.514865 405.593694 470.568538 406.647367 
C 471.622212 407.701041 473.0515 408.293071 474.54162 408.293071 
z
" clip-path="url(#p52c5d9be43)" style="fill: #6fa4ff; stroke: #6fa4ff; stroke-width: 1.5; stroke-linejoin: miter"/>
   </g>
   <g id="patch_48">
    <path d="M 474.54162 127.641929 
C 478.018565 127.641929 481.353572 126.260524 483.812143 123.801952 
C 486.270715 121.34338 487.65212 118.008374 487.65212 114.531429 
C 487.65212 111.054483 486.270715 107.719477 483.812143 105.260905 
C 481.353572 102.802334 478.018565 101.420929 474.54162 101.420929 
C 471.064674 101.420929 467.729668 102.802334 465.271096 105.260905 
C 462.812525 107.719477 461.43112 111.054483 461.43112 114.531429 
C 461.43112 118.008374 462.812525 121.34338 465.271096 123.801952 
C 467.729668 126.260524 471.064674 127.641929 474.54162 127.641929 
z
" clip-path="url(#p52c5d9be43)" style="fill: #6fa4ff; stroke: #6fa4ff; stroke-width: 2; stroke-linejoin: miter"/>
   </g>
   <g id="patch_49">
    <path d="M 532.170191 408.293071 
C 533.660311 408.293071 535.089599 407.701041 536.143273 406.647367 
C 537.196946 405.593694 537.788977 404.164405 537.788977 402.674286 
C 537.788977 401.184166 537.196946 399.754878 536.143273 398.701204 
C 535.089599 397.647531 533.660311 397.0555 532.170191 397.0555 
C 530.680072 397.0555 529.250783 397.647531 528.19711 398.701204 
C 527.143436 399.754878 526.551405 401.184166 526.551405 402.674286 
C 526.551405 404.164405 527.143436 405.593694 528.19711 406.647367 
C 529.250783 407.701041 530.680072 408.293071 532.170191 408.293071 
z
" clip-path="url(#p52c5d9be43)" style="fill: #6fa4ff; stroke: #6fa4ff; stroke-width: 1.5; stroke-linejoin: miter"/>
   </g>
   <g id="patch_50">
    <path d="M 532.170191 242.899071 
C 535.647136 242.899071 538.982143 241.517666 541.440715 239.059095 
C 543.899286 236.600523 545.280691 233.265517 545.280691 229.788571 
C 545.280691 226.311626 543.899286 222.97662 541.440715 220.518048 
C 538.982143 218.059476 535.647136 216.678071 532.170191 216.678071 
C 528.693246 216.678071 525.358239 218.059476 522.899668 220.518048 
C 520.441096 222.97662 519.059691 226.311626 519.059691 229.788571 
C 519.059691 233.265517 520.441096 236.600523 522.899668 239.059095 
C 525.358239 241.517666 528.693246 242.899071 532.170191 242.899071 
z
" clip-path="url(#p52c5d9be43)" style="fill: #6fa4ff; stroke: #6fa4ff; stroke-width: 2; stroke-linejoin: miter"/>
   </g>
   <g id="patch_51">
    <path d="M 647.427334 350.6645 
C 648.917453 350.6645 650.346742 350.072469 651.400415 349.018796 
C 652.454089 347.965122 653.04612 346.535834 653.04612 345.045714 
C 653.04612 343.555595 652.454089 342.126306 651.400415 341.072633 
C 650.346742 340.018959 648.917453 339.426929 647.427334 339.426929 
C 645.937215 339.426929 644.507926 340.018959 643.454253 341.072633 
C 642.400579 342.126306 641.808548 343.555595 641.808548 345.045714 
C 641.808548 346.535834 642.400579 347.965122 643.454253 349.018796 
C 644.507926 350.072469 645.937215 350.6645 647.427334 350.6645 
z
" clip-path="url(#p52c5d9be43)" style="fill: #6fa4ff; stroke: #6fa4ff; stroke-width: 1.5; stroke-linejoin: miter"/>
   </g>
   <g id="patch_52">
    <path d="M 647.427334 70.013357 
C 650.904279 70.013357 654.239286 68.631952 656.697857 66.173381 
C 659.156429 63.714809 660.537834 60.379802 660.537834 56.902857 
C 660.537834 53.425912 659.156429 50.090905 656.697857 47.632334 
C 654.239286 45.173762 650.904279 43.792357 647.427334 43.792357 
C 643.950389 43.792357 640.615382 45.173762 638.156811 47.632334 
C 635.698239 50.090905 634.316834 53.425912 634.316834 56.902857 
C 634.316834 60.379802 635.698239 63.714809 638.156811 66.173381 
C 640.615382 68.631952 643.950389 70.013357 647.427334 70.013357 
z
" clip-path="url(#p52c5d9be43)" style="fill: #6fa4ff; stroke: #6fa4ff; stroke-width: 2; stroke-linejoin: miter"/>
   </g>
   <g id="patch_53">
    <path d="M 705.055905 350.6645 
C 706.546025 350.6645 707.975313 350.072469 709.028987 349.018796 
C 710.08266 347.965122 710.674691 346.535834 710.674691 345.045714 
C 710.674691 343.555595 710.08266 342.126306 709.028987 341.072633 
C 707.975313 340.018959 706.546025 339.426929 705.055905 339.426929 
C 703.565786 339.426929 702.136497 340.018959 701.082824 341.072633 
C 700.02915 342.126306 699.43712 343.555595 699.43712 345.045714 
C 699.43712 346.535834 700.02915 347.965122 701.082824 349.018796 
C 702.136497 350.072469 703.565786 350.6645 705.055905 350.6645 
z
" clip-path="url(#p52c5d9be43)" style="fill: #6fa4ff; stroke: #6fa4ff; stroke-width: 1.5; stroke-linejoin: miter"/>
   </g>
   <g id="patch_54">
    <path d="M 705.055905 185.2705 
C 708.532851 185.2705 711.867857 183.889095 714.326429 181.430523 
C 716.785 178.971952 718.166405 175.636945 718.166405 172.16 
C 718.166405 168.683055 716.785 165.348048 714.326429 162.889477 
C 711.867857 160.430905 708.532851 159.0495 705.055905 159.0495 
C 701.57896 159.0495 698.243954 160.430905 695.785382 162.889477 
C 693.32681 165.348048 691.945405 168.683055 691.945405 172.16 
C 691.945405 175.636945 693.32681 178.971952 695.785382 181.430523 
C 698.243954 183.889095 701.57896 185.2705 705.055905 185.2705 
z
" clip-path="url(#p52c5d9be43)" style="fill: #6fa4ff; stroke: #6fa4ff; stroke-width: 2; stroke-linejoin: miter"/>
   </g>
   <g id="patch_55">
    <path d="M 762.684477 350.6645 
C 764.174596 350.6645 765.603885 350.072469 766.657558 349.018796 
C 767.711232 347.965122 768.303263 346.535834 768.303263 345.045714 
C 768.303263 343.555595 767.711232 342.126306 766.657558 341.072633 
C 765.603885 340.018959 764.174596 339.426929 762.684477 339.426929 
C 761.194357 339.426929 759.765069 340.018959 758.711395 341.072633 
C 757.657722 342.126306 757.065691 343.555595 757.065691 345.045714 
C 757.065691 346.535834 757.657722 347.965122 758.711395 349.018796 
C 759.765069 350.072469 761.194357 350.6645 762.684477 350.6645 
z
" clip-path="url(#p52c5d9be43)" style="fill: #6fa4ff; stroke: #6fa4ff; stroke-width: 1.5; stroke-linejoin: miter"/>
   </g>
   <g id="patch_56">
    <path d="M 762.684477 242.899071 
C 766.161422 242.899071 769.496429 241.517666 771.955 239.059095 
C 774.413572 236.600523 775.794977 233.265517 775.794977 229.788571 
C 775.794977 226.311626 774.413572 222.97662 771.955 220.518048 
C 769.496429 218.059476 766.161422 216.678071 762.684477 216.678071 
C 759.207532 216.678071 755.872525 218.059476 753.413953 220.518048 
C 750.955382 222.97662 749.573977 226.311626 749.573977 229.788571 
C 749.573977 233.265517 750.955382 236.600523 753.413953 239.059095 
C 755.872525 241.517666 759.207532 242.899071 762.684477 242.899071 
z
" clip-path="url(#p52c5d9be43)" style="fill: #6fa4ff; stroke: #6fa4ff; stroke-width: 2; stroke-linejoin: miter"/>
   </g>
   <g id="patch_57">
    <path d="M 877.94162 293.035929 
C 879.431739 293.035929 880.861028 292.443898 881.914701 291.390224 
C 882.968375 290.336551 883.560405 288.907262 883.560405 287.417143 
C 883.560405 285.927023 882.968375 284.497735 881.914701 283.444061 
C 880.861028 282.390388 879.431739 281.798357 877.94162 281.798357 
C 876.4515 281.798357 875.022212 282.390388 873.968538 283.444061 
C 872.914865 284.497735 872.322834 285.927023 872.322834 287.417143 
C 872.322834 288.907262 872.914865 290.336551 873.968538 291.390224 
C 875.022212 292.443898 876.4515 293.035929 877.94162 293.035929 
z
" clip-path="url(#p52c5d9be43)" style="fill: #6fa4ff; stroke: #6fa4ff; stroke-width: 1.5; stroke-linejoin: miter"/>
   </g>
   <g id="patch_58">
    <path d="M 877.94162 127.641929 
C 881.418565 127.641929 884.753572 126.260524 887.212143 123.801952 
C 889.670715 121.34338 891.05212 118.008374 891.05212 114.531429 
C 891.05212 111.054483 889.670715 107.719477 887.212143 105.260905 
C 884.753572 102.802334 881.418565 101.420929 877.94162 101.420929 
C 874.464674 101.420929 871.129668 102.802334 868.671096 105.260905 
C 866.212525 107.719477 864.83112 111.054483 864.83112 114.531429 
C 864.83112 118.008374 866.212525 121.34338 868.671096 123.801952 
C 871.129668 126.260524 874.464674 127.641929 877.94162 127.641929 
z
" clip-path="url(#p52c5d9be43)" style="fill: #6fa4ff; stroke: #6fa4ff; stroke-width: 2; stroke-linejoin: miter"/>
   </g>
   <g id="patch_59">
    <path d="M 935.570191 293.035929 
C 937.060311 293.035929 938.489599 292.443898 939.543273 291.390224 
C 940.596946 290.336551 941.188977 288.907262 941.188977 287.417143 
C 941.188977 285.927023 940.596946 284.497735 939.543273 283.444061 
C 938.489599 282.390388 937.060311 281.798357 935.570191 281.798357 
C 934.080072 281.798357 932.650783 282.390388 931.59711 283.444061 
C 930.543436 284.497735 929.951405 285.927023 929.951405 287.417143 
C 929.951405 288.907262 930.543436 290.336551 931.59711 291.390224 
C 932.650783 292.443898 934.080072 293.035929 935.570191 293.035929 
z
" clip-path="url(#p52c5d9be43)" style="fill: #6fa4ff; stroke: #6fa4ff; stroke-width: 1.5; stroke-linejoin: miter"/>
   </g>
   <g id="patch_60">
    <path d="M 935.570191 185.2705 
C 939.047136 185.2705 942.382143 183.889095 944.840715 181.430523 
C 947.299286 178.971952 948.680691 175.636945 948.680691 172.16 
C 948.680691 168.683055 947.299286 165.348048 944.840715 162.889477 
C 942.382143 160.430905 939.047136 159.0495 935.570191 159.0495 
C 932.093246 159.0495 928.758239 160.430905 926.299668 162.889477 
C 923.841096 165.348048 922.459691 168.683055 922.459691 172.16 
C 922.459691 175.636945 923.841096 178.971952 926.299668 181.430523 
C 928.758239 183.889095 932.093246 185.2705 935.570191 185.2705 
z
" clip-path="url(#p52c5d9be43)" style="fill: #6fa4ff; stroke: #6fa4ff; stroke-width: 2; stroke-linejoin: miter"/>
   </g>
   <g id="patch_61">
    <path d="M 993.198763 293.035929 
C 994.688882 293.035929 996.118171 292.443898 997.171844 291.390224 
C 998.225518 290.336551 998.817548 288.907262 998.817548 287.417143 
C 998.817548 285.927023 998.225518 284.497735 997.171844 283.444061 
C 996.118171 282.390388 994.688882 281.798357 993.198763 281.798357 
C 991.708643 281.798357 990.279355 282.390388 989.225681 283.444061 
C 988.172008 284.497735 987.579977 285.927023 987.579977 287.417143 
C 987.579977 288.907262 988.172008 290.336551 989.225681 291.390224 
C 990.279355 292.443898 991.708643 293.035929 993.198763 293.035929 
z
" clip-path="url(#p52c5d9be43)" style="fill: #6fa4ff; stroke: #6fa4ff; stroke-width: 1.5; stroke-linejoin: miter"/>
   </g>
   <g id="patch_62">
    <path d="M 993.198763 242.899071 
C 996.675708 242.899071 1000.010714 241.517666 1002.469286 239.059095 
C 1004.927858 236.600523 1006.309263 233.265517 1006.309263 229.788571 
C 1006.309263 226.311626 1004.927858 222.97662 1002.469286 220.518048 
C 1000.010714 218.059476 996.675708 216.678071 993.198763 216.678071 
C 989.721817 216.678071 986.386811 218.059476 983.928239 220.518048 
C 981.469668 222.97662 980.088263 226.311626 980.088263 229.788571 
C 980.088263 233.265517 981.469668 236.600523 983.928239 239.059095 
C 986.386811 241.517666 989.721817 242.899071 993.198763 242.899071 
z
" clip-path="url(#p52c5d9be43)" style="fill: #6fa4ff; stroke: #6fa4ff; stroke-width: 2; stroke-linejoin: miter"/>
   </g>
   <g id="patch_63">
    <path d="M 1089.72662 190.889286 
L 1127.185191 190.889286 
L 1127.185191 153.430714 
L 1089.72662 153.430714 
z
" clip-path="url(#p52c5d9be43)" style="fill: #05bab6; stroke: #05bab6; stroke-width: 1.5; stroke-linejoin: miter"/>
   </g>
   <g id="patch_64">
    <path d="M 1089.72662 306.146429 
L 1127.185191 306.146429 
L 1127.185191 268.687857 
L 1089.72662 268.687857 
z
" clip-path="url(#p52c5d9be43)" style="fill: #05bab6; stroke: #05bab6; stroke-width: 1.5; stroke-linejoin: miter"/>
   </g>
   <g id="text_1">
    <g clip-path="url(#p52c5d9be43)">
     <!-- circuit-0 -->
     <g transform="translate(131.150805 60.490045) scale(0.13 -0.13)">
      <defs>
       <path id="DejaVuSans-63" d="M 3122 3366 
L 3122 2828 
Q 2878 2963 2633 3030 
Q 2388 3097 2138 3097 
Q 1578 3097 1268 2742 
Q 959 2388 959 1747 
Q 959 1106 1268 751 
Q 1578 397 2138 397 
Q 2388 397 2633 464 
Q 2878 531 3122 666 
L 3122 134 
Q 2881 22 2623 -34 
Q 2366 -91 2075 -91 
Q 1284 -91 818 406 
Q 353 903 353 1747 
Q 353 2603 823 3093 
Q 1294 3584 2113 3584 
Q 2378 3584 2631 3529 
Q 2884 3475 3122 3366 
z
" transform="scale(0.015625)"/>
       <path id="DejaVuSans-69" d="M 603 3500 
L 1178 3500 
L 1178 0 
L 603 0 
L 603 3500 
z
M 603 4863 
L 1178 4863 
L 1178 4134 
L 603 4134 
L 603 4863 
z
" transform="scale(0.015625)"/>
       <path id="DejaVuSans-72" d="M 2631 2963 
Q 2534 3019 2420 3045 
Q 2306 3072 2169 3072 
Q 1681 3072 1420 2755 
Q 1159 2438 1159 1844 
L 1159 0 
L 581 0 
L 581 3500 
L 1159 3500 
L 1159 2956 
Q 1341 3275 1631 3429 
Q 1922 3584 2338 3584 
Q 2397 3584 2469 3576 
Q 2541 3569 2628 3553 
L 2631 2963 
z
" transform="scale(0.015625)"/>
       <path id="DejaVuSans-75" d="M 544 1381 
L 544 3500 
L 1119 3500 
L 1119 1403 
Q 1119 906 1312 657 
Q 1506 409 1894 409 
Q 2359 409 2629 706 
Q 2900 1003 2900 1516 
L 2900 3500 
L 3475 3500 
L 3475 0 
L 2900 0 
L 2900 538 
Q 2691 219 2414 64 
Q 2138 -91 1772 -91 
Q 1169 -91 856 284 
Q 544 659 544 1381 
z
M 1991 3584 
L 1991 3584 
z
" transform="scale(0.015625)"/>
       <path id="DejaVuSans-74" d="M 1172 4494 
L 1172 3500 
L 2356 3500 
L 2356 3053 
L 1172 3053 
L 1172 1153 
Q 1172 725 1289 603 
Q 1406 481 1766 481 
L 2356 481 
L 2356 0 
L 1766 0 
Q 1100 0 847 248 
Q 594 497 594 1153 
L 594 3053 
L 172 3053 
L 172 3500 
L 594 3500 
L 594 4494 
L 1172 4494 
z
" transform="scale(0.015625)"/>
       <path id="DejaVuSans-2d" d="M 313 2009 
L 1997 2009 
L 1997 1497 
L 313 1497 
L 313 2009 
z
" transform="scale(0.015625)"/>
       <path id="DejaVuSans-30" d="M 2034 4250 
Q 1547 4250 1301 3770 
Q 1056 3291 1056 2328 
Q 1056 1369 1301 889 
Q 1547 409 2034 409 
Q 2525 409 2770 889 
Q 3016 1369 3016 2328 
Q 3016 3291 2770 3770 
Q 2525 4250 2034 4250 
z
M 2034 4750 
Q 2819 4750 3233 4129 
Q 3647 3509 3647 2328 
Q 3647 1150 3233 529 
Q 2819 -91 2034 -91 
Q 1250 -91 836 529 
Q 422 1150 422 2328 
Q 422 3509 836 4129 
Q 1250 4750 2034 4750 
z
" transform="scale(0.015625)"/>
      </defs>
      <use xlink:href="#DejaVuSans-63"/>
      <use xlink:href="#DejaVuSans-69" x="54.980469"/>
      <use xlink:href="#DejaVuSans-72" x="82.763672"/>
      <use xlink:href="#DejaVuSans-63" x="121.626953"/>
      <use xlink:href="#DejaVuSans-75" x="176.607422"/>
      <use xlink:href="#DejaVuSans-69" x="239.986328"/>
      <use xlink:href="#DejaVuSans-74" x="267.769531"/>
      <use xlink:href="#DejaVuSans-2d" x="306.978516"/>
      <use xlink:href="#DejaVuSans-30" x="343.0625"/>
     </g>
    </g>
   </g>
   <g id="text_2">
    <g clip-path="url(#p52c5d9be43)">
     <!-- H -->
     <g transform="translate(152.696274 291.00433) scale(0.13 -0.13)">
      <defs>
       <path id="DejaVuSans-48" d="M 628 4666 
L 1259 4666 
L 1259 2753 
L 3553 2753 
L 3553 4666 
L 4184 4666 
L 4184 0 
L 3553 0 
L 3553 2222 
L 1259 2222 
L 1259 0 
L 628 0 
L 628 4666 
z
" transform="scale(0.015625)"/>
      </defs>
      <use xlink:href="#DejaVuSans-48"/>
     </g>
    </g>
   </g>
   <g id="text_3">
    <g clip-path="url(#p52c5d9be43)">
     <!-- H -->
     <g transform="translate(152.696274 348.632902) scale(0.13 -0.13)">
      <use xlink:href="#DejaVuSans-48"/>
     </g>
    </g>
   </g>
   <g id="text_4">
    <g clip-path="url(#p52c5d9be43)">
     <!-- H -->
     <g transform="translate(152.696274 406.261473) scale(0.13 -0.13)">
      <use xlink:href="#DejaVuSans-48"/>
     </g>
    </g>
   </g>
   <g id="line2d_22">
    <path d="M 244.027334 122.023143 
L 244.027334 107.039714 
" clip-path="url(#p52c5d9be43)" style="fill: none; stroke: #ffffff; stroke-width: 2; stroke-linecap: square"/>
   </g>
   <g id="line2d_23">
    <path d="M 236.53562 114.531429 
L 251.519048 114.531429 
" clip-path="url(#p52c5d9be43)" style="fill: none; stroke: #ffffff; stroke-width: 2; stroke-linecap: square"/>
   </g>
   <g id="line2d_24">
    <path d="M 301.655905 179.651714 
L 301.655905 164.668286 
" clip-path="url(#p52c5d9be43)" style="fill: none; stroke: #ffffff; stroke-width: 2; stroke-linecap: square"/>
   </g>
   <g id="line2d_25">
    <path d="M 294.164191 172.16 
L 309.14762 172.16 
" clip-path="url(#p52c5d9be43)" style="fill: none; stroke: #ffffff; stroke-width: 2; stroke-linecap: square"/>
   </g>
   <g id="line2d_26">
    <path d="M 359.284477 28.088571 
L 359.284477 85.717143 
" clip-path="url(#p52c5d9be43)" style="fill: none; stroke-dasharray: 3.7,1.6; stroke-dashoffset: 0; stroke: #000000"/>
   </g>
   <g id="line2d_27">
    <path d="M 359.284477 85.717143 
L 359.284477 143.345714 
" clip-path="url(#p52c5d9be43)" style="fill: none; stroke-dasharray: 3.7,1.6; stroke-dashoffset: 0; stroke: #000000"/>
   </g>
   <g id="line2d_28">
    <path d="M 359.284477 143.345714 
L 359.284477 200.974286 
" clip-path="url(#p52c5d9be43)" style="fill: none; stroke-dasharray: 3.7,1.6; stroke-dashoffset: 0; stroke: #000000"/>
   </g>
   <g id="line2d_29">
    <path d="M 359.284477 200.974286 
L 359.284477 258.602857 
" clip-path="url(#p52c5d9be43)" style="fill: none; stroke-dasharray: 3.7,1.6; stroke-dashoffset: 0; stroke: #000000"/>
   </g>
   <g id="line2d_30">
    <path d="M 359.284477 258.602857 
L 359.284477 316.231429 
" clip-path="url(#p52c5d9be43)" style="fill: none; stroke-dasharray: 3.7,1.6; stroke-dashoffset: 0; stroke: #000000"/>
   </g>
   <g id="line2d_31">
    <path d="M 359.284477 316.231429 
L 359.284477 373.86 
" clip-path="url(#p52c5d9be43)" style="fill: none; stroke-dasharray: 3.7,1.6; stroke-dashoffset: 0; stroke: #000000"/>
   </g>
   <g id="line2d_32">
    <path d="M 359.284477 373.86 
L 359.284477 431.488571 
" clip-path="url(#p52c5d9be43)" style="fill: none; stroke-dasharray: 3.7,1.6; stroke-dashoffset: 0; stroke: #000000"/>
   </g>
   <g id="line2d_33">
    <path d="M 416.913048 64.394571 
L 416.913048 49.411143 
" clip-path="url(#p52c5d9be43)" style="fill: none; stroke: #ffffff; stroke-width: 2; stroke-linecap: square"/>
   </g>
   <g id="line2d_34">
    <path d="M 409.421334 56.902857 
L 424.404763 56.902857 
" clip-path="url(#p52c5d9be43)" style="fill: none; stroke: #ffffff; stroke-width: 2; stroke-linecap: square"/>
   </g>
   <g id="line2d_35">
    <path d="M 474.54162 122.023143 
L 474.54162 107.039714 
" clip-path="url(#p52c5d9be43)" style="fill: none; stroke: #ffffff; stroke-width: 2; stroke-linecap: square"/>
   </g>
   <g id="line2d_36">
    <path d="M 467.049905 114.531429 
L 482.033334 114.531429 
" clip-path="url(#p52c5d9be43)" style="fill: none; stroke: #ffffff; stroke-width: 2; stroke-linecap: square"/>
   </g>
   <g id="line2d_37">
    <path d="M 532.170191 237.280286 
L 532.170191 222.296857 
" clip-path="url(#p52c5d9be43)" style="fill: none; stroke: #ffffff; stroke-width: 2; stroke-linecap: square"/>
   </g>
   <g id="line2d_38">
    <path d="M 524.678477 229.788571 
L 539.661905 229.788571 
" clip-path="url(#p52c5d9be43)" style="fill: none; stroke: #ffffff; stroke-width: 2; stroke-linecap: square"/>
   </g>
   <g id="line2d_39">
    <path d="M 589.798763 28.088571 
L 589.798763 85.717143 
" clip-path="url(#p52c5d9be43)" style="fill: none; stroke-dasharray: 3.7,1.6; stroke-dashoffset: 0; stroke: #000000"/>
   </g>
   <g id="line2d_40">
    <path d="M 589.798763 85.717143 
L 589.798763 143.345714 
" clip-path="url(#p52c5d9be43)" style="fill: none; stroke-dasharray: 3.7,1.6; stroke-dashoffset: 0; stroke: #000000"/>
   </g>
   <g id="line2d_41">
    <path d="M 589.798763 143.345714 
L 589.798763 200.974286 
" clip-path="url(#p52c5d9be43)" style="fill: none; stroke-dasharray: 3.7,1.6; stroke-dashoffset: 0; stroke: #000000"/>
   </g>
   <g id="line2d_42">
    <path d="M 589.798763 200.974286 
L 589.798763 258.602857 
" clip-path="url(#p52c5d9be43)" style="fill: none; stroke-dasharray: 3.7,1.6; stroke-dashoffset: 0; stroke: #000000"/>
   </g>
   <g id="line2d_43">
    <path d="M 589.798763 258.602857 
L 589.798763 316.231429 
" clip-path="url(#p52c5d9be43)" style="fill: none; stroke-dasharray: 3.7,1.6; stroke-dashoffset: 0; stroke: #000000"/>
   </g>
   <g id="line2d_44">
    <path d="M 589.798763 316.231429 
L 589.798763 373.86 
" clip-path="url(#p52c5d9be43)" style="fill: none; stroke-dasharray: 3.7,1.6; stroke-dashoffset: 0; stroke: #000000"/>
   </g>
   <g id="line2d_45">
    <path d="M 589.798763 373.86 
L 589.798763 431.488571 
" clip-path="url(#p52c5d9be43)" style="fill: none; stroke-dasharray: 3.7,1.6; stroke-dashoffset: 0; stroke: #000000"/>
   </g>
   <g id="line2d_46">
    <path d="M 647.427334 64.394571 
L 647.427334 49.411143 
" clip-path="url(#p52c5d9be43)" style="fill: none; stroke: #ffffff; stroke-width: 2; stroke-linecap: square"/>
   </g>
   <g id="line2d_47">
    <path d="M 639.93562 56.902857 
L 654.919048 56.902857 
" clip-path="url(#p52c5d9be43)" style="fill: none; stroke: #ffffff; stroke-width: 2; stroke-linecap: square"/>
   </g>
   <g id="line2d_48">
    <path d="M 705.055905 179.651714 
L 705.055905 164.668286 
" clip-path="url(#p52c5d9be43)" style="fill: none; stroke: #ffffff; stroke-width: 2; stroke-linecap: square"/>
   </g>
   <g id="line2d_49">
    <path d="M 697.564191 172.16 
L 712.54762 172.16 
" clip-path="url(#p52c5d9be43)" style="fill: none; stroke: #ffffff; stroke-width: 2; stroke-linecap: square"/>
   </g>
   <g id="line2d_50">
    <path d="M 762.684477 237.280286 
L 762.684477 222.296857 
" clip-path="url(#p52c5d9be43)" style="fill: none; stroke: #ffffff; stroke-width: 2; stroke-linecap: square"/>
   </g>
   <g id="line2d_51">
    <path d="M 755.192763 229.788571 
L 770.176191 229.788571 
" clip-path="url(#p52c5d9be43)" style="fill: none; stroke: #ffffff; stroke-width: 2; stroke-linecap: square"/>
   </g>
   <g id="line2d_52">
    <path d="M 820.313048 28.088571 
L 820.313048 85.717143 
" clip-path="url(#p52c5d9be43)" style="fill: none; stroke-dasharray: 3.7,1.6; stroke-dashoffset: 0; stroke: #000000"/>
   </g>
   <g id="line2d_53">
    <path d="M 820.313048 85.717143 
L 820.313048 143.345714 
" clip-path="url(#p52c5d9be43)" style="fill: none; stroke-dasharray: 3.7,1.6; stroke-dashoffset: 0; stroke: #000000"/>
   </g>
   <g id="line2d_54">
    <path d="M 820.313048 143.345714 
L 820.313048 200.974286 
" clip-path="url(#p52c5d9be43)" style="fill: none; stroke-dasharray: 3.7,1.6; stroke-dashoffset: 0; stroke: #000000"/>
   </g>
   <g id="line2d_55">
    <path d="M 820.313048 200.974286 
L 820.313048 258.602857 
" clip-path="url(#p52c5d9be43)" style="fill: none; stroke-dasharray: 3.7,1.6; stroke-dashoffset: 0; stroke: #000000"/>
   </g>
   <g id="line2d_56">
    <path d="M 820.313048 258.602857 
L 820.313048 316.231429 
" clip-path="url(#p52c5d9be43)" style="fill: none; stroke-dasharray: 3.7,1.6; stroke-dashoffset: 0; stroke: #000000"/>
   </g>
   <g id="line2d_57">
    <path d="M 820.313048 316.231429 
L 820.313048 373.86 
" clip-path="url(#p52c5d9be43)" style="fill: none; stroke-dasharray: 3.7,1.6; stroke-dashoffset: 0; stroke: #000000"/>
   </g>
   <g id="line2d_58">
    <path d="M 820.313048 373.86 
L 820.313048 431.488571 
" clip-path="url(#p52c5d9be43)" style="fill: none; stroke-dasharray: 3.7,1.6; stroke-dashoffset: 0; stroke: #000000"/>
   </g>
   <g id="line2d_59">
    <path d="M 877.94162 122.023143 
L 877.94162 107.039714 
" clip-path="url(#p52c5d9be43)" style="fill: none; stroke: #ffffff; stroke-width: 2; stroke-linecap: square"/>
   </g>
   <g id="line2d_60">
    <path d="M 870.449905 114.531429 
L 885.433334 114.531429 
" clip-path="url(#p52c5d9be43)" style="fill: none; stroke: #ffffff; stroke-width: 2; stroke-linecap: square"/>
   </g>
   <g id="line2d_61">
    <path d="M 935.570191 179.651714 
L 935.570191 164.668286 
" clip-path="url(#p52c5d9be43)" style="fill: none; stroke: #ffffff; stroke-width: 2; stroke-linecap: square"/>
   </g>
   <g id="line2d_62">
    <path d="M 928.078477 172.16 
L 943.061905 172.16 
" clip-path="url(#p52c5d9be43)" style="fill: none; stroke: #ffffff; stroke-width: 2; stroke-linecap: square"/>
   </g>
   <g id="line2d_63">
    <path d="M 993.198763 237.280286 
L 993.198763 222.296857 
" clip-path="url(#p52c5d9be43)" style="fill: none; stroke: #ffffff; stroke-width: 2; stroke-linecap: square"/>
   </g>
   <g id="line2d_64">
    <path d="M 985.707048 229.788571 
L 1000.690477 229.788571 
" clip-path="url(#p52c5d9be43)" style="fill: none; stroke: #ffffff; stroke-width: 2; stroke-linecap: square"/>
   </g>
   <g id="line2d_65">
    <path d="M 1050.827334 28.088571 
L 1050.827334 85.717143 
" clip-path="url(#p52c5d9be43)" style="fill: none; stroke-dasharray: 3.7,1.6; stroke-dashoffset: 0; stroke: #000000"/>
   </g>
   <g id="line2d_66">
    <path d="M 1050.827334 85.717143 
L 1050.827334 143.345714 
" clip-path="url(#p52c5d9be43)" style="fill: none; stroke-dasharray: 3.7,1.6; stroke-dashoffset: 0; stroke: #000000"/>
   </g>
   <g id="line2d_67">
    <path d="M 1050.827334 143.345714 
L 1050.827334 200.974286 
" clip-path="url(#p52c5d9be43)" style="fill: none; stroke-dasharray: 3.7,1.6; stroke-dashoffset: 0; stroke: #000000"/>
   </g>
   <g id="line2d_68">
    <path d="M 1050.827334 200.974286 
L 1050.827334 258.602857 
" clip-path="url(#p52c5d9be43)" style="fill: none; stroke-dasharray: 3.7,1.6; stroke-dashoffset: 0; stroke: #000000"/>
   </g>
   <g id="line2d_69">
    <path d="M 1050.827334 258.602857 
L 1050.827334 316.231429 
" clip-path="url(#p52c5d9be43)" style="fill: none; stroke-dasharray: 3.7,1.6; stroke-dashoffset: 0; stroke: #000000"/>
   </g>
   <g id="line2d_70">
    <path d="M 1050.827334 316.231429 
L 1050.827334 373.86 
" clip-path="url(#p52c5d9be43)" style="fill: none; stroke-dasharray: 3.7,1.6; stroke-dashoffset: 0; stroke: #000000"/>
   </g>
   <g id="line2d_71">
    <path d="M 1050.827334 373.86 
L 1050.827334 431.488571 
" clip-path="url(#p52c5d9be43)" style="fill: none; stroke-dasharray: 3.7,1.6; stroke-dashoffset: 0; stroke: #000000"/>
   </g>
   <g id="text_5">
    <g clip-path="url(#p52c5d9be43)">
     <!-- X -->
     <g transform="translate(1104.003405 175.747188) scale(0.13 -0.13)">
      <defs>
       <path id="DejaVuSans-58" d="M 403 4666 
L 1081 4666 
L 2241 2931 
L 3406 4666 
L 4084 4666 
L 2584 2425 
L 4184 0 
L 3506 0 
L 2194 1984 
L 872 0 
L 191 0 
L 1856 2491 
L 403 4666 
z
" transform="scale(0.015625)"/>
      </defs>
      <use xlink:href="#DejaVuSans-58"/>
     </g>
    </g>
   </g>
   <g id="text_6">
    <g clip-path="url(#p52c5d9be43)">
     <!-- Z -->
     <g transform="translate(1104.003405 291.00433) scale(0.13 -0.13)">
      <defs>
       <path id="DejaVuSans-5a" d="M 359 4666 
L 4025 4666 
L 4025 4184 
L 1075 531 
L 4097 531 
L 4097 0 
L 288 0 
L 288 481 
L 3238 4134 
L 359 4134 
L 359 4666 
z
" transform="scale(0.015625)"/>
      </defs>
      <use xlink:href="#DejaVuSans-5a"/>
     </g>
    </g>
   </g>
   <g id="line2d_72">
    <path d="M 1166.084477 28.088571 
L 1166.084477 85.717143 
" clip-path="url(#p52c5d9be43)" style="fill: none; stroke-dasharray: 3.7,1.6; stroke-dashoffset: 0; stroke: #000000"/>
   </g>
   <g id="line2d_73">
    <path d="M 1166.084477 85.717143 
L 1166.084477 143.345714 
" clip-path="url(#p52c5d9be43)" style="fill: none; stroke-dasharray: 3.7,1.6; stroke-dashoffset: 0; stroke: #000000"/>
   </g>
   <g id="line2d_74">
    <path d="M 1166.084477 143.345714 
L 1166.084477 200.974286 
" clip-path="url(#p52c5d9be43)" style="fill: none; stroke-dasharray: 3.7,1.6; stroke-dashoffset: 0; stroke: #000000"/>
   </g>
   <g id="line2d_75">
    <path d="M 1166.084477 200.974286 
L 1166.084477 258.602857 
" clip-path="url(#p52c5d9be43)" style="fill: none; stroke-dasharray: 3.7,1.6; stroke-dashoffset: 0; stroke: #000000"/>
   </g>
   <g id="line2d_76">
    <path d="M 1166.084477 258.602857 
L 1166.084477 316.231429 
" clip-path="url(#p52c5d9be43)" style="fill: none; stroke-dasharray: 3.7,1.6; stroke-dashoffset: 0; stroke: #000000"/>
   </g>
   <g id="line2d_77">
    <path d="M 1166.084477 316.231429 
L 1166.084477 373.86 
" clip-path="url(#p52c5d9be43)" style="fill: none; stroke-dasharray: 3.7,1.6; stroke-dashoffset: 0; stroke: #000000"/>
   </g>
   <g id="line2d_78">
    <path d="M 1166.084477 373.86 
L 1166.084477 431.488571 
" clip-path="url(#p52c5d9be43)" style="fill: none; stroke-dasharray: 3.7,1.6; stroke-dashoffset: 0; stroke: #000000"/>
   </g>
   <g id="text_7">
    <g clip-path="url(#p52c5d9be43)">
     <!-- ${q}_{0}$ -->
     <g transform="translate(68.087548 61.353834) scale(0.1625 -0.1625)">
      <defs>
       <path id="DejaVuSans-Oblique-71" d="M 2669 525 
Q 2438 222 2123 65 
Q 1809 -91 1428 -91 
Q 897 -91 595 267 
Q 294 625 294 1253 
Q 294 1759 480 2231 
Q 666 2703 1013 3078 
Q 1238 3322 1530 3453 
Q 1822 3584 2144 3584 
Q 2531 3584 2781 3431 
Q 3031 3278 3144 2969 
L 3244 3494 
L 3822 3494 
L 2888 -1319 
L 2309 -1319 
L 2669 525 
z
M 891 1338 
Q 891 875 1084 633 
Q 1278 391 1644 391 
Q 2188 391 2572 911 
Q 2956 1431 2956 2175 
Q 2956 2625 2757 2864 
Q 2559 3103 2188 3103 
Q 1916 3103 1684 2976 
Q 1453 2850 1281 2606 
Q 1100 2350 995 2006 
Q 891 1663 891 1338 
z
" transform="scale(0.015625)"/>
      </defs>
      <use xlink:href="#DejaVuSans-Oblique-71"/>
      <use xlink:href="#DejaVuSans-30" transform="translate(63.476562 -16.40625) scale(0.7)"/>
     </g>
    </g>
   </g>
   <g id="text_8">
    <g clip-path="url(#p52c5d9be43)">
     <!-- ${q}_{1}$ -->
     <g transform="translate(68.087548 118.982405) scale(0.1625 -0.1625)">
      <defs>
       <path id="DejaVuSans-31" d="M 794 531 
L 1825 531 
L 1825 4091 
L 703 3866 
L 703 4441 
L 1819 4666 
L 2450 4666 
L 2450 531 
L 3481 531 
L 3481 0 
L 794 0 
L 794 531 
z
" transform="scale(0.015625)"/>
      </defs>
      <use xlink:href="#DejaVuSans-Oblique-71"/>
      <use xlink:href="#DejaVuSans-31" transform="translate(63.476562 -16.40625) scale(0.7)"/>
     </g>
    </g>
   </g>
   <g id="text_9">
    <g clip-path="url(#p52c5d9be43)">
     <!-- ${q}_{2}$ -->
     <g transform="translate(68.087548 176.610977) scale(0.1625 -0.1625)">
      <defs>
       <path id="DejaVuSans-32" d="M 1228 531 
L 3431 531 
L 3431 0 
L 469 0 
L 469 531 
Q 828 903 1448 1529 
Q 2069 2156 2228 2338 
Q 2531 2678 2651 2914 
Q 2772 3150 2772 3378 
Q 2772 3750 2511 3984 
Q 2250 4219 1831 4219 
Q 1534 4219 1204 4116 
Q 875 4013 500 3803 
L 500 4441 
Q 881 4594 1212 4672 
Q 1544 4750 1819 4750 
Q 2544 4750 2975 4387 
Q 3406 4025 3406 3419 
Q 3406 3131 3298 2873 
Q 3191 2616 2906 2266 
Q 2828 2175 2409 1742 
Q 1991 1309 1228 531 
z
" transform="scale(0.015625)"/>
      </defs>
      <use xlink:href="#DejaVuSans-Oblique-71"/>
      <use xlink:href="#DejaVuSans-32" transform="translate(63.476562 -16.40625) scale(0.7)"/>
     </g>
    </g>
   </g>
   <g id="text_10">
    <g clip-path="url(#p52c5d9be43)">
     <!-- ${q}_{3}$ -->
     <g transform="translate(68.087548 234.239548) scale(0.1625 -0.1625)">
      <defs>
       <path id="DejaVuSans-33" d="M 2597 2516 
Q 3050 2419 3304 2112 
Q 3559 1806 3559 1356 
Q 3559 666 3084 287 
Q 2609 -91 1734 -91 
Q 1441 -91 1130 -33 
Q 819 25 488 141 
L 488 750 
Q 750 597 1062 519 
Q 1375 441 1716 441 
Q 2309 441 2620 675 
Q 2931 909 2931 1356 
Q 2931 1769 2642 2001 
Q 2353 2234 1838 2234 
L 1294 2234 
L 1294 2753 
L 1863 2753 
Q 2328 2753 2575 2939 
Q 2822 3125 2822 3475 
Q 2822 3834 2567 4026 
Q 2313 4219 1838 4219 
Q 1578 4219 1281 4162 
Q 984 4106 628 3988 
L 628 4550 
Q 988 4650 1302 4700 
Q 1616 4750 1894 4750 
Q 2613 4750 3031 4423 
Q 3450 4097 3450 3541 
Q 3450 3153 3228 2886 
Q 3006 2619 2597 2516 
z
" transform="scale(0.015625)"/>
      </defs>
      <use xlink:href="#DejaVuSans-Oblique-71"/>
      <use xlink:href="#DejaVuSans-33" transform="translate(63.476562 -16.40625) scale(0.7)"/>
     </g>
    </g>
   </g>
   <g id="text_11">
    <g clip-path="url(#p52c5d9be43)">
     <!-- ${q}_{4}$ -->
     <g transform="translate(68.087548 291.868119) scale(0.1625 -0.1625)">
      <defs>
       <path id="DejaVuSans-34" d="M 2419 4116 
L 825 1625 
L 2419 1625 
L 2419 4116 
z
M 2253 4666 
L 3047 4666 
L 3047 1625 
L 3713 1625 
L 3713 1100 
L 3047 1100 
L 3047 0 
L 2419 0 
L 2419 1100 
L 313 1100 
L 313 1709 
L 2253 4666 
z
" transform="scale(0.015625)"/>
      </defs>
      <use xlink:href="#DejaVuSans-Oblique-71"/>
      <use xlink:href="#DejaVuSans-34" transform="translate(63.476562 -16.40625) scale(0.7)"/>
     </g>
    </g>
   </g>
   <g id="text_12">
    <g clip-path="url(#p52c5d9be43)">
     <!-- ${q}_{5}$ -->
     <g transform="translate(68.087548 349.496691) scale(0.1625 -0.1625)">
      <defs>
       <path id="DejaVuSans-35" d="M 691 4666 
L 3169 4666 
L 3169 4134 
L 1269 4134 
L 1269 2991 
Q 1406 3038 1543 3061 
Q 1681 3084 1819 3084 
Q 2600 3084 3056 2656 
Q 3513 2228 3513 1497 
Q 3513 744 3044 326 
Q 2575 -91 1722 -91 
Q 1428 -91 1123 -41 
Q 819 9 494 109 
L 494 744 
Q 775 591 1075 516 
Q 1375 441 1709 441 
Q 2250 441 2565 725 
Q 2881 1009 2881 1497 
Q 2881 1984 2565 2268 
Q 2250 2553 1709 2553 
Q 1456 2553 1204 2497 
Q 953 2441 691 2322 
L 691 4666 
z
" transform="scale(0.015625)"/>
      </defs>
      <use xlink:href="#DejaVuSans-Oblique-71"/>
      <use xlink:href="#DejaVuSans-35" transform="translate(63.476562 -16.40625) scale(0.7)"/>
     </g>
    </g>
   </g>
   <g id="text_13">
    <g clip-path="url(#p52c5d9be43)">
     <!-- ${q}_{6}$ -->
     <g transform="translate(68.087548 407.125262) scale(0.1625 -0.1625)">
      <defs>
       <path id="DejaVuSans-36" d="M 2113 2584 
Q 1688 2584 1439 2293 
Q 1191 2003 1191 1497 
Q 1191 994 1439 701 
Q 1688 409 2113 409 
Q 2538 409 2786 701 
Q 3034 994 3034 1497 
Q 3034 2003 2786 2293 
Q 2538 2584 2113 2584 
z
M 3366 4563 
L 3366 3988 
Q 3128 4100 2886 4159 
Q 2644 4219 2406 4219 
Q 1781 4219 1451 3797 
Q 1122 3375 1075 2522 
Q 1259 2794 1537 2939 
Q 1816 3084 2150 3084 
Q 2853 3084 3261 2657 
Q 3669 2231 3669 1497 
Q 3669 778 3244 343 
Q 2819 -91 2113 -91 
Q 1303 -91 875 529 
Q 447 1150 447 2328 
Q 447 3434 972 4092 
Q 1497 4750 2381 4750 
Q 2619 4750 2861 4703 
Q 3103 4656 3366 4563 
z
" transform="scale(0.015625)"/>
      </defs>
      <use xlink:href="#DejaVuSans-Oblique-71"/>
      <use xlink:href="#DejaVuSans-36" transform="translate(63.476562 -16.40625) scale(0.7)"/>
     </g>
    </g>
   </g>
   <g id="text_14">
    <g clip-path="url(#p52c5d9be43)">
     <!-- 7 -->
     <g transform="translate(103.41362 452.377125) scale(0.104 -0.104)">
      <defs>
       <path id="DejaVuSans-37" d="M 525 4666 
L 3525 4666 
L 3525 4397 
L 1831 0 
L 1172 0 
L 2766 4134 
L 525 4134 
L 525 4666 
z
" transform="scale(0.015625)"/>
      </defs>
      <use xlink:href="#DejaVuSans-37"/>
     </g>
    </g>
   </g>
   <g id="text_15">
    <g clip-path="url(#p52c5d9be43)">
     <!-- c -->
     <g transform="translate(77.190087 464.786842) scale(0.1625 -0.1625)">
      <use xlink:href="#DejaVuSans-63"/>
     </g>
    </g>
   </g>
  </g>
 </g>
 <defs>
  <clipPath id="p52c5d9be43">
   <rect x="26.278065" y="10.8" width="1177.841269" height="484.08"/>
  </clipPath>
 </defs>
</svg>
