<?xml version="1.0" encoding="utf-8" standalone="no"?>
<!DOCTYPE svg PUBLIC "-//W3C//DTD SVG 1.1//EN"
  "http://www.w3.org/Graphics/SVG/1.1/DTD/svg11.dtd">
<svg xmlns:xlink="http://www.w3.org/1999/xlink" width="460.8pt" height="345.6pt" viewBox="0 0 460.8 345.6" xmlns="http://www.w3.org/2000/svg" version="1.1">
 <metadata>
  <rdf:RDF xmlns:dc="http://purl.org/dc/elements/1.1/" xmlns:cc="http://creativecommons.org/ns#" xmlns:rdf="http://www.w3.org/1999/02/22-rdf-syntax-ns#">
   <cc:Work>
    <dc:type rdf:resource="http://purl.org/dc/dcmitype/StillImage"/>
    <dc:date>2024-04-19T08:44:08.809590</dc:date>
    <dc:format>image/svg+xml</dc:format>
    <dc:creator>
     <cc:Agent>
      <dc:title>Matplotlib v3.8.4, https://matplotlib.org/</dc:title>
     </cc:Agent>
    </dc:creator>
   </cc:Work>
  </rdf:RDF>
 </metadata>
 <defs>
  <style type="text/css">*{stroke-linejoin: round; stroke-linecap: butt}</style>
 </defs>
 <g id="figure_1">
  <g id="patch_1">
   <path d="M 0 345.6 
L 460.8 345.6 
L 460.8 0 
L 0 0 
z
" style="fill: #ffffff"/>
  </g>
  <g id="axes_1">
   <g id="patch_2">
    <path d="M 57.6 307.584 
L 414.72 307.584 
L 414.72 41.472 
L 57.6 41.472 
z
" style="fill: #ffffff"/>
   </g>
   <g id="matplotlib.axis_1">
    <g id="xtick_1">
     <g id="line2d_1">
      <path d="M 73.832727 307.584 
L 73.832727 41.472 
" clip-path="url(#p84e61a8b9e)" style="fill: none; stroke: #b0b0b0; stroke-width: 0.8; stroke-linecap: square"/>
     </g>
     <g id="line2d_2">
      <defs>
       <path id="md2e1b242e0" d="M 0 0 
L 0 3.5 
" style="stroke: #000000; stroke-width: 0.8"/>
      </defs>
      <g>
       <use xlink:href="#md2e1b242e0" x="73.832727" y="307.584" style="stroke: #000000; stroke-width: 0.8"/>
      </g>
     </g>
     <g id="text_1">
      <!-- 0.0 -->
      <g transform="translate(65.881165 322.182437) scale(0.1 -0.1)">
       <defs>
        <path id="DejaVuSans-30" d="M 2034 4250 
Q 1547 4250 1301 3770 
Q 1056 3291 1056 2328 
Q 1056 1369 1301 889 
Q 1547 409 2034 409 
Q 2525 409 2770 889 
Q 3016 1369 3016 2328 
Q 3016 3291 2770 3770 
Q 2525 4250 2034 4250 
z
M 2034 4750 
Q 2819 4750 3233 4129 
Q 3647 3509 3647 2328 
Q 3647 1150 3233 529 
Q 2819 -91 2034 -91 
Q 1250 -91 836 529 
Q 422 1150 422 2328 
Q 422 3509 836 4129 
Q 1250 4750 2034 4750 
z
" transform="scale(0.015625)"/>
        <path id="DejaVuSans-2e" d="M 684 794 
L 1344 794 
L 1344 0 
L 684 0 
L 684 794 
z
" transform="scale(0.015625)"/>
       </defs>
       <use xlink:href="#DejaVuSans-30"/>
       <use xlink:href="#DejaVuSans-2e" x="63.623047"/>
       <use xlink:href="#DejaVuSans-30" x="95.410156"/>
      </g>
     </g>
    </g>
    <g id="xtick_2">
     <g id="line2d_3">
      <path d="M 139.419504 307.584 
L 139.419504 41.472 
" clip-path="url(#p84e61a8b9e)" style="fill: none; stroke: #b0b0b0; stroke-width: 0.8; stroke-linecap: square"/>
     </g>
     <g id="line2d_4">
      <g>
       <use xlink:href="#md2e1b242e0" x="139.419504" y="307.584" style="stroke: #000000; stroke-width: 0.8"/>
      </g>
     </g>
     <g id="text_2">
      <!-- 0.2 -->
      <g transform="translate(131.467942 322.182437) scale(0.1 -0.1)">
       <defs>
        <path id="DejaVuSans-32" d="M 1228 531 
L 3431 531 
L 3431 0 
L 469 0 
L 469 531 
Q 828 903 1448 1529 
Q 2069 2156 2228 2338 
Q 2531 2678 2651 2914 
Q 2772 3150 2772 3378 
Q 2772 3750 2511 3984 
Q 2250 4219 1831 4219 
Q 1534 4219 1204 4116 
Q 875 4013 500 3803 
L 500 4441 
Q 881 4594 1212 4672 
Q 1544 4750 1819 4750 
Q 2544 4750 2975 4387 
Q 3406 4025 3406 3419 
Q 3406 3131 3298 2873 
Q 3191 2616 2906 2266 
Q 2828 2175 2409 1742 
Q 1991 1309 1228 531 
z
" transform="scale(0.015625)"/>
       </defs>
       <use xlink:href="#DejaVuSans-30"/>
       <use xlink:href="#DejaVuSans-2e" x="63.623047"/>
       <use xlink:href="#DejaVuSans-32" x="95.410156"/>
      </g>
     </g>
    </g>
    <g id="xtick_3">
     <g id="line2d_5">
      <path d="M 205.006281 307.584 
L 205.006281 41.472 
" clip-path="url(#p84e61a8b9e)" style="fill: none; stroke: #b0b0b0; stroke-width: 0.8; stroke-linecap: square"/>
     </g>
     <g id="line2d_6">
      <g>
       <use xlink:href="#md2e1b242e0" x="205.006281" y="307.584" style="stroke: #000000; stroke-width: 0.8"/>
      </g>
     </g>
     <g id="text_3">
      <!-- 0.4 -->
      <g transform="translate(197.054718 322.182437) scale(0.1 -0.1)">
       <defs>
        <path id="DejaVuSans-34" d="M 2419 4116 
L 825 1625 
L 2419 1625 
L 2419 4116 
z
M 2253 4666 
L 3047 4666 
L 3047 1625 
L 3713 1625 
L 3713 1100 
L 3047 1100 
L 3047 0 
L 2419 0 
L 2419 1100 
L 313 1100 
L 313 1709 
L 2253 4666 
z
" transform="scale(0.015625)"/>
       </defs>
       <use xlink:href="#DejaVuSans-30"/>
       <use xlink:href="#DejaVuSans-2e" x="63.623047"/>
       <use xlink:href="#DejaVuSans-34" x="95.410156"/>
      </g>
     </g>
    </g>
    <g id="xtick_4">
     <g id="line2d_7">
      <path d="M 270.593058 307.584 
L 270.593058 41.472 
" clip-path="url(#p84e61a8b9e)" style="fill: none; stroke: #b0b0b0; stroke-width: 0.8; stroke-linecap: square"/>
     </g>
     <g id="line2d_8">
      <g>
       <use xlink:href="#md2e1b242e0" x="270.593058" y="307.584" style="stroke: #000000; stroke-width: 0.8"/>
      </g>
     </g>
     <g id="text_4">
      <!-- 0.6 -->
      <g transform="translate(262.641495 322.182437) scale(0.1 -0.1)">
       <defs>
        <path id="DejaVuSans-36" d="M 2113 2584 
Q 1688 2584 1439 2293 
Q 1191 2003 1191 1497 
Q 1191 994 1439 701 
Q 1688 409 2113 409 
Q 2538 409 2786 701 
Q 3034 994 3034 1497 
Q 3034 2003 2786 2293 
Q 2538 2584 2113 2584 
z
M 3366 4563 
L 3366 3988 
Q 3128 4100 2886 4159 
Q 2644 4219 2406 4219 
Q 1781 4219 1451 3797 
Q 1122 3375 1075 2522 
Q 1259 2794 1537 2939 
Q 1816 3084 2150 3084 
Q 2853 3084 3261 2657 
Q 3669 2231 3669 1497 
Q 3669 778 3244 343 
Q 2819 -91 2113 -91 
Q 1303 -91 875 529 
Q 447 1150 447 2328 
Q 447 3434 972 4092 
Q 1497 4750 2381 4750 
Q 2619 4750 2861 4703 
Q 3103 4656 3366 4563 
z
" transform="scale(0.015625)"/>
       </defs>
       <use xlink:href="#DejaVuSans-30"/>
       <use xlink:href="#DejaVuSans-2e" x="63.623047"/>
       <use xlink:href="#DejaVuSans-36" x="95.410156"/>
      </g>
     </g>
    </g>
    <g id="xtick_5">
     <g id="line2d_9">
      <path d="M 336.179835 307.584 
L 336.179835 41.472 
" clip-path="url(#p84e61a8b9e)" style="fill: none; stroke: #b0b0b0; stroke-width: 0.8; stroke-linecap: square"/>
     </g>
     <g id="line2d_10">
      <g>
       <use xlink:href="#md2e1b242e0" x="336.179835" y="307.584" style="stroke: #000000; stroke-width: 0.8"/>
      </g>
     </g>
     <g id="text_5">
      <!-- 0.8 -->
      <g transform="translate(328.228272 322.182437) scale(0.1 -0.1)">
       <defs>
        <path id="DejaVuSans-38" d="M 2034 2216 
Q 1584 2216 1326 1975 
Q 1069 1734 1069 1313 
Q 1069 891 1326 650 
Q 1584 409 2034 409 
Q 2484 409 2743 651 
Q 3003 894 3003 1313 
Q 3003 1734 2745 1975 
Q 2488 2216 2034 2216 
z
M 1403 2484 
Q 997 2584 770 2862 
Q 544 3141 544 3541 
Q 544 4100 942 4425 
Q 1341 4750 2034 4750 
Q 2731 4750 3128 4425 
Q 3525 4100 3525 3541 
Q 3525 3141 3298 2862 
Q 3072 2584 2669 2484 
Q 3125 2378 3379 2068 
Q 3634 1759 3634 1313 
Q 3634 634 3220 271 
Q 2806 -91 2034 -91 
Q 1263 -91 848 271 
Q 434 634 434 1313 
Q 434 1759 690 2068 
Q 947 2378 1403 2484 
z
M 1172 3481 
Q 1172 3119 1398 2916 
Q 1625 2713 2034 2713 
Q 2441 2713 2670 2916 
Q 2900 3119 2900 3481 
Q 2900 3844 2670 4047 
Q 2441 4250 2034 4250 
Q 1625 4250 1398 4047 
Q 1172 3844 1172 3481 
z
" transform="scale(0.015625)"/>
       </defs>
       <use xlink:href="#DejaVuSans-30"/>
       <use xlink:href="#DejaVuSans-2e" x="63.623047"/>
       <use xlink:href="#DejaVuSans-38" x="95.410156"/>
      </g>
     </g>
    </g>
    <g id="xtick_6">
     <g id="line2d_11">
      <path d="M 401.766612 307.584 
L 401.766612 41.472 
" clip-path="url(#p84e61a8b9e)" style="fill: none; stroke: #b0b0b0; stroke-width: 0.8; stroke-linecap: square"/>
     </g>
     <g id="line2d_12">
      <g>
       <use xlink:href="#md2e1b242e0" x="401.766612" y="307.584" style="stroke: #000000; stroke-width: 0.8"/>
      </g>
     </g>
     <g id="text_6">
      <!-- 1.0 -->
      <g transform="translate(393.815049 322.182437) scale(0.1 -0.1)">
       <defs>
        <path id="DejaVuSans-31" d="M 794 531 
L 1825 531 
L 1825 4091 
L 703 3866 
L 703 4441 
L 1819 4666 
L 2450 4666 
L 2450 531 
L 3481 531 
L 3481 0 
L 794 0 
L 794 531 
z
" transform="scale(0.015625)"/>
       </defs>
       <use xlink:href="#DejaVuSans-31"/>
       <use xlink:href="#DejaVuSans-2e" x="63.623047"/>
       <use xlink:href="#DejaVuSans-30" x="95.410156"/>
      </g>
     </g>
    </g>
    <g id="text_7">
     <!-- p -->
     <g transform="translate(232.985781 335.860562) scale(0.1 -0.1)">
      <defs>
       <path id="DejaVuSans-70" d="M 1159 525 
L 1159 -1331 
L 581 -1331 
L 581 3500 
L 1159 3500 
L 1159 2969 
Q 1341 3281 1617 3432 
Q 1894 3584 2278 3584 
Q 2916 3584 3314 3078 
Q 3713 2572 3713 1747 
Q 3713 922 3314 415 
Q 2916 -91 2278 -91 
Q 1894 -91 1617 61 
Q 1341 213 1159 525 
z
M 3116 1747 
Q 3116 2381 2855 2742 
Q 2594 3103 2138 3103 
Q 1681 3103 1420 2742 
Q 1159 2381 1159 1747 
Q 1159 1113 1420 752 
Q 1681 391 2138 391 
Q 2594 391 2855 752 
Q 3116 1113 3116 1747 
z
" transform="scale(0.015625)"/>
      </defs>
      <use xlink:href="#DejaVuSans-70"/>
     </g>
    </g>
   </g>
   <g id="matplotlib.axis_2">
    <g id="ytick_1">
     <g id="line2d_13">
      <path d="M 57.6 295.488 
L 414.72 295.488 
" clip-path="url(#p84e61a8b9e)" style="fill: none; stroke: #b0b0b0; stroke-width: 0.8; stroke-linecap: square"/>
     </g>
     <g id="line2d_14">
      <defs>
       <path id="m9d08016039" d="M 0 0 
L -3.5 0 
" style="stroke: #000000; stroke-width: 0.8"/>
      </defs>
      <g>
       <use xlink:href="#m9d08016039" x="57.6" y="295.488" style="stroke: #000000; stroke-width: 0.8"/>
      </g>
     </g>
     <g id="text_8">
      <!-- 0 -->
      <g transform="translate(44.2375 299.287219) scale(0.1 -0.1)">
       <use xlink:href="#DejaVuSans-30"/>
      </g>
     </g>
    </g>
    <g id="ytick_2">
     <g id="line2d_15">
      <path d="M 57.6 247.104 
L 414.72 247.104 
" clip-path="url(#p84e61a8b9e)" style="fill: none; stroke: #b0b0b0; stroke-width: 0.8; stroke-linecap: square"/>
     </g>
     <g id="line2d_16">
      <g>
       <use xlink:href="#m9d08016039" x="57.6" y="247.104" style="stroke: #000000; stroke-width: 0.8"/>
      </g>
     </g>
     <g id="text_9">
      <!-- 20 -->
      <g transform="translate(37.875 250.903219) scale(0.1 -0.1)">
       <use xlink:href="#DejaVuSans-32"/>
       <use xlink:href="#DejaVuSans-30" x="63.623047"/>
      </g>
     </g>
    </g>
    <g id="ytick_3">
     <g id="line2d_17">
      <path d="M 57.6 198.72 
L 414.72 198.72 
" clip-path="url(#p84e61a8b9e)" style="fill: none; stroke: #b0b0b0; stroke-width: 0.8; stroke-linecap: square"/>
     </g>
     <g id="line2d_18">
      <g>
       <use xlink:href="#m9d08016039" x="57.6" y="198.72" style="stroke: #000000; stroke-width: 0.8"/>
      </g>
     </g>
     <g id="text_10">
      <!-- 40 -->
      <g transform="translate(37.875 202.519219) scale(0.1 -0.1)">
       <use xlink:href="#DejaVuSans-34"/>
       <use xlink:href="#DejaVuSans-30" x="63.623047"/>
      </g>
     </g>
    </g>
    <g id="ytick_4">
     <g id="line2d_19">
      <path d="M 57.6 150.336 
L 414.72 150.336 
" clip-path="url(#p84e61a8b9e)" style="fill: none; stroke: #b0b0b0; stroke-width: 0.8; stroke-linecap: square"/>
     </g>
     <g id="line2d_20">
      <g>
       <use xlink:href="#m9d08016039" x="57.6" y="150.336" style="stroke: #000000; stroke-width: 0.8"/>
      </g>
     </g>
     <g id="text_11">
      <!-- 60 -->
      <g transform="translate(37.875 154.135219) scale(0.1 -0.1)">
       <use xlink:href="#DejaVuSans-36"/>
       <use xlink:href="#DejaVuSans-30" x="63.623047"/>
      </g>
     </g>
    </g>
    <g id="ytick_5">
     <g id="line2d_21">
      <path d="M 57.6 101.952 
L 414.72 101.952 
" clip-path="url(#p84e61a8b9e)" style="fill: none; stroke: #b0b0b0; stroke-width: 0.8; stroke-linecap: square"/>
     </g>
     <g id="line2d_22">
      <g>
       <use xlink:href="#m9d08016039" x="57.6" y="101.952" style="stroke: #000000; stroke-width: 0.8"/>
      </g>
     </g>
     <g id="text_12">
      <!-- 80 -->
      <g transform="translate(37.875 105.751219) scale(0.1 -0.1)">
       <use xlink:href="#DejaVuSans-38"/>
       <use xlink:href="#DejaVuSans-30" x="63.623047"/>
      </g>
     </g>
    </g>
    <g id="ytick_6">
     <g id="line2d_23">
      <path d="M 57.6 53.568 
L 414.72 53.568 
" clip-path="url(#p84e61a8b9e)" style="fill: none; stroke: #b0b0b0; stroke-width: 0.8; stroke-linecap: square"/>
     </g>
     <g id="line2d_24">
      <g>
       <use xlink:href="#m9d08016039" x="57.6" y="53.568" style="stroke: #000000; stroke-width: 0.8"/>
      </g>
     </g>
     <g id="text_13">
      <!-- 100 -->
      <g transform="translate(31.5125 57.367219) scale(0.1 -0.1)">
       <use xlink:href="#DejaVuSans-31"/>
       <use xlink:href="#DejaVuSans-30" x="63.623047"/>
       <use xlink:href="#DejaVuSans-30" x="127.246094"/>
      </g>
     </g>
    </g>
    <g id="text_14">
     <!-- % times where correct errors detected -->
     <g transform="translate(25.432812 270.938938) rotate(-90) scale(0.1 -0.1)">
      <defs>
       <path id="DejaVuSans-25" d="M 4653 2053 
Q 4381 2053 4226 1822 
Q 4072 1591 4072 1178 
Q 4072 772 4226 539 
Q 4381 306 4653 306 
Q 4919 306 5073 539 
Q 5228 772 5228 1178 
Q 5228 1588 5073 1820 
Q 4919 2053 4653 2053 
z
M 4653 2450 
Q 5147 2450 5437 2106 
Q 5728 1763 5728 1178 
Q 5728 594 5436 251 
Q 5144 -91 4653 -91 
Q 4153 -91 3862 251 
Q 3572 594 3572 1178 
Q 3572 1766 3864 2108 
Q 4156 2450 4653 2450 
z
M 1428 4353 
Q 1159 4353 1004 4120 
Q 850 3888 850 3481 
Q 850 3069 1003 2837 
Q 1156 2606 1428 2606 
Q 1700 2606 1854 2837 
Q 2009 3069 2009 3481 
Q 2009 3884 1853 4118 
Q 1697 4353 1428 4353 
z
M 4250 4750 
L 4750 4750 
L 1831 -91 
L 1331 -91 
L 4250 4750 
z
M 1428 4750 
Q 1922 4750 2215 4408 
Q 2509 4066 2509 3481 
Q 2509 2891 2217 2550 
Q 1925 2209 1428 2209 
Q 931 2209 642 2551 
Q 353 2894 353 3481 
Q 353 4063 643 4406 
Q 934 4750 1428 4750 
z
" transform="scale(0.015625)"/>
       <path id="DejaVuSans-20" transform="scale(0.015625)"/>
       <path id="DejaVuSans-74" d="M 1172 4494 
L 1172 3500 
L 2356 3500 
L 2356 3053 
L 1172 3053 
L 1172 1153 
Q 1172 725 1289 603 
Q 1406 481 1766 481 
L 2356 481 
L 2356 0 
L 1766 0 
Q 1100 0 847 248 
Q 594 497 594 1153 
L 594 3053 
L 172 3053 
L 172 3500 
L 594 3500 
L 594 4494 
L 1172 4494 
z
" transform="scale(0.015625)"/>
       <path id="DejaVuSans-69" d="M 603 3500 
L 1178 3500 
L 1178 0 
L 603 0 
L 603 3500 
z
M 603 4863 
L 1178 4863 
L 1178 4134 
L 603 4134 
L 603 4863 
z
" transform="scale(0.015625)"/>
       <path id="DejaVuSans-6d" d="M 3328 2828 
Q 3544 3216 3844 3400 
Q 4144 3584 4550 3584 
Q 5097 3584 5394 3201 
Q 5691 2819 5691 2113 
L 5691 0 
L 5113 0 
L 5113 2094 
Q 5113 2597 4934 2840 
Q 4756 3084 4391 3084 
Q 3944 3084 3684 2787 
Q 3425 2491 3425 1978 
L 3425 0 
L 2847 0 
L 2847 2094 
Q 2847 2600 2669 2842 
Q 2491 3084 2119 3084 
Q 1678 3084 1418 2786 
Q 1159 2488 1159 1978 
L 1159 0 
L 581 0 
L 581 3500 
L 1159 3500 
L 1159 2956 
Q 1356 3278 1631 3431 
Q 1906 3584 2284 3584 
Q 2666 3584 2933 3390 
Q 3200 3197 3328 2828 
z
" transform="scale(0.015625)"/>
       <path id="DejaVuSans-65" d="M 3597 1894 
L 3597 1613 
L 953 1613 
Q 991 1019 1311 708 
Q 1631 397 2203 397 
Q 2534 397 2845 478 
Q 3156 559 3463 722 
L 3463 178 
Q 3153 47 2828 -22 
Q 2503 -91 2169 -91 
Q 1331 -91 842 396 
Q 353 884 353 1716 
Q 353 2575 817 3079 
Q 1281 3584 2069 3584 
Q 2775 3584 3186 3129 
Q 3597 2675 3597 1894 
z
M 3022 2063 
Q 3016 2534 2758 2815 
Q 2500 3097 2075 3097 
Q 1594 3097 1305 2825 
Q 1016 2553 972 2059 
L 3022 2063 
z
" transform="scale(0.015625)"/>
       <path id="DejaVuSans-73" d="M 2834 3397 
L 2834 2853 
Q 2591 2978 2328 3040 
Q 2066 3103 1784 3103 
Q 1356 3103 1142 2972 
Q 928 2841 928 2578 
Q 928 2378 1081 2264 
Q 1234 2150 1697 2047 
L 1894 2003 
Q 2506 1872 2764 1633 
Q 3022 1394 3022 966 
Q 3022 478 2636 193 
Q 2250 -91 1575 -91 
Q 1294 -91 989 -36 
Q 684 19 347 128 
L 347 722 
Q 666 556 975 473 
Q 1284 391 1588 391 
Q 1994 391 2212 530 
Q 2431 669 2431 922 
Q 2431 1156 2273 1281 
Q 2116 1406 1581 1522 
L 1381 1569 
Q 847 1681 609 1914 
Q 372 2147 372 2553 
Q 372 3047 722 3315 
Q 1072 3584 1716 3584 
Q 2034 3584 2315 3537 
Q 2597 3491 2834 3397 
z
" transform="scale(0.015625)"/>
       <path id="DejaVuSans-77" d="M 269 3500 
L 844 3500 
L 1563 769 
L 2278 3500 
L 2956 3500 
L 3675 769 
L 4391 3500 
L 4966 3500 
L 4050 0 
L 3372 0 
L 2619 2869 
L 1863 0 
L 1184 0 
L 269 3500 
z
" transform="scale(0.015625)"/>
       <path id="DejaVuSans-68" d="M 3513 2113 
L 3513 0 
L 2938 0 
L 2938 2094 
Q 2938 2591 2744 2837 
Q 2550 3084 2163 3084 
Q 1697 3084 1428 2787 
Q 1159 2491 1159 1978 
L 1159 0 
L 581 0 
L 581 4863 
L 1159 4863 
L 1159 2956 
Q 1366 3272 1645 3428 
Q 1925 3584 2291 3584 
Q 2894 3584 3203 3211 
Q 3513 2838 3513 2113 
z
" transform="scale(0.015625)"/>
       <path id="DejaVuSans-72" d="M 2631 2963 
Q 2534 3019 2420 3045 
Q 2306 3072 2169 3072 
Q 1681 3072 1420 2755 
Q 1159 2438 1159 1844 
L 1159 0 
L 581 0 
L 581 3500 
L 1159 3500 
L 1159 2956 
Q 1341 3275 1631 3429 
Q 1922 3584 2338 3584 
Q 2397 3584 2469 3576 
Q 2541 3569 2628 3553 
L 2631 2963 
z
" transform="scale(0.015625)"/>
       <path id="DejaVuSans-63" d="M 3122 3366 
L 3122 2828 
Q 2878 2963 2633 3030 
Q 2388 3097 2138 3097 
Q 1578 3097 1268 2742 
Q 959 2388 959 1747 
Q 959 1106 1268 751 
Q 1578 397 2138 397 
Q 2388 397 2633 464 
Q 2878 531 3122 666 
L 3122 134 
Q 2881 22 2623 -34 
Q 2366 -91 2075 -91 
Q 1284 -91 818 406 
Q 353 903 353 1747 
Q 353 2603 823 3093 
Q 1294 3584 2113 3584 
Q 2378 3584 2631 3529 
Q 2884 3475 3122 3366 
z
" transform="scale(0.015625)"/>
       <path id="DejaVuSans-6f" d="M 1959 3097 
Q 1497 3097 1228 2736 
Q 959 2375 959 1747 
Q 959 1119 1226 758 
Q 1494 397 1959 397 
Q 2419 397 2687 759 
Q 2956 1122 2956 1747 
Q 2956 2369 2687 2733 
Q 2419 3097 1959 3097 
z
M 1959 3584 
Q 2709 3584 3137 3096 
Q 3566 2609 3566 1747 
Q 3566 888 3137 398 
Q 2709 -91 1959 -91 
Q 1206 -91 779 398 
Q 353 888 353 1747 
Q 353 2609 779 3096 
Q 1206 3584 1959 3584 
z
" transform="scale(0.015625)"/>
       <path id="DejaVuSans-64" d="M 2906 2969 
L 2906 4863 
L 3481 4863 
L 3481 0 
L 2906 0 
L 2906 525 
Q 2725 213 2448 61 
Q 2172 -91 1784 -91 
Q 1150 -91 751 415 
Q 353 922 353 1747 
Q 353 2572 751 3078 
Q 1150 3584 1784 3584 
Q 2172 3584 2448 3432 
Q 2725 3281 2906 2969 
z
M 947 1747 
Q 947 1113 1208 752 
Q 1469 391 1925 391 
Q 2381 391 2643 752 
Q 2906 1113 2906 1747 
Q 2906 2381 2643 2742 
Q 2381 3103 1925 3103 
Q 1469 3103 1208 2742 
Q 947 2381 947 1747 
z
" transform="scale(0.015625)"/>
      </defs>
      <use xlink:href="#DejaVuSans-25"/>
      <use xlink:href="#DejaVuSans-20" x="95.019531"/>
      <use xlink:href="#DejaVuSans-74" x="126.806641"/>
      <use xlink:href="#DejaVuSans-69" x="166.015625"/>
      <use xlink:href="#DejaVuSans-6d" x="193.798828"/>
      <use xlink:href="#DejaVuSans-65" x="291.210938"/>
      <use xlink:href="#DejaVuSans-73" x="352.734375"/>
      <use xlink:href="#DejaVuSans-20" x="404.833984"/>
      <use xlink:href="#DejaVuSans-77" x="436.621094"/>
      <use xlink:href="#DejaVuSans-68" x="518.408203"/>
      <use xlink:href="#DejaVuSans-65" x="581.787109"/>
      <use xlink:href="#DejaVuSans-72" x="643.310547"/>
      <use xlink:href="#DejaVuSans-65" x="682.173828"/>
      <use xlink:href="#DejaVuSans-20" x="743.697266"/>
      <use xlink:href="#DejaVuSans-63" x="775.484375"/>
      <use xlink:href="#DejaVuSans-6f" x="830.464844"/>
      <use xlink:href="#DejaVuSans-72" x="891.646484"/>
      <use xlink:href="#DejaVuSans-72" x="931.009766"/>
      <use xlink:href="#DejaVuSans-65" x="969.873047"/>
      <use xlink:href="#DejaVuSans-63" x="1031.396484"/>
      <use xlink:href="#DejaVuSans-74" x="1086.376953"/>
      <use xlink:href="#DejaVuSans-20" x="1125.585938"/>
      <use xlink:href="#DejaVuSans-65" x="1157.373047"/>
      <use xlink:href="#DejaVuSans-72" x="1218.896484"/>
      <use xlink:href="#DejaVuSans-72" x="1258.259766"/>
      <use xlink:href="#DejaVuSans-6f" x="1297.123047"/>
      <use xlink:href="#DejaVuSans-72" x="1358.304688"/>
      <use xlink:href="#DejaVuSans-73" x="1399.417969"/>
      <use xlink:href="#DejaVuSans-20" x="1451.517578"/>
      <use xlink:href="#DejaVuSans-64" x="1483.304688"/>
      <use xlink:href="#DejaVuSans-65" x="1546.78125"/>
      <use xlink:href="#DejaVuSans-74" x="1608.304688"/>
      <use xlink:href="#DejaVuSans-65" x="1647.513672"/>
      <use xlink:href="#DejaVuSans-63" x="1709.037109"/>
      <use xlink:href="#DejaVuSans-74" x="1764.017578"/>
      <use xlink:href="#DejaVuSans-65" x="1803.226562"/>
      <use xlink:href="#DejaVuSans-64" x="1864.75"/>
     </g>
    </g>
   </g>
   <g id="line2d_25">
    <path d="M 73.832727 53.568 
L 77.112066 53.568 
L 80.391405 53.80992 
L 83.670744 54.29376 
L 86.950083 54.7776 
L 90.229421 55.26144 
L 93.50876 56.22912 
L 96.788099 57.1968 
L 100.067438 58.64832 
L 103.346777 58.16448 
L 106.626116 60.8256 
L 109.905455 60.58368 
L 113.184793 64.69632 
L 116.464132 66.38976 
L 119.743471 62.27712 
L 123.02281 71.22816 
L 126.302149 72.19584 
L 129.581488 72.19584 
L 132.860826 71.95392 
L 136.140165 73.64736 
L 139.419504 78.48576 
L 142.698843 80.1792 
L 145.978182 85.0176 
L 149.257521 86.95296 
L 152.53686 88.6464 
L 155.816198 92.03328 
L 159.095537 95.42016 
L 162.374876 93.72672 
L 165.654215 96.14592 
L 168.933554 100.01664 
L 172.212893 103.88736 
L 175.492231 108 
L 178.77157 112.8384 
L 182.050909 122.03136 
L 185.330248 121.3056 
L 188.609587 124.9344 
L 191.888926 125.17632 
L 195.168264 124.20864 
L 198.447603 140.17536 
L 201.726942 131.22432 
L 205.006281 131.70816 
L 208.28562 139.20768 
L 211.564959 143.32032 
L 214.844298 148.88448 
L 218.123636 152.99712 
L 221.402975 156.62592 
L 224.682314 159.04512 
L 227.961653 161.2224 
L 231.240992 168.23808 
L 234.520331 172.59264 
L 237.799669 173.3184 
L 241.079008 176.46336 
L 244.358347 179.3664 
L 247.637686 190.73664 
L 250.917025 190.49472 
L 254.196364 187.8336 
L 257.475702 198.72 
L 260.755041 203.80032 
L 264.03438 205.73568 
L 267.313719 203.31648 
L 270.593058 206.70336 
L 273.872397 210.33216 
L 277.151736 217.58976 
L 280.431074 220.4928 
L 283.710413 221.21856 
L 286.989752 224.60544 
L 290.269091 236.45952 
L 293.54843 234.04032 
L 296.827769 237.18528 
L 300.107107 246.13632 
L 303.386446 243.4752 
L 306.665785 252.18432 
L 309.945124 244.6848 
L 313.224463 253.152 
L 316.503802 257.9904 
L 319.78314 254.3616 
L 323.062479 256.7808 
L 326.341818 261.13536 
L 329.621157 265.48992 
L 332.900496 267.42528 
L 336.179835 265.73184 
L 339.459174 274.9248 
L 342.738512 274.68288 
L 346.017851 278.79552 
L 349.29719 278.79552 
L 352.576529 282.42432 
L 355.855868 282.42432 
L 359.135207 285.8112 
L 362.414545 285.32736 
L 365.693884 285.8112 
L 368.973223 288.2304 
L 372.252562 289.19808 
L 375.531901 290.6496 
L 378.81124 292.10112 
L 382.090579 291.61728 
L 385.369917 294.03648 
L 388.649256 294.03648 
L 391.928595 295.00416 
L 395.207934 295.24608 
L 398.487273 295.488 
" clip-path="url(#p84e61a8b9e)" style="fill: none; stroke: #1f77b4; stroke-width: 1.5; stroke-linecap: square"/>
   </g>
   <g id="line2d_26">
    <path d="M 73.832727 53.568 
L 77.112066 56.011636 
L 80.391405 58.455273 
L 83.670744 60.898909 
L 86.950083 63.342545 
L 90.229421 65.786182 
L 93.50876 68.229818 
L 96.788099 70.673455 
L 100.067438 73.117091 
L 103.346777 75.560727 
L 106.626116 78.004364 
L 109.905455 80.448 
L 113.184793 82.891636 
L 116.464132 85.335273 
L 119.743471 87.778909 
L 123.02281 90.222545 
L 126.302149 92.666182 
L 129.581488 95.109818 
L 132.860826 97.553455 
L 136.140165 99.997091 
L 139.419504 102.440727 
L 142.698843 104.884364 
L 145.978182 107.328 
L 149.257521 109.771636 
L 152.53686 112.215273 
L 155.816198 114.658909 
L 159.095537 117.102545 
L 162.374876 119.546182 
L 165.654215 121.989818 
L 168.933554 124.433455 
L 172.212893 126.877091 
L 175.492231 129.320727 
L 178.77157 131.764364 
L 182.050909 134.208 
L 185.330248 136.651636 
L 188.609587 139.095273 
L 191.888926 141.538909 
L 195.168264 143.982545 
L 198.447603 146.426182 
L 201.726942 148.869818 
L 205.006281 151.313455 
L 208.28562 153.757091 
L 211.564959 156.200727 
L 214.844298 158.644364 
L 218.123636 161.088 
L 221.402975 163.531636 
L 224.682314 165.975273 
L 227.961653 168.418909 
L 231.240992 170.862545 
L 234.520331 173.306182 
L 237.799669 175.749818 
L 241.079008 178.193455 
L 244.358347 180.637091 
L 247.637686 183.080727 
L 250.917025 185.524364 
L 254.196364 187.968 
L 257.475702 190.411636 
L 260.755041 192.855273 
L 264.03438 195.298909 
L 267.313719 197.742545 
L 270.593058 200.186182 
L 273.872397 202.629818 
L 277.151736 205.073455 
L 280.431074 207.517091 
L 283.710413 209.960727 
L 286.989752 212.404364 
L 290.269091 214.848 
L 293.54843 217.291636 
L 296.827769 219.735273 
L 300.107107 222.178909 
L 303.386446 224.622545 
L 306.665785 227.066182 
L 309.945124 229.509818 
L 313.224463 231.953455 
L 316.503802 234.397091 
L 319.78314 236.840727 
L 323.062479 239.284364 
L 326.341818 241.728 
L 329.621157 244.171636 
L 332.900496 246.615273 
L 336.179835 249.058909 
L 339.459174 251.502545 
L 342.738512 253.946182 
L 346.017851 256.389818 
L 349.29719 258.833455 
L 352.576529 261.277091 
L 355.855868 263.720727 
L 359.135207 266.164364 
L 362.414545 268.608 
L 365.693884 271.051636 
L 368.973223 273.495273 
L 372.252562 275.938909 
L 375.531901 278.382545 
L 378.81124 280.826182 
L 382.090579 283.269818 
L 385.369917 285.713455 
L 388.649256 288.157091 
L 391.928595 290.600727 
L 395.207934 293.044364 
L 398.487273 295.488 
" clip-path="url(#p84e61a8b9e)" style="fill: none; stroke-dasharray: 5.55,2.4; stroke-dashoffset: 0; stroke: #ff7f0e; stroke-width: 1.5"/>
   </g>
   <g id="patch_3">
    <path d="M 57.6 307.584 
L 57.6 41.472 
" style="fill: none; stroke: #000000; stroke-width: 0.8; stroke-linejoin: miter; stroke-linecap: square"/>
   </g>
   <g id="patch_4">
    <path d="M 414.72 307.584 
L 414.72 41.472 
" style="fill: none; stroke: #000000; stroke-width: 0.8; stroke-linejoin: miter; stroke-linecap: square"/>
   </g>
   <g id="patch_5">
    <path d="M 57.6 307.584 
L 414.72 307.584 
" style="fill: none; stroke: #000000; stroke-width: 0.8; stroke-linejoin: miter; stroke-linecap: square"/>
   </g>
   <g id="patch_6">
    <path d="M 57.6 41.472 
L 414.72 41.472 
" style="fill: none; stroke: #000000; stroke-width: 0.8; stroke-linejoin: miter; stroke-linecap: square"/>
   </g>
   <g id="text_15">
    <!-- Effectiveness of parity-bit error correction on 2-bit information -->
    <g transform="translate(49.020938 35.472) scale(0.12 -0.12)">
     <defs>
      <path id="DejaVuSans-45" d="M 628 4666 
L 3578 4666 
L 3578 4134 
L 1259 4134 
L 1259 2753 
L 3481 2753 
L 3481 2222 
L 1259 2222 
L 1259 531 
L 3634 531 
L 3634 0 
L 628 0 
L 628 4666 
z
" transform="scale(0.015625)"/>
      <path id="DejaVuSans-66" d="M 2375 4863 
L 2375 4384 
L 1825 4384 
Q 1516 4384 1395 4259 
Q 1275 4134 1275 3809 
L 1275 3500 
L 2222 3500 
L 2222 3053 
L 1275 3053 
L 1275 0 
L 697 0 
L 697 3053 
L 147 3053 
L 147 3500 
L 697 3500 
L 697 3744 
Q 697 4328 969 4595 
Q 1241 4863 1831 4863 
L 2375 4863 
z
" transform="scale(0.015625)"/>
      <path id="DejaVuSans-76" d="M 191 3500 
L 800 3500 
L 1894 563 
L 2988 3500 
L 3597 3500 
L 2284 0 
L 1503 0 
L 191 3500 
z
" transform="scale(0.015625)"/>
      <path id="DejaVuSans-6e" d="M 3513 2113 
L 3513 0 
L 2938 0 
L 2938 2094 
Q 2938 2591 2744 2837 
Q 2550 3084 2163 3084 
Q 1697 3084 1428 2787 
Q 1159 2491 1159 1978 
L 1159 0 
L 581 0 
L 581 3500 
L 1159 3500 
L 1159 2956 
Q 1366 3272 1645 3428 
Q 1925 3584 2291 3584 
Q 2894 3584 3203 3211 
Q 3513 2838 3513 2113 
z
" transform="scale(0.015625)"/>
      <path id="DejaVuSans-61" d="M 2194 1759 
Q 1497 1759 1228 1600 
Q 959 1441 959 1056 
Q 959 750 1161 570 
Q 1363 391 1709 391 
Q 2188 391 2477 730 
Q 2766 1069 2766 1631 
L 2766 1759 
L 2194 1759 
z
M 3341 1997 
L 3341 0 
L 2766 0 
L 2766 531 
Q 2569 213 2275 61 
Q 1981 -91 1556 -91 
Q 1019 -91 701 211 
Q 384 513 384 1019 
Q 384 1609 779 1909 
Q 1175 2209 1959 2209 
L 2766 2209 
L 2766 2266 
Q 2766 2663 2505 2880 
Q 2244 3097 1772 3097 
Q 1472 3097 1187 3025 
Q 903 2953 641 2809 
L 641 3341 
Q 956 3463 1253 3523 
Q 1550 3584 1831 3584 
Q 2591 3584 2966 3190 
Q 3341 2797 3341 1997 
z
" transform="scale(0.015625)"/>
      <path id="DejaVuSans-79" d="M 2059 -325 
Q 1816 -950 1584 -1140 
Q 1353 -1331 966 -1331 
L 506 -1331 
L 506 -850 
L 844 -850 
Q 1081 -850 1212 -737 
Q 1344 -625 1503 -206 
L 1606 56 
L 191 3500 
L 800 3500 
L 1894 763 
L 2988 3500 
L 3597 3500 
L 2059 -325 
z
" transform="scale(0.015625)"/>
      <path id="DejaVuSans-2d" d="M 313 2009 
L 1997 2009 
L 1997 1497 
L 313 1497 
L 313 2009 
z
" transform="scale(0.015625)"/>
      <path id="DejaVuSans-62" d="M 3116 1747 
Q 3116 2381 2855 2742 
Q 2594 3103 2138 3103 
Q 1681 3103 1420 2742 
Q 1159 2381 1159 1747 
Q 1159 1113 1420 752 
Q 1681 391 2138 391 
Q 2594 391 2855 752 
Q 3116 1113 3116 1747 
z
M 1159 2969 
Q 1341 3281 1617 3432 
Q 1894 3584 2278 3584 
Q 2916 3584 3314 3078 
Q 3713 2572 3713 1747 
Q 3713 922 3314 415 
Q 2916 -91 2278 -91 
Q 1894 -91 1617 61 
Q 1341 213 1159 525 
L 1159 0 
L 581 0 
L 581 4863 
L 1159 4863 
L 1159 2969 
z
" transform="scale(0.015625)"/>
     </defs>
     <use xlink:href="#DejaVuSans-45"/>
     <use xlink:href="#DejaVuSans-66" x="63.183594"/>
     <use xlink:href="#DejaVuSans-66" x="98.388672"/>
     <use xlink:href="#DejaVuSans-65" x="133.59375"/>
     <use xlink:href="#DejaVuSans-63" x="195.117188"/>
     <use xlink:href="#DejaVuSans-74" x="250.097656"/>
     <use xlink:href="#DejaVuSans-69" x="289.306641"/>
     <use xlink:href="#DejaVuSans-76" x="317.089844"/>
     <use xlink:href="#DejaVuSans-65" x="376.269531"/>
     <use xlink:href="#DejaVuSans-6e" x="437.792969"/>
     <use xlink:href="#DejaVuSans-65" x="501.171875"/>
     <use xlink:href="#DejaVuSans-73" x="562.695312"/>
     <use xlink:href="#DejaVuSans-73" x="614.794922"/>
     <use xlink:href="#DejaVuSans-20" x="666.894531"/>
     <use xlink:href="#DejaVuSans-6f" x="698.681641"/>
     <use xlink:href="#DejaVuSans-66" x="759.863281"/>
     <use xlink:href="#DejaVuSans-20" x="795.068359"/>
     <use xlink:href="#DejaVuSans-70" x="826.855469"/>
     <use xlink:href="#DejaVuSans-61" x="890.332031"/>
     <use xlink:href="#DejaVuSans-72" x="951.611328"/>
     <use xlink:href="#DejaVuSans-69" x="992.724609"/>
     <use xlink:href="#DejaVuSans-74" x="1020.507812"/>
     <use xlink:href="#DejaVuSans-79" x="1059.716797"/>
     <use xlink:href="#DejaVuSans-2d" x="1117.146484"/>
     <use xlink:href="#DejaVuSans-62" x="1153.230469"/>
     <use xlink:href="#DejaVuSans-69" x="1216.707031"/>
     <use xlink:href="#DejaVuSans-74" x="1244.490234"/>
     <use xlink:href="#DejaVuSans-20" x="1283.699219"/>
     <use xlink:href="#DejaVuSans-65" x="1315.486328"/>
     <use xlink:href="#DejaVuSans-72" x="1377.009766"/>
     <use xlink:href="#DejaVuSans-72" x="1416.373047"/>
     <use xlink:href="#DejaVuSans-6f" x="1455.236328"/>
     <use xlink:href="#DejaVuSans-72" x="1516.417969"/>
     <use xlink:href="#DejaVuSans-20" x="1557.53125"/>
     <use xlink:href="#DejaVuSans-63" x="1589.318359"/>
     <use xlink:href="#DejaVuSans-6f" x="1644.298828"/>
     <use xlink:href="#DejaVuSans-72" x="1705.480469"/>
     <use xlink:href="#DejaVuSans-72" x="1744.84375"/>
     <use xlink:href="#DejaVuSans-65" x="1783.707031"/>
     <use xlink:href="#DejaVuSans-63" x="1845.230469"/>
     <use xlink:href="#DejaVuSans-74" x="1900.210938"/>
     <use xlink:href="#DejaVuSans-69" x="1939.419922"/>
     <use xlink:href="#DejaVuSans-6f" x="1967.203125"/>
     <use xlink:href="#DejaVuSans-6e" x="2028.384766"/>
     <use xlink:href="#DejaVuSans-20" x="2091.763672"/>
     <use xlink:href="#DejaVuSans-6f" x="2123.550781"/>
     <use xlink:href="#DejaVuSans-6e" x="2184.732422"/>
     <use xlink:href="#DejaVuSans-20" x="2248.111328"/>
     <use xlink:href="#DejaVuSans-32" x="2279.898438"/>
     <use xlink:href="#DejaVuSans-2d" x="2343.521484"/>
     <use xlink:href="#DejaVuSans-62" x="2379.605469"/>
     <use xlink:href="#DejaVuSans-69" x="2443.082031"/>
     <use xlink:href="#DejaVuSans-74" x="2470.865234"/>
     <use xlink:href="#DejaVuSans-20" x="2510.074219"/>
     <use xlink:href="#DejaVuSans-69" x="2541.861328"/>
     <use xlink:href="#DejaVuSans-6e" x="2569.644531"/>
     <use xlink:href="#DejaVuSans-66" x="2633.023438"/>
     <use xlink:href="#DejaVuSans-6f" x="2668.228516"/>
     <use xlink:href="#DejaVuSans-72" x="2729.410156"/>
     <use xlink:href="#DejaVuSans-6d" x="2768.773438"/>
     <use xlink:href="#DejaVuSans-61" x="2866.185547"/>
     <use xlink:href="#DejaVuSans-74" x="2927.464844"/>
     <use xlink:href="#DejaVuSans-69" x="2966.673828"/>
     <use xlink:href="#DejaVuSans-6f" x="2994.457031"/>
     <use xlink:href="#DejaVuSans-6e" x="3055.638672"/>
    </g>
   </g>
   <g id="legend_1">
    <g id="patch_7">
     <path d="M 254.18875 78.82825 
L 407.72 78.82825 
Q 409.72 78.82825 409.72 76.82825 
L 409.72 48.472 
Q 409.72 46.472 407.72 46.472 
L 254.18875 46.472 
Q 252.18875 46.472 252.18875 48.472 
L 252.18875 76.82825 
Q 252.18875 78.82825 254.18875 78.82825 
z
" style="fill: #ffffff; opacity: 0.8; stroke: #cccccc; stroke-linejoin: miter"/>
    </g>
    <g id="line2d_27">
     <path d="M 256.18875 54.570437 
L 266.18875 54.570437 
L 276.18875 54.570437 
" style="fill: none; stroke: #1f77b4; stroke-width: 1.5; stroke-linecap: square"/>
    </g>
    <g id="text_16">
     <!-- With Error Correction -->
     <g transform="translate(284.18875 58.070437) scale(0.1 -0.1)">
      <defs>
       <path id="DejaVuSans-57" d="M 213 4666 
L 850 4666 
L 1831 722 
L 2809 4666 
L 3519 4666 
L 4500 722 
L 5478 4666 
L 6119 4666 
L 4947 0 
L 4153 0 
L 3169 4050 
L 2175 0 
L 1381 0 
L 213 4666 
z
" transform="scale(0.015625)"/>
       <path id="DejaVuSans-43" d="M 4122 4306 
L 4122 3641 
Q 3803 3938 3442 4084 
Q 3081 4231 2675 4231 
Q 1875 4231 1450 3742 
Q 1025 3253 1025 2328 
Q 1025 1406 1450 917 
Q 1875 428 2675 428 
Q 3081 428 3442 575 
Q 3803 722 4122 1019 
L 4122 359 
Q 3791 134 3420 21 
Q 3050 -91 2638 -91 
Q 1578 -91 968 557 
Q 359 1206 359 2328 
Q 359 3453 968 4101 
Q 1578 4750 2638 4750 
Q 3056 4750 3426 4639 
Q 3797 4528 4122 4306 
z
" transform="scale(0.015625)"/>
      </defs>
      <use xlink:href="#DejaVuSans-57"/>
      <use xlink:href="#DejaVuSans-69" x="96.626953"/>
      <use xlink:href="#DejaVuSans-74" x="124.410156"/>
      <use xlink:href="#DejaVuSans-68" x="163.619141"/>
      <use xlink:href="#DejaVuSans-20" x="226.998047"/>
      <use xlink:href="#DejaVuSans-45" x="258.785156"/>
      <use xlink:href="#DejaVuSans-72" x="321.96875"/>
      <use xlink:href="#DejaVuSans-72" x="361.332031"/>
      <use xlink:href="#DejaVuSans-6f" x="400.195312"/>
      <use xlink:href="#DejaVuSans-72" x="461.376953"/>
      <use xlink:href="#DejaVuSans-20" x="502.490234"/>
      <use xlink:href="#DejaVuSans-43" x="534.277344"/>
      <use xlink:href="#DejaVuSans-6f" x="604.101562"/>
      <use xlink:href="#DejaVuSans-72" x="665.283203"/>
      <use xlink:href="#DejaVuSans-72" x="704.646484"/>
      <use xlink:href="#DejaVuSans-65" x="743.509766"/>
      <use xlink:href="#DejaVuSans-63" x="805.033203"/>
      <use xlink:href="#DejaVuSans-74" x="860.013672"/>
      <use xlink:href="#DejaVuSans-69" x="899.222656"/>
      <use xlink:href="#DejaVuSans-6f" x="927.005859"/>
      <use xlink:href="#DejaVuSans-6e" x="988.1875"/>
     </g>
    </g>
    <g id="line2d_28">
     <path d="M 256.18875 69.248562 
L 266.18875 69.248562 
L 276.18875 69.248562 
" style="fill: none; stroke-dasharray: 5.55,2.4; stroke-dashoffset: 0; stroke: #ff7f0e; stroke-width: 1.5"/>
    </g>
    <g id="text_17">
     <!-- Without Error Correction -->
     <g transform="translate(284.18875 72.748562) scale(0.1 -0.1)">
      <defs>
       <path id="DejaVuSans-75" d="M 544 1381 
L 544 3500 
L 1119 3500 
L 1119 1403 
Q 1119 906 1312 657 
Q 1506 409 1894 409 
Q 2359 409 2629 706 
Q 2900 1003 2900 1516 
L 2900 3500 
L 3475 3500 
L 3475 0 
L 2900 0 
L 2900 538 
Q 2691 219 2414 64 
Q 2138 -91 1772 -91 
Q 1169 -91 856 284 
Q 544 659 544 1381 
z
M 1991 3584 
L 1991 3584 
z
" transform="scale(0.015625)"/>
      </defs>
      <use xlink:href="#DejaVuSans-57"/>
      <use xlink:href="#DejaVuSans-69" x="96.626953"/>
      <use xlink:href="#DejaVuSans-74" x="124.410156"/>
      <use xlink:href="#DejaVuSans-68" x="163.619141"/>
      <use xlink:href="#DejaVuSans-6f" x="226.998047"/>
      <use xlink:href="#DejaVuSans-75" x="288.179688"/>
      <use xlink:href="#DejaVuSans-74" x="351.558594"/>
      <use xlink:href="#DejaVuSans-20" x="390.767578"/>
      <use xlink:href="#DejaVuSans-45" x="422.554688"/>
      <use xlink:href="#DejaVuSans-72" x="485.738281"/>
      <use xlink:href="#DejaVuSans-72" x="525.101562"/>
      <use xlink:href="#DejaVuSans-6f" x="563.964844"/>
      <use xlink:href="#DejaVuSans-72" x="625.146484"/>
      <use xlink:href="#DejaVuSans-20" x="666.259766"/>
      <use xlink:href="#DejaVuSans-43" x="698.046875"/>
      <use xlink:href="#DejaVuSans-6f" x="767.871094"/>
      <use xlink:href="#DejaVuSans-72" x="829.052734"/>
      <use xlink:href="#DejaVuSans-72" x="868.416016"/>
      <use xlink:href="#DejaVuSans-65" x="907.279297"/>
      <use xlink:href="#DejaVuSans-63" x="968.802734"/>
      <use xlink:href="#DejaVuSans-74" x="1023.783203"/>
      <use xlink:href="#DejaVuSans-69" x="1062.992188"/>
      <use xlink:href="#DejaVuSans-6f" x="1090.775391"/>
      <use xlink:href="#DejaVuSans-6e" x="1151.957031"/>
     </g>
    </g>
   </g>
  </g>
 </g>
 <defs>
  <clipPath id="p84e61a8b9e">
   <rect x="57.6" y="41.472" width="357.12" height="266.112"/>
  </clipPath>
 </defs>
</svg>
