<?xml version="1.0" encoding="utf-8" standalone="no"?>
<!DOCTYPE svg PUBLIC "-//W3C//DTD SVG 1.1//EN"
  "http://www.w3.org/Graphics/SVG/1.1/DTD/svg11.dtd">
<svg xmlns:xlink="http://www.w3.org/1999/xlink" width="1109.997399pt" height="505.68pt" viewBox="0 0 1109.997399 505.68" xmlns="http://www.w3.org/2000/svg" version="1.1">
 <metadata>
  <rdf:RDF xmlns:dc="http://purl.org/dc/elements/1.1/" xmlns:cc="http://creativecommons.org/ns#" xmlns:rdf="http://www.w3.org/1999/02/22-rdf-syntax-ns#">
   <cc:Work>
    <dc:type rdf:resource="http://purl.org/dc/dcmitype/StillImage"/>
    <dc:date>2024-05-08T14:38:43.176734</dc:date>
    <dc:format>image/svg+xml</dc:format>
    <dc:creator>
     <cc:Agent>
      <dc:title>Matplotlib v3.8.4, https://matplotlib.org/</dc:title>
     </cc:Agent>
    </dc:creator>
   </cc:Work>
  </rdf:RDF>
 </metadata>
 <defs>
  <style type="text/css">*{stroke-linejoin: round; stroke-linecap: butt}</style>
 </defs>
 <g id="figure_1">
  <g id="patch_1">
   <path d="M 0 505.68 
L 1109.997399 505.68 
L 1109.997399 0 
L 0 0 
z
" style="fill: #ffffff"/>
  </g>
  <g id="axes_1">
   <g id="line2d_1">
    <path d="M 95.079334 56.902857 
L 1080.527905 56.902857 
" clip-path="url(#p271c99319b)" style="fill: none; stroke: #000000; stroke-width: 2; stroke-linecap: square"/>
   </g>
   <g id="line2d_2">
    <path d="M 95.079334 114.531429 
L 1080.527905 114.531429 
" clip-path="url(#p271c99319b)" style="fill: none; stroke: #000000; stroke-width: 2; stroke-linecap: square"/>
   </g>
   <g id="line2d_3">
    <path d="M 95.079334 172.16 
L 1080.527905 172.16 
" clip-path="url(#p271c99319b)" style="fill: none; stroke: #000000; stroke-width: 2; stroke-linecap: square"/>
   </g>
   <g id="line2d_4">
    <path d="M 95.079334 229.788571 
L 1080.527905 229.788571 
" clip-path="url(#p271c99319b)" style="fill: none; stroke: #000000; stroke-width: 2; stroke-linecap: square"/>
   </g>
   <g id="line2d_5">
    <path d="M 95.079334 287.417143 
L 1080.527905 287.417143 
" clip-path="url(#p271c99319b)" style="fill: none; stroke: #000000; stroke-width: 2; stroke-linecap: square"/>
   </g>
   <g id="line2d_6">
    <path d="M 95.079334 345.045714 
L 1080.527905 345.045714 
" clip-path="url(#p271c99319b)" style="fill: none; stroke: #000000; stroke-width: 2; stroke-linecap: square"/>
   </g>
   <g id="line2d_7">
    <path d="M 95.079334 402.674286 
L 1080.527905 402.674286 
" clip-path="url(#p271c99319b)" style="fill: none; stroke: #000000; stroke-width: 2; stroke-linecap: square"/>
   </g>
   <g id="line2d_8">
    <path d="M 95.079334 458.429929 
L 1080.527905 458.429929 
" clip-path="url(#p271c99319b)" style="fill: none; stroke: #778899; stroke-width: 2; stroke-linecap: square"/>
   </g>
   <g id="line2d_9">
    <path d="M 95.079334 462.175786 
L 1080.527905 462.175786 
" clip-path="url(#p271c99319b)" style="fill: none; stroke: #778899; stroke-width: 2; stroke-linecap: square"/>
   </g>
   <g id="line2d_10">
    <path d="M 241.455905 114.531429 
L 241.455905 56.902857 
" clip-path="url(#p271c99319b)" style="fill: none; stroke: #6fa4ff; stroke-width: 2; stroke-linecap: square"/>
   </g>
   <g id="line2d_11">
    <path d="M 299.084477 172.16 
L 299.084477 56.902857 
" clip-path="url(#p271c99319b)" style="fill: none; stroke: #6fa4ff; stroke-width: 2; stroke-linecap: square"/>
   </g>
   <g id="patch_2">
    <path d="M 345.475477 85.717143 
L 367.95062 85.717143 
L 367.95062 28.088571 
L 345.475477 28.088571 
z
" clip-path="url(#p271c99319b)" style="fill: #bdbdbd; opacity: 0.6"/>
   </g>
   <g id="patch_3">
    <path d="M 345.475477 143.345714 
L 367.95062 143.345714 
L 367.95062 85.717143 
L 345.475477 85.717143 
z
" clip-path="url(#p271c99319b)" style="fill: #bdbdbd; opacity: 0.6"/>
   </g>
   <g id="patch_4">
    <path d="M 345.475477 200.974286 
L 367.95062 200.974286 
L 367.95062 143.345714 
L 345.475477 143.345714 
z
" clip-path="url(#p271c99319b)" style="fill: #bdbdbd; opacity: 0.6"/>
   </g>
   <g id="patch_5">
    <path d="M 345.475477 258.602857 
L 367.95062 258.602857 
L 367.95062 200.974286 
L 345.475477 200.974286 
z
" clip-path="url(#p271c99319b)" style="fill: #bdbdbd; opacity: 0.6"/>
   </g>
   <g id="patch_6">
    <path d="M 345.475477 316.231429 
L 367.95062 316.231429 
L 367.95062 258.602857 
L 345.475477 258.602857 
z
" clip-path="url(#p271c99319b)" style="fill: #bdbdbd; opacity: 0.6"/>
   </g>
   <g id="patch_7">
    <path d="M 345.475477 373.86 
L 367.95062 373.86 
L 367.95062 316.231429 
L 345.475477 316.231429 
z
" clip-path="url(#p271c99319b)" style="fill: #bdbdbd; opacity: 0.6"/>
   </g>
   <g id="patch_8">
    <path d="M 345.475477 431.488571 
L 367.95062 431.488571 
L 367.95062 373.86 
L 345.475477 373.86 
z
" clip-path="url(#p271c99319b)" style="fill: #bdbdbd; opacity: 0.6"/>
   </g>
   <g id="line2d_12">
    <path d="M 414.34162 402.674286 
L 414.34162 56.902857 
" clip-path="url(#p271c99319b)" style="fill: none; stroke: #6fa4ff; stroke-width: 2; stroke-linecap: square"/>
   </g>
   <g id="line2d_13">
    <path d="M 471.970191 402.674286 
L 471.970191 114.531429 
" clip-path="url(#p271c99319b)" style="fill: none; stroke: #6fa4ff; stroke-width: 2; stroke-linecap: square"/>
   </g>
   <g id="line2d_14">
    <path d="M 529.598763 402.674286 
L 529.598763 229.788571 
" clip-path="url(#p271c99319b)" style="fill: none; stroke: #6fa4ff; stroke-width: 2; stroke-linecap: square"/>
   </g>
   <g id="patch_9">
    <path d="M 575.989763 85.717143 
L 598.464905 85.717143 
L 598.464905 28.088571 
L 575.989763 28.088571 
z
" clip-path="url(#p271c99319b)" style="fill: #bdbdbd; opacity: 0.6"/>
   </g>
   <g id="patch_10">
    <path d="M 575.989763 143.345714 
L 598.464905 143.345714 
L 598.464905 85.717143 
L 575.989763 85.717143 
z
" clip-path="url(#p271c99319b)" style="fill: #bdbdbd; opacity: 0.6"/>
   </g>
   <g id="patch_11">
    <path d="M 575.989763 200.974286 
L 598.464905 200.974286 
L 598.464905 143.345714 
L 575.989763 143.345714 
z
" clip-path="url(#p271c99319b)" style="fill: #bdbdbd; opacity: 0.6"/>
   </g>
   <g id="patch_12">
    <path d="M 575.989763 258.602857 
L 598.464905 258.602857 
L 598.464905 200.974286 
L 575.989763 200.974286 
z
" clip-path="url(#p271c99319b)" style="fill: #bdbdbd; opacity: 0.6"/>
   </g>
   <g id="patch_13">
    <path d="M 575.989763 316.231429 
L 598.464905 316.231429 
L 598.464905 258.602857 
L 575.989763 258.602857 
z
" clip-path="url(#p271c99319b)" style="fill: #bdbdbd; opacity: 0.6"/>
   </g>
   <g id="patch_14">
    <path d="M 575.989763 373.86 
L 598.464905 373.86 
L 598.464905 316.231429 
L 575.989763 316.231429 
z
" clip-path="url(#p271c99319b)" style="fill: #bdbdbd; opacity: 0.6"/>
   </g>
   <g id="patch_15">
    <path d="M 575.989763 431.488571 
L 598.464905 431.488571 
L 598.464905 373.86 
L 575.989763 373.86 
z
" clip-path="url(#p271c99319b)" style="fill: #bdbdbd; opacity: 0.6"/>
   </g>
   <g id="line2d_15">
    <path d="M 644.855905 345.045714 
L 644.855905 56.902857 
" clip-path="url(#p271c99319b)" style="fill: none; stroke: #6fa4ff; stroke-width: 2; stroke-linecap: square"/>
   </g>
   <g id="line2d_16">
    <path d="M 702.484477 345.045714 
L 702.484477 172.16 
" clip-path="url(#p271c99319b)" style="fill: none; stroke: #6fa4ff; stroke-width: 2; stroke-linecap: square"/>
   </g>
   <g id="line2d_17">
    <path d="M 760.113048 345.045714 
L 760.113048 229.788571 
" clip-path="url(#p271c99319b)" style="fill: none; stroke: #6fa4ff; stroke-width: 2; stroke-linecap: square"/>
   </g>
   <g id="patch_16">
    <path d="M 806.504048 85.717143 
L 828.979191 85.717143 
L 828.979191 28.088571 
L 806.504048 28.088571 
z
" clip-path="url(#p271c99319b)" style="fill: #bdbdbd; opacity: 0.6"/>
   </g>
   <g id="patch_17">
    <path d="M 806.504048 143.345714 
L 828.979191 143.345714 
L 828.979191 85.717143 
L 806.504048 85.717143 
z
" clip-path="url(#p271c99319b)" style="fill: #bdbdbd; opacity: 0.6"/>
   </g>
   <g id="patch_18">
    <path d="M 806.504048 200.974286 
L 828.979191 200.974286 
L 828.979191 143.345714 
L 806.504048 143.345714 
z
" clip-path="url(#p271c99319b)" style="fill: #bdbdbd; opacity: 0.6"/>
   </g>
   <g id="patch_19">
    <path d="M 806.504048 258.602857 
L 828.979191 258.602857 
L 828.979191 200.974286 
L 806.504048 200.974286 
z
" clip-path="url(#p271c99319b)" style="fill: #bdbdbd; opacity: 0.6"/>
   </g>
   <g id="patch_20">
    <path d="M 806.504048 316.231429 
L 828.979191 316.231429 
L 828.979191 258.602857 
L 806.504048 258.602857 
z
" clip-path="url(#p271c99319b)" style="fill: #bdbdbd; opacity: 0.6"/>
   </g>
   <g id="patch_21">
    <path d="M 806.504048 373.86 
L 828.979191 373.86 
L 828.979191 316.231429 
L 806.504048 316.231429 
z
" clip-path="url(#p271c99319b)" style="fill: #bdbdbd; opacity: 0.6"/>
   </g>
   <g id="patch_22">
    <path d="M 806.504048 431.488571 
L 828.979191 431.488571 
L 828.979191 373.86 
L 806.504048 373.86 
z
" clip-path="url(#p271c99319b)" style="fill: #bdbdbd; opacity: 0.6"/>
   </g>
   <g id="line2d_18">
    <path d="M 875.370191 287.417143 
L 875.370191 114.531429 
" clip-path="url(#p271c99319b)" style="fill: none; stroke: #6fa4ff; stroke-width: 2; stroke-linecap: square"/>
   </g>
   <g id="line2d_19">
    <path d="M 932.998763 287.417143 
L 932.998763 172.16 
" clip-path="url(#p271c99319b)" style="fill: none; stroke: #6fa4ff; stroke-width: 2; stroke-linecap: square"/>
   </g>
   <g id="line2d_20">
    <path d="M 990.627334 287.417143 
L 990.627334 229.788571 
" clip-path="url(#p271c99319b)" style="fill: none; stroke: #6fa4ff; stroke-width: 2; stroke-linecap: square"/>
   </g>
   <g id="patch_23">
    <path d="M 1037.018334 85.717143 
L 1059.493477 85.717143 
L 1059.493477 28.088571 
L 1037.018334 28.088571 
z
" clip-path="url(#p271c99319b)" style="fill: #bdbdbd; opacity: 0.6"/>
   </g>
   <g id="patch_24">
    <path d="M 1037.018334 143.345714 
L 1059.493477 143.345714 
L 1059.493477 85.717143 
L 1037.018334 85.717143 
z
" clip-path="url(#p271c99319b)" style="fill: #bdbdbd; opacity: 0.6"/>
   </g>
   <g id="patch_25">
    <path d="M 1037.018334 200.974286 
L 1059.493477 200.974286 
L 1059.493477 143.345714 
L 1037.018334 143.345714 
z
" clip-path="url(#p271c99319b)" style="fill: #bdbdbd; opacity: 0.6"/>
   </g>
   <g id="patch_26">
    <path d="M 1037.018334 258.602857 
L 1059.493477 258.602857 
L 1059.493477 200.974286 
L 1037.018334 200.974286 
z
" clip-path="url(#p271c99319b)" style="fill: #bdbdbd; opacity: 0.6"/>
   </g>
   <g id="patch_27">
    <path d="M 1037.018334 316.231429 
L 1059.493477 316.231429 
L 1059.493477 258.602857 
L 1037.018334 258.602857 
z
" clip-path="url(#p271c99319b)" style="fill: #bdbdbd; opacity: 0.6"/>
   </g>
   <g id="patch_28">
    <path d="M 1037.018334 373.86 
L 1059.493477 373.86 
L 1059.493477 316.231429 
L 1037.018334 316.231429 
z
" clip-path="url(#p271c99319b)" style="fill: #bdbdbd; opacity: 0.6"/>
   </g>
   <g id="patch_29">
    <path d="M 1037.018334 431.488571 
L 1059.493477 431.488571 
L 1059.493477 373.86 
L 1037.018334 373.86 
z
" clip-path="url(#p271c99319b)" style="fill: #bdbdbd; opacity: 0.6"/>
   </g>
   <g id="line2d_21">
    <path d="M 106.605048 466.065714 
L 112.367905 454.54 
" clip-path="url(#p271c99319b)" style="fill: none; stroke: #778899; stroke-width: 1.5; stroke-linecap: square"/>
   </g>
   <g id="patch_30">
    <path d="M 119.655038 75.632143 
L 190.371058 75.632143 
L 190.371058 38.173571 
L 119.655038 38.173571 
z
" clip-path="url(#p271c99319b)" style="fill: #bb8bff; stroke: #bb8bff; stroke-width: 1.5; stroke-linejoin: miter"/>
   </g>
   <g id="patch_31">
    <path d="M 136.283763 306.146429 
L 173.742334 306.146429 
L 173.742334 268.687857 
L 136.283763 268.687857 
z
" clip-path="url(#p271c99319b)" style="fill: #6fa4ff; stroke: #6fa4ff; stroke-width: 1.5; stroke-linejoin: miter"/>
   </g>
   <g id="patch_32">
    <path d="M 136.283763 363.775 
L 173.742334 363.775 
L 173.742334 326.316429 
L 136.283763 326.316429 
z
" clip-path="url(#p271c99319b)" style="fill: #6fa4ff; stroke: #6fa4ff; stroke-width: 1.5; stroke-linejoin: miter"/>
   </g>
   <g id="patch_33">
    <path d="M 136.283763 421.403571 
L 173.742334 421.403571 
L 173.742334 383.945 
L 136.283763 383.945 
z
" clip-path="url(#p271c99319b)" style="fill: #6fa4ff; stroke: #6fa4ff; stroke-width: 1.5; stroke-linejoin: miter"/>
   </g>
   <g id="patch_34">
    <path d="M 241.455905 62.521643 
C 242.946025 62.521643 244.375313 61.929612 245.428987 60.875939 
C 246.48266 59.822265 247.074691 58.392977 247.074691 56.902857 
C 247.074691 55.412738 246.48266 53.983449 245.428987 52.929776 
C 244.375313 51.876102 242.946025 51.284071 241.455905 51.284071 
C 239.965786 51.284071 238.536497 51.876102 237.482824 52.929776 
C 236.42915 53.983449 235.83712 55.412738 235.83712 56.902857 
C 235.83712 58.392977 236.42915 59.822265 237.482824 60.875939 
C 238.536497 61.929612 239.965786 62.521643 241.455905 62.521643 
z
" clip-path="url(#p271c99319b)" style="fill: #6fa4ff; stroke: #6fa4ff; stroke-width: 1.5; stroke-linejoin: miter"/>
   </g>
   <g id="patch_35">
    <path d="M 241.455905 127.641929 
C 244.932851 127.641929 248.267857 126.260524 250.726429 123.801952 
C 253.185 121.34338 254.566405 118.008374 254.566405 114.531429 
C 254.566405 111.054483 253.185 107.719477 250.726429 105.260905 
C 248.267857 102.802334 244.932851 101.420929 241.455905 101.420929 
C 237.97896 101.420929 234.643954 102.802334 232.185382 105.260905 
C 229.72681 107.719477 228.345405 111.054483 228.345405 114.531429 
C 228.345405 118.008374 229.72681 121.34338 232.185382 123.801952 
C 234.643954 126.260524 237.97896 127.641929 241.455905 127.641929 
z
" clip-path="url(#p271c99319b)" style="fill: #6fa4ff; stroke: #6fa4ff; stroke-width: 2; stroke-linejoin: miter"/>
   </g>
   <g id="patch_36">
    <path d="M 299.084477 62.521643 
C 300.574596 62.521643 302.003885 61.929612 303.057558 60.875939 
C 304.111232 59.822265 304.703263 58.392977 304.703263 56.902857 
C 304.703263 55.412738 304.111232 53.983449 303.057558 52.929776 
C 302.003885 51.876102 300.574596 51.284071 299.084477 51.284071 
C 297.594357 51.284071 296.165069 51.876102 295.111395 52.929776 
C 294.057722 53.983449 293.465691 55.412738 293.465691 56.902857 
C 293.465691 58.392977 294.057722 59.822265 295.111395 60.875939 
C 296.165069 61.929612 297.594357 62.521643 299.084477 62.521643 
z
" clip-path="url(#p271c99319b)" style="fill: #6fa4ff; stroke: #6fa4ff; stroke-width: 1.5; stroke-linejoin: miter"/>
   </g>
   <g id="patch_37">
    <path d="M 299.084477 185.2705 
C 302.561422 185.2705 305.896429 183.889095 308.355 181.430523 
C 310.813572 178.971952 312.194977 175.636945 312.194977 172.16 
C 312.194977 168.683055 310.813572 165.348048 308.355 162.889477 
C 305.896429 160.430905 302.561422 159.0495 299.084477 159.0495 
C 295.607532 159.0495 292.272525 160.430905 289.813953 162.889477 
C 287.355382 165.348048 285.973977 168.683055 285.973977 172.16 
C 285.973977 175.636945 287.355382 178.971952 289.813953 181.430523 
C 292.272525 183.889095 295.607532 185.2705 299.084477 185.2705 
z
" clip-path="url(#p271c99319b)" style="fill: #6fa4ff; stroke: #6fa4ff; stroke-width: 2; stroke-linejoin: miter"/>
   </g>
   <g id="patch_38">
    <path d="M 414.34162 408.293071 
C 415.831739 408.293071 417.261028 407.701041 418.314701 406.647367 
C 419.368375 405.593694 419.960405 404.164405 419.960405 402.674286 
C 419.960405 401.184166 419.368375 399.754878 418.314701 398.701204 
C 417.261028 397.647531 415.831739 397.0555 414.34162 397.0555 
C 412.8515 397.0555 411.422212 397.647531 410.368538 398.701204 
C 409.314865 399.754878 408.722834 401.184166 408.722834 402.674286 
C 408.722834 404.164405 409.314865 405.593694 410.368538 406.647367 
C 411.422212 407.701041 412.8515 408.293071 414.34162 408.293071 
z
" clip-path="url(#p271c99319b)" style="fill: #6fa4ff; stroke: #6fa4ff; stroke-width: 1.5; stroke-linejoin: miter"/>
   </g>
   <g id="patch_39">
    <path d="M 414.34162 70.013357 
C 417.818565 70.013357 421.153572 68.631952 423.612143 66.173381 
C 426.070715 63.714809 427.45212 60.379802 427.45212 56.902857 
C 427.45212 53.425912 426.070715 50.090905 423.612143 47.632334 
C 421.153572 45.173762 417.818565 43.792357 414.34162 43.792357 
C 410.864674 43.792357 407.529668 45.173762 405.071096 47.632334 
C 402.612525 50.090905 401.23112 53.425912 401.23112 56.902857 
C 401.23112 60.379802 402.612525 63.714809 405.071096 66.173381 
C 407.529668 68.631952 410.864674 70.013357 414.34162 70.013357 
z
" clip-path="url(#p271c99319b)" style="fill: #6fa4ff; stroke: #6fa4ff; stroke-width: 2; stroke-linejoin: miter"/>
   </g>
   <g id="patch_40">
    <path d="M 471.970191 408.293071 
C 473.460311 408.293071 474.889599 407.701041 475.943273 406.647367 
C 476.996946 405.593694 477.588977 404.164405 477.588977 402.674286 
C 477.588977 401.184166 476.996946 399.754878 475.943273 398.701204 
C 474.889599 397.647531 473.460311 397.0555 471.970191 397.0555 
C 470.480072 397.0555 469.050783 397.647531 467.99711 398.701204 
C 466.943436 399.754878 466.351405 401.184166 466.351405 402.674286 
C 466.351405 404.164405 466.943436 405.593694 467.99711 406.647367 
C 469.050783 407.701041 470.480072 408.293071 471.970191 408.293071 
z
" clip-path="url(#p271c99319b)" style="fill: #6fa4ff; stroke: #6fa4ff; stroke-width: 1.5; stroke-linejoin: miter"/>
   </g>
   <g id="patch_41">
    <path d="M 471.970191 127.641929 
C 475.447136 127.641929 478.782143 126.260524 481.240715 123.801952 
C 483.699286 121.34338 485.080691 118.008374 485.080691 114.531429 
C 485.080691 111.054483 483.699286 107.719477 481.240715 105.260905 
C 478.782143 102.802334 475.447136 101.420929 471.970191 101.420929 
C 468.493246 101.420929 465.158239 102.802334 462.699668 105.260905 
C 460.241096 107.719477 458.859691 111.054483 458.859691 114.531429 
C 458.859691 118.008374 460.241096 121.34338 462.699668 123.801952 
C 465.158239 126.260524 468.493246 127.641929 471.970191 127.641929 
z
" clip-path="url(#p271c99319b)" style="fill: #6fa4ff; stroke: #6fa4ff; stroke-width: 2; stroke-linejoin: miter"/>
   </g>
   <g id="patch_42">
    <path d="M 529.598763 408.293071 
C 531.088882 408.293071 532.518171 407.701041 533.571844 406.647367 
C 534.625518 405.593694 535.217548 404.164405 535.217548 402.674286 
C 535.217548 401.184166 534.625518 399.754878 533.571844 398.701204 
C 532.518171 397.647531 531.088882 397.0555 529.598763 397.0555 
C 528.108643 397.0555 526.679355 397.647531 525.625681 398.701204 
C 524.572008 399.754878 523.979977 401.184166 523.979977 402.674286 
C 523.979977 404.164405 524.572008 405.593694 525.625681 406.647367 
C 526.679355 407.701041 528.108643 408.293071 529.598763 408.293071 
z
" clip-path="url(#p271c99319b)" style="fill: #6fa4ff; stroke: #6fa4ff; stroke-width: 1.5; stroke-linejoin: miter"/>
   </g>
   <g id="patch_43">
    <path d="M 529.598763 242.899071 
C 533.075708 242.899071 536.410714 241.517666 538.869286 239.059095 
C 541.327858 236.600523 542.709263 233.265517 542.709263 229.788571 
C 542.709263 226.311626 541.327858 222.97662 538.869286 220.518048 
C 536.410714 218.059476 533.075708 216.678071 529.598763 216.678071 
C 526.121817 216.678071 522.786811 218.059476 520.328239 220.518048 
C 517.869668 222.97662 516.488263 226.311626 516.488263 229.788571 
C 516.488263 233.265517 517.869668 236.600523 520.328239 239.059095 
C 522.786811 241.517666 526.121817 242.899071 529.598763 242.899071 
z
" clip-path="url(#p271c99319b)" style="fill: #6fa4ff; stroke: #6fa4ff; stroke-width: 2; stroke-linejoin: miter"/>
   </g>
   <g id="patch_44">
    <path d="M 644.855905 350.6645 
C 646.346025 350.6645 647.775313 350.072469 648.828987 349.018796 
C 649.88266 347.965122 650.474691 346.535834 650.474691 345.045714 
C 650.474691 343.555595 649.88266 342.126306 648.828987 341.072633 
C 647.775313 340.018959 646.346025 339.426929 644.855905 339.426929 
C 643.365786 339.426929 641.936497 340.018959 640.882824 341.072633 
C 639.82915 342.126306 639.23712 343.555595 639.23712 345.045714 
C 639.23712 346.535834 639.82915 347.965122 640.882824 349.018796 
C 641.936497 350.072469 643.365786 350.6645 644.855905 350.6645 
z
" clip-path="url(#p271c99319b)" style="fill: #6fa4ff; stroke: #6fa4ff; stroke-width: 1.5; stroke-linejoin: miter"/>
   </g>
   <g id="patch_45">
    <path d="M 644.855905 70.013357 
C 648.332851 70.013357 651.667857 68.631952 654.126429 66.173381 
C 656.585 63.714809 657.966405 60.379802 657.966405 56.902857 
C 657.966405 53.425912 656.585 50.090905 654.126429 47.632334 
C 651.667857 45.173762 648.332851 43.792357 644.855905 43.792357 
C 641.37896 43.792357 638.043954 45.173762 635.585382 47.632334 
C 633.12681 50.090905 631.745405 53.425912 631.745405 56.902857 
C 631.745405 60.379802 633.12681 63.714809 635.585382 66.173381 
C 638.043954 68.631952 641.37896 70.013357 644.855905 70.013357 
z
" clip-path="url(#p271c99319b)" style="fill: #6fa4ff; stroke: #6fa4ff; stroke-width: 2; stroke-linejoin: miter"/>
   </g>
   <g id="patch_46">
    <path d="M 702.484477 350.6645 
C 703.974596 350.6645 705.403885 350.072469 706.457558 349.018796 
C 707.511232 347.965122 708.103263 346.535834 708.103263 345.045714 
C 708.103263 343.555595 707.511232 342.126306 706.457558 341.072633 
C 705.403885 340.018959 703.974596 339.426929 702.484477 339.426929 
C 700.994357 339.426929 699.565069 340.018959 698.511395 341.072633 
C 697.457722 342.126306 696.865691 343.555595 696.865691 345.045714 
C 696.865691 346.535834 697.457722 347.965122 698.511395 349.018796 
C 699.565069 350.072469 700.994357 350.6645 702.484477 350.6645 
z
" clip-path="url(#p271c99319b)" style="fill: #6fa4ff; stroke: #6fa4ff; stroke-width: 1.5; stroke-linejoin: miter"/>
   </g>
   <g id="patch_47">
    <path d="M 702.484477 185.2705 
C 705.961422 185.2705 709.296429 183.889095 711.755 181.430523 
C 714.213572 178.971952 715.594977 175.636945 715.594977 172.16 
C 715.594977 168.683055 714.213572 165.348048 711.755 162.889477 
C 709.296429 160.430905 705.961422 159.0495 702.484477 159.0495 
C 699.007532 159.0495 695.672525 160.430905 693.213953 162.889477 
C 690.755382 165.348048 689.373977 168.683055 689.373977 172.16 
C 689.373977 175.636945 690.755382 178.971952 693.213953 181.430523 
C 695.672525 183.889095 699.007532 185.2705 702.484477 185.2705 
z
" clip-path="url(#p271c99319b)" style="fill: #6fa4ff; stroke: #6fa4ff; stroke-width: 2; stroke-linejoin: miter"/>
   </g>
   <g id="patch_48">
    <path d="M 760.113048 350.6645 
C 761.603168 350.6645 763.032456 350.072469 764.08613 349.018796 
C 765.139803 347.965122 765.731834 346.535834 765.731834 345.045714 
C 765.731834 343.555595 765.139803 342.126306 764.08613 341.072633 
C 763.032456 340.018959 761.603168 339.426929 760.113048 339.426929 
C 758.622929 339.426929 757.19364 340.018959 756.139967 341.072633 
C 755.086293 342.126306 754.494263 343.555595 754.494263 345.045714 
C 754.494263 346.535834 755.086293 347.965122 756.139967 349.018796 
C 757.19364 350.072469 758.622929 350.6645 760.113048 350.6645 
z
" clip-path="url(#p271c99319b)" style="fill: #6fa4ff; stroke: #6fa4ff; stroke-width: 1.5; stroke-linejoin: miter"/>
   </g>
   <g id="patch_49">
    <path d="M 760.113048 242.899071 
C 763.589994 242.899071 766.925 241.517666 769.383572 239.059095 
C 771.842143 236.600523 773.223548 233.265517 773.223548 229.788571 
C 773.223548 226.311626 771.842143 222.97662 769.383572 220.518048 
C 766.925 218.059476 763.589994 216.678071 760.113048 216.678071 
C 756.636103 216.678071 753.301096 218.059476 750.842525 220.518048 
C 748.383953 222.97662 747.002548 226.311626 747.002548 229.788571 
C 747.002548 233.265517 748.383953 236.600523 750.842525 239.059095 
C 753.301096 241.517666 756.636103 242.899071 760.113048 242.899071 
z
" clip-path="url(#p271c99319b)" style="fill: #6fa4ff; stroke: #6fa4ff; stroke-width: 2; stroke-linejoin: miter"/>
   </g>
   <g id="patch_50">
    <path d="M 875.370191 293.035929 
C 876.860311 293.035929 878.289599 292.443898 879.343273 291.390224 
C 880.396946 290.336551 880.988977 288.907262 880.988977 287.417143 
C 880.988977 285.927023 880.396946 284.497735 879.343273 283.444061 
C 878.289599 282.390388 876.860311 281.798357 875.370191 281.798357 
C 873.880072 281.798357 872.450783 282.390388 871.39711 283.444061 
C 870.343436 284.497735 869.751405 285.927023 869.751405 287.417143 
C 869.751405 288.907262 870.343436 290.336551 871.39711 291.390224 
C 872.450783 292.443898 873.880072 293.035929 875.370191 293.035929 
z
" clip-path="url(#p271c99319b)" style="fill: #6fa4ff; stroke: #6fa4ff; stroke-width: 1.5; stroke-linejoin: miter"/>
   </g>
   <g id="patch_51">
    <path d="M 875.370191 127.641929 
C 878.847136 127.641929 882.182143 126.260524 884.640715 123.801952 
C 887.099286 121.34338 888.480691 118.008374 888.480691 114.531429 
C 888.480691 111.054483 887.099286 107.719477 884.640715 105.260905 
C 882.182143 102.802334 878.847136 101.420929 875.370191 101.420929 
C 871.893246 101.420929 868.558239 102.802334 866.099668 105.260905 
C 863.641096 107.719477 862.259691 111.054483 862.259691 114.531429 
C 862.259691 118.008374 863.641096 121.34338 866.099668 123.801952 
C 868.558239 126.260524 871.893246 127.641929 875.370191 127.641929 
z
" clip-path="url(#p271c99319b)" style="fill: #6fa4ff; stroke: #6fa4ff; stroke-width: 2; stroke-linejoin: miter"/>
   </g>
   <g id="patch_52">
    <path d="M 932.998763 293.035929 
C 934.488882 293.035929 935.918171 292.443898 936.971844 291.390224 
C 938.025518 290.336551 938.617548 288.907262 938.617548 287.417143 
C 938.617548 285.927023 938.025518 284.497735 936.971844 283.444061 
C 935.918171 282.390388 934.488882 281.798357 932.998763 281.798357 
C 931.508643 281.798357 930.079355 282.390388 929.025681 283.444061 
C 927.972008 284.497735 927.379977 285.927023 927.379977 287.417143 
C 927.379977 288.907262 927.972008 290.336551 929.025681 291.390224 
C 930.079355 292.443898 931.508643 293.035929 932.998763 293.035929 
z
" clip-path="url(#p271c99319b)" style="fill: #6fa4ff; stroke: #6fa4ff; stroke-width: 1.5; stroke-linejoin: miter"/>
   </g>
   <g id="patch_53">
    <path d="M 932.998763 185.2705 
C 936.475708 185.2705 939.810714 183.889095 942.269286 181.430523 
C 944.727858 178.971952 946.109263 175.636945 946.109263 172.16 
C 946.109263 168.683055 944.727858 165.348048 942.269286 162.889477 
C 939.810714 160.430905 936.475708 159.0495 932.998763 159.0495 
C 929.521817 159.0495 926.186811 160.430905 923.728239 162.889477 
C 921.269668 165.348048 919.888263 168.683055 919.888263 172.16 
C 919.888263 175.636945 921.269668 178.971952 923.728239 181.430523 
C 926.186811 183.889095 929.521817 185.2705 932.998763 185.2705 
z
" clip-path="url(#p271c99319b)" style="fill: #6fa4ff; stroke: #6fa4ff; stroke-width: 2; stroke-linejoin: miter"/>
   </g>
   <g id="patch_54">
    <path d="M 990.627334 293.035929 
C 992.117453 293.035929 993.546742 292.443898 994.600415 291.390224 
C 995.654089 290.336551 996.24612 288.907262 996.24612 287.417143 
C 996.24612 285.927023 995.654089 284.497735 994.600415 283.444061 
C 993.546742 282.390388 992.117453 281.798357 990.627334 281.798357 
C 989.137215 281.798357 987.707926 282.390388 986.654253 283.444061 
C 985.600579 284.497735 985.008548 285.927023 985.008548 287.417143 
C 985.008548 288.907262 985.600579 290.336551 986.654253 291.390224 
C 987.707926 292.443898 989.137215 293.035929 990.627334 293.035929 
z
" clip-path="url(#p271c99319b)" style="fill: #6fa4ff; stroke: #6fa4ff; stroke-width: 1.5; stroke-linejoin: miter"/>
   </g>
   <g id="patch_55">
    <path d="M 990.627334 242.899071 
C 994.104279 242.899071 997.439286 241.517666 999.897857 239.059095 
C 1002.356429 236.600523 1003.737834 233.265517 1003.737834 229.788571 
C 1003.737834 226.311626 1002.356429 222.97662 999.897857 220.518048 
C 997.439286 218.059476 994.104279 216.678071 990.627334 216.678071 
C 987.150389 216.678071 983.815382 218.059476 981.356811 220.518048 
C 978.898239 222.97662 977.516834 226.311626 977.516834 229.788571 
C 977.516834 233.265517 978.898239 236.600523 981.356811 239.059095 
C 983.815382 241.517666 987.150389 242.899071 990.627334 242.899071 
z
" clip-path="url(#p271c99319b)" style="fill: #6fa4ff; stroke: #6fa4ff; stroke-width: 2; stroke-linejoin: miter"/>
   </g>
   <g id="text_1">
    <g clip-path="url(#p271c99319b)">
     <!-- circuit-0 -->
     <g transform="translate(128.579376 60.490045) scale(0.13 -0.13)">
      <defs>
       <path id="DejaVuSans-63" d="M 3122 3366 
L 3122 2828 
Q 2878 2963 2633 3030 
Q 2388 3097 2138 3097 
Q 1578 3097 1268 2742 
Q 959 2388 959 1747 
Q 959 1106 1268 751 
Q 1578 397 2138 397 
Q 2388 397 2633 464 
Q 2878 531 3122 666 
L 3122 134 
Q 2881 22 2623 -34 
Q 2366 -91 2075 -91 
Q 1284 -91 818 406 
Q 353 903 353 1747 
Q 353 2603 823 3093 
Q 1294 3584 2113 3584 
Q 2378 3584 2631 3529 
Q 2884 3475 3122 3366 
z
" transform="scale(0.015625)"/>
       <path id="DejaVuSans-69" d="M 603 3500 
L 1178 3500 
L 1178 0 
L 603 0 
L 603 3500 
z
M 603 4863 
L 1178 4863 
L 1178 4134 
L 603 4134 
L 603 4863 
z
" transform="scale(0.015625)"/>
       <path id="DejaVuSans-72" d="M 2631 2963 
Q 2534 3019 2420 3045 
Q 2306 3072 2169 3072 
Q 1681 3072 1420 2755 
Q 1159 2438 1159 1844 
L 1159 0 
L 581 0 
L 581 3500 
L 1159 3500 
L 1159 2956 
Q 1341 3275 1631 3429 
Q 1922 3584 2338 3584 
Q 2397 3584 2469 3576 
Q 2541 3569 2628 3553 
L 2631 2963 
z
" transform="scale(0.015625)"/>
       <path id="DejaVuSans-75" d="M 544 1381 
L 544 3500 
L 1119 3500 
L 1119 1403 
Q 1119 906 1312 657 
Q 1506 409 1894 409 
Q 2359 409 2629 706 
Q 2900 1003 2900 1516 
L 2900 3500 
L 3475 3500 
L 3475 0 
L 2900 0 
L 2900 538 
Q 2691 219 2414 64 
Q 2138 -91 1772 -91 
Q 1169 -91 856 284 
Q 544 659 544 1381 
z
M 1991 3584 
L 1991 3584 
z
" transform="scale(0.015625)"/>
       <path id="DejaVuSans-74" d="M 1172 4494 
L 1172 3500 
L 2356 3500 
L 2356 3053 
L 1172 3053 
L 1172 1153 
Q 1172 725 1289 603 
Q 1406 481 1766 481 
L 2356 481 
L 2356 0 
L 1766 0 
Q 1100 0 847 248 
Q 594 497 594 1153 
L 594 3053 
L 172 3053 
L 172 3500 
L 594 3500 
L 594 4494 
L 1172 4494 
z
" transform="scale(0.015625)"/>
       <path id="DejaVuSans-2d" d="M 313 2009 
L 1997 2009 
L 1997 1497 
L 313 1497 
L 313 2009 
z
" transform="scale(0.015625)"/>
       <path id="DejaVuSans-30" d="M 2034 4250 
Q 1547 4250 1301 3770 
Q 1056 3291 1056 2328 
Q 1056 1369 1301 889 
Q 1547 409 2034 409 
Q 2525 409 2770 889 
Q 3016 1369 3016 2328 
Q 3016 3291 2770 3770 
Q 2525 4250 2034 4250 
z
M 2034 4750 
Q 2819 4750 3233 4129 
Q 3647 3509 3647 2328 
Q 3647 1150 3233 529 
Q 2819 -91 2034 -91 
Q 1250 -91 836 529 
Q 422 1150 422 2328 
Q 422 3509 836 4129 
Q 1250 4750 2034 4750 
z
" transform="scale(0.015625)"/>
      </defs>
      <use xlink:href="#DejaVuSans-63"/>
      <use xlink:href="#DejaVuSans-69" x="54.980469"/>
      <use xlink:href="#DejaVuSans-72" x="82.763672"/>
      <use xlink:href="#DejaVuSans-63" x="121.626953"/>
      <use xlink:href="#DejaVuSans-75" x="176.607422"/>
      <use xlink:href="#DejaVuSans-69" x="239.986328"/>
      <use xlink:href="#DejaVuSans-74" x="267.769531"/>
      <use xlink:href="#DejaVuSans-2d" x="306.978516"/>
      <use xlink:href="#DejaVuSans-30" x="343.0625"/>
     </g>
    </g>
   </g>
   <g id="text_2">
    <g clip-path="url(#p271c99319b)">
     <!-- H -->
     <g transform="translate(150.124845 291.00433) scale(0.13 -0.13)">
      <defs>
       <path id="DejaVuSans-48" d="M 628 4666 
L 1259 4666 
L 1259 2753 
L 3553 2753 
L 3553 4666 
L 4184 4666 
L 4184 0 
L 3553 0 
L 3553 2222 
L 1259 2222 
L 1259 0 
L 628 0 
L 628 4666 
z
" transform="scale(0.015625)"/>
      </defs>
      <use xlink:href="#DejaVuSans-48"/>
     </g>
    </g>
   </g>
   <g id="text_3">
    <g clip-path="url(#p271c99319b)">
     <!-- H -->
     <g transform="translate(150.124845 348.632902) scale(0.13 -0.13)">
      <use xlink:href="#DejaVuSans-48"/>
     </g>
    </g>
   </g>
   <g id="text_4">
    <g clip-path="url(#p271c99319b)">
     <!-- H -->
     <g transform="translate(150.124845 406.261473) scale(0.13 -0.13)">
      <use xlink:href="#DejaVuSans-48"/>
     </g>
    </g>
   </g>
   <g id="line2d_22">
    <path d="M 241.455905 122.023143 
L 241.455905 107.039714 
" clip-path="url(#p271c99319b)" style="fill: none; stroke: #ffffff; stroke-width: 2; stroke-linecap: square"/>
   </g>
   <g id="line2d_23">
    <path d="M 233.964191 114.531429 
L 248.94762 114.531429 
" clip-path="url(#p271c99319b)" style="fill: none; stroke: #ffffff; stroke-width: 2; stroke-linecap: square"/>
   </g>
   <g id="line2d_24">
    <path d="M 299.084477 179.651714 
L 299.084477 164.668286 
" clip-path="url(#p271c99319b)" style="fill: none; stroke: #ffffff; stroke-width: 2; stroke-linecap: square"/>
   </g>
   <g id="line2d_25">
    <path d="M 291.592763 172.16 
L 306.576191 172.16 
" clip-path="url(#p271c99319b)" style="fill: none; stroke: #ffffff; stroke-width: 2; stroke-linecap: square"/>
   </g>
   <g id="line2d_26">
    <path d="M 356.713048 28.088571 
L 356.713048 85.717143 
" clip-path="url(#p271c99319b)" style="fill: none; stroke-dasharray: 3.7,1.6; stroke-dashoffset: 0; stroke: #000000"/>
   </g>
   <g id="line2d_27">
    <path d="M 356.713048 85.717143 
L 356.713048 143.345714 
" clip-path="url(#p271c99319b)" style="fill: none; stroke-dasharray: 3.7,1.6; stroke-dashoffset: 0; stroke: #000000"/>
   </g>
   <g id="line2d_28">
    <path d="M 356.713048 143.345714 
L 356.713048 200.974286 
" clip-path="url(#p271c99319b)" style="fill: none; stroke-dasharray: 3.7,1.6; stroke-dashoffset: 0; stroke: #000000"/>
   </g>
   <g id="line2d_29">
    <path d="M 356.713048 200.974286 
L 356.713048 258.602857 
" clip-path="url(#p271c99319b)" style="fill: none; stroke-dasharray: 3.7,1.6; stroke-dashoffset: 0; stroke: #000000"/>
   </g>
   <g id="line2d_30">
    <path d="M 356.713048 258.602857 
L 356.713048 316.231429 
" clip-path="url(#p271c99319b)" style="fill: none; stroke-dasharray: 3.7,1.6; stroke-dashoffset: 0; stroke: #000000"/>
   </g>
   <g id="line2d_31">
    <path d="M 356.713048 316.231429 
L 356.713048 373.86 
" clip-path="url(#p271c99319b)" style="fill: none; stroke-dasharray: 3.7,1.6; stroke-dashoffset: 0; stroke: #000000"/>
   </g>
   <g id="line2d_32">
    <path d="M 356.713048 373.86 
L 356.713048 431.488571 
" clip-path="url(#p271c99319b)" style="fill: none; stroke-dasharray: 3.7,1.6; stroke-dashoffset: 0; stroke: #000000"/>
   </g>
   <g id="line2d_33">
    <path d="M 414.34162 64.394571 
L 414.34162 49.411143 
" clip-path="url(#p271c99319b)" style="fill: none; stroke: #ffffff; stroke-width: 2; stroke-linecap: square"/>
   </g>
   <g id="line2d_34">
    <path d="M 406.849905 56.902857 
L 421.833334 56.902857 
" clip-path="url(#p271c99319b)" style="fill: none; stroke: #ffffff; stroke-width: 2; stroke-linecap: square"/>
   </g>
   <g id="line2d_35">
    <path d="M 471.970191 122.023143 
L 471.970191 107.039714 
" clip-path="url(#p271c99319b)" style="fill: none; stroke: #ffffff; stroke-width: 2; stroke-linecap: square"/>
   </g>
   <g id="line2d_36">
    <path d="M 464.478477 114.531429 
L 479.461905 114.531429 
" clip-path="url(#p271c99319b)" style="fill: none; stroke: #ffffff; stroke-width: 2; stroke-linecap: square"/>
   </g>
   <g id="line2d_37">
    <path d="M 529.598763 237.280286 
L 529.598763 222.296857 
" clip-path="url(#p271c99319b)" style="fill: none; stroke: #ffffff; stroke-width: 2; stroke-linecap: square"/>
   </g>
   <g id="line2d_38">
    <path d="M 522.107048 229.788571 
L 537.090477 229.788571 
" clip-path="url(#p271c99319b)" style="fill: none; stroke: #ffffff; stroke-width: 2; stroke-linecap: square"/>
   </g>
   <g id="line2d_39">
    <path d="M 587.227334 28.088571 
L 587.227334 85.717143 
" clip-path="url(#p271c99319b)" style="fill: none; stroke-dasharray: 3.7,1.6; stroke-dashoffset: 0; stroke: #000000"/>
   </g>
   <g id="line2d_40">
    <path d="M 587.227334 85.717143 
L 587.227334 143.345714 
" clip-path="url(#p271c99319b)" style="fill: none; stroke-dasharray: 3.7,1.6; stroke-dashoffset: 0; stroke: #000000"/>
   </g>
   <g id="line2d_41">
    <path d="M 587.227334 143.345714 
L 587.227334 200.974286 
" clip-path="url(#p271c99319b)" style="fill: none; stroke-dasharray: 3.7,1.6; stroke-dashoffset: 0; stroke: #000000"/>
   </g>
   <g id="line2d_42">
    <path d="M 587.227334 200.974286 
L 587.227334 258.602857 
" clip-path="url(#p271c99319b)" style="fill: none; stroke-dasharray: 3.7,1.6; stroke-dashoffset: 0; stroke: #000000"/>
   </g>
   <g id="line2d_43">
    <path d="M 587.227334 258.602857 
L 587.227334 316.231429 
" clip-path="url(#p271c99319b)" style="fill: none; stroke-dasharray: 3.7,1.6; stroke-dashoffset: 0; stroke: #000000"/>
   </g>
   <g id="line2d_44">
    <path d="M 587.227334 316.231429 
L 587.227334 373.86 
" clip-path="url(#p271c99319b)" style="fill: none; stroke-dasharray: 3.7,1.6; stroke-dashoffset: 0; stroke: #000000"/>
   </g>
   <g id="line2d_45">
    <path d="M 587.227334 373.86 
L 587.227334 431.488571 
" clip-path="url(#p271c99319b)" style="fill: none; stroke-dasharray: 3.7,1.6; stroke-dashoffset: 0; stroke: #000000"/>
   </g>
   <g id="line2d_46">
    <path d="M 644.855905 64.394571 
L 644.855905 49.411143 
" clip-path="url(#p271c99319b)" style="fill: none; stroke: #ffffff; stroke-width: 2; stroke-linecap: square"/>
   </g>
   <g id="line2d_47">
    <path d="M 637.364191 56.902857 
L 652.34762 56.902857 
" clip-path="url(#p271c99319b)" style="fill: none; stroke: #ffffff; stroke-width: 2; stroke-linecap: square"/>
   </g>
   <g id="line2d_48">
    <path d="M 702.484477 179.651714 
L 702.484477 164.668286 
" clip-path="url(#p271c99319b)" style="fill: none; stroke: #ffffff; stroke-width: 2; stroke-linecap: square"/>
   </g>
   <g id="line2d_49">
    <path d="M 694.992763 172.16 
L 709.976191 172.16 
" clip-path="url(#p271c99319b)" style="fill: none; stroke: #ffffff; stroke-width: 2; stroke-linecap: square"/>
   </g>
   <g id="line2d_50">
    <path d="M 760.113048 237.280286 
L 760.113048 222.296857 
" clip-path="url(#p271c99319b)" style="fill: none; stroke: #ffffff; stroke-width: 2; stroke-linecap: square"/>
   </g>
   <g id="line2d_51">
    <path d="M 752.621334 229.788571 
L 767.604763 229.788571 
" clip-path="url(#p271c99319b)" style="fill: none; stroke: #ffffff; stroke-width: 2; stroke-linecap: square"/>
   </g>
   <g id="line2d_52">
    <path d="M 817.74162 28.088571 
L 817.74162 85.717143 
" clip-path="url(#p271c99319b)" style="fill: none; stroke-dasharray: 3.7,1.6; stroke-dashoffset: 0; stroke: #000000"/>
   </g>
   <g id="line2d_53">
    <path d="M 817.74162 85.717143 
L 817.74162 143.345714 
" clip-path="url(#p271c99319b)" style="fill: none; stroke-dasharray: 3.7,1.6; stroke-dashoffset: 0; stroke: #000000"/>
   </g>
   <g id="line2d_54">
    <path d="M 817.74162 143.345714 
L 817.74162 200.974286 
" clip-path="url(#p271c99319b)" style="fill: none; stroke-dasharray: 3.7,1.6; stroke-dashoffset: 0; stroke: #000000"/>
   </g>
   <g id="line2d_55">
    <path d="M 817.74162 200.974286 
L 817.74162 258.602857 
" clip-path="url(#p271c99319b)" style="fill: none; stroke-dasharray: 3.7,1.6; stroke-dashoffset: 0; stroke: #000000"/>
   </g>
   <g id="line2d_56">
    <path d="M 817.74162 258.602857 
L 817.74162 316.231429 
" clip-path="url(#p271c99319b)" style="fill: none; stroke-dasharray: 3.7,1.6; stroke-dashoffset: 0; stroke: #000000"/>
   </g>
   <g id="line2d_57">
    <path d="M 817.74162 316.231429 
L 817.74162 373.86 
" clip-path="url(#p271c99319b)" style="fill: none; stroke-dasharray: 3.7,1.6; stroke-dashoffset: 0; stroke: #000000"/>
   </g>
   <g id="line2d_58">
    <path d="M 817.74162 373.86 
L 817.74162 431.488571 
" clip-path="url(#p271c99319b)" style="fill: none; stroke-dasharray: 3.7,1.6; stroke-dashoffset: 0; stroke: #000000"/>
   </g>
   <g id="line2d_59">
    <path d="M 875.370191 122.023143 
L 875.370191 107.039714 
" clip-path="url(#p271c99319b)" style="fill: none; stroke: #ffffff; stroke-width: 2; stroke-linecap: square"/>
   </g>
   <g id="line2d_60">
    <path d="M 867.878477 114.531429 
L 882.861905 114.531429 
" clip-path="url(#p271c99319b)" style="fill: none; stroke: #ffffff; stroke-width: 2; stroke-linecap: square"/>
   </g>
   <g id="line2d_61">
    <path d="M 932.998763 179.651714 
L 932.998763 164.668286 
" clip-path="url(#p271c99319b)" style="fill: none; stroke: #ffffff; stroke-width: 2; stroke-linecap: square"/>
   </g>
   <g id="line2d_62">
    <path d="M 925.507048 172.16 
L 940.490477 172.16 
" clip-path="url(#p271c99319b)" style="fill: none; stroke: #ffffff; stroke-width: 2; stroke-linecap: square"/>
   </g>
   <g id="line2d_63">
    <path d="M 990.627334 237.280286 
L 990.627334 222.296857 
" clip-path="url(#p271c99319b)" style="fill: none; stroke: #ffffff; stroke-width: 2; stroke-linecap: square"/>
   </g>
   <g id="line2d_64">
    <path d="M 983.13562 229.788571 
L 998.119048 229.788571 
" clip-path="url(#p271c99319b)" style="fill: none; stroke: #ffffff; stroke-width: 2; stroke-linecap: square"/>
   </g>
   <g id="line2d_65">
    <path d="M 1048.255905 28.088571 
L 1048.255905 85.717143 
" clip-path="url(#p271c99319b)" style="fill: none; stroke-dasharray: 3.7,1.6; stroke-dashoffset: 0; stroke: #000000"/>
   </g>
   <g id="line2d_66">
    <path d="M 1048.255905 85.717143 
L 1048.255905 143.345714 
" clip-path="url(#p271c99319b)" style="fill: none; stroke-dasharray: 3.7,1.6; stroke-dashoffset: 0; stroke: #000000"/>
   </g>
   <g id="line2d_67">
    <path d="M 1048.255905 143.345714 
L 1048.255905 200.974286 
" clip-path="url(#p271c99319b)" style="fill: none; stroke-dasharray: 3.7,1.6; stroke-dashoffset: 0; stroke: #000000"/>
   </g>
   <g id="line2d_68">
    <path d="M 1048.255905 200.974286 
L 1048.255905 258.602857 
" clip-path="url(#p271c99319b)" style="fill: none; stroke-dasharray: 3.7,1.6; stroke-dashoffset: 0; stroke: #000000"/>
   </g>
   <g id="line2d_69">
    <path d="M 1048.255905 258.602857 
L 1048.255905 316.231429 
" clip-path="url(#p271c99319b)" style="fill: none; stroke-dasharray: 3.7,1.6; stroke-dashoffset: 0; stroke: #000000"/>
   </g>
   <g id="line2d_70">
    <path d="M 1048.255905 316.231429 
L 1048.255905 373.86 
" clip-path="url(#p271c99319b)" style="fill: none; stroke-dasharray: 3.7,1.6; stroke-dashoffset: 0; stroke: #000000"/>
   </g>
   <g id="line2d_71">
    <path d="M 1048.255905 373.86 
L 1048.255905 431.488571 
" clip-path="url(#p271c99319b)" style="fill: none; stroke-dasharray: 3.7,1.6; stroke-dashoffset: 0; stroke: #000000"/>
   </g>
   <g id="text_5">
    <g clip-path="url(#p271c99319b)">
     <!-- ${q}_{0}$ -->
     <g transform="translate(65.51612 61.353834) scale(0.1625 -0.1625)">
      <defs>
       <path id="DejaVuSans-Oblique-71" d="M 2669 525 
Q 2438 222 2123 65 
Q 1809 -91 1428 -91 
Q 897 -91 595 267 
Q 294 625 294 1253 
Q 294 1759 480 2231 
Q 666 2703 1013 3078 
Q 1238 3322 1530 3453 
Q 1822 3584 2144 3584 
Q 2531 3584 2781 3431 
Q 3031 3278 3144 2969 
L 3244 3494 
L 3822 3494 
L 2888 -1319 
L 2309 -1319 
L 2669 525 
z
M 891 1338 
Q 891 875 1084 633 
Q 1278 391 1644 391 
Q 2188 391 2572 911 
Q 2956 1431 2956 2175 
Q 2956 2625 2757 2864 
Q 2559 3103 2188 3103 
Q 1916 3103 1684 2976 
Q 1453 2850 1281 2606 
Q 1100 2350 995 2006 
Q 891 1663 891 1338 
z
" transform="scale(0.015625)"/>
      </defs>
      <use xlink:href="#DejaVuSans-Oblique-71"/>
      <use xlink:href="#DejaVuSans-30" transform="translate(63.476562 -16.40625) scale(0.7)"/>
     </g>
    </g>
   </g>
   <g id="text_6">
    <g clip-path="url(#p271c99319b)">
     <!-- ${q}_{1}$ -->
     <g transform="translate(65.51612 118.982405) scale(0.1625 -0.1625)">
      <defs>
       <path id="DejaVuSans-31" d="M 794 531 
L 1825 531 
L 1825 4091 
L 703 3866 
L 703 4441 
L 1819 4666 
L 2450 4666 
L 2450 531 
L 3481 531 
L 3481 0 
L 794 0 
L 794 531 
z
" transform="scale(0.015625)"/>
      </defs>
      <use xlink:href="#DejaVuSans-Oblique-71"/>
      <use xlink:href="#DejaVuSans-31" transform="translate(63.476562 -16.40625) scale(0.7)"/>
     </g>
    </g>
   </g>
   <g id="text_7">
    <g clip-path="url(#p271c99319b)">
     <!-- ${q}_{2}$ -->
     <g transform="translate(65.51612 176.610977) scale(0.1625 -0.1625)">
      <defs>
       <path id="DejaVuSans-32" d="M 1228 531 
L 3431 531 
L 3431 0 
L 469 0 
L 469 531 
Q 828 903 1448 1529 
Q 2069 2156 2228 2338 
Q 2531 2678 2651 2914 
Q 2772 3150 2772 3378 
Q 2772 3750 2511 3984 
Q 2250 4219 1831 4219 
Q 1534 4219 1204 4116 
Q 875 4013 500 3803 
L 500 4441 
Q 881 4594 1212 4672 
Q 1544 4750 1819 4750 
Q 2544 4750 2975 4387 
Q 3406 4025 3406 3419 
Q 3406 3131 3298 2873 
Q 3191 2616 2906 2266 
Q 2828 2175 2409 1742 
Q 1991 1309 1228 531 
z
" transform="scale(0.015625)"/>
      </defs>
      <use xlink:href="#DejaVuSans-Oblique-71"/>
      <use xlink:href="#DejaVuSans-32" transform="translate(63.476562 -16.40625) scale(0.7)"/>
     </g>
    </g>
   </g>
   <g id="text_8">
    <g clip-path="url(#p271c99319b)">
     <!-- ${q}_{3}$ -->
     <g transform="translate(65.51612 234.239548) scale(0.1625 -0.1625)">
      <defs>
       <path id="DejaVuSans-33" d="M 2597 2516 
Q 3050 2419 3304 2112 
Q 3559 1806 3559 1356 
Q 3559 666 3084 287 
Q 2609 -91 1734 -91 
Q 1441 -91 1130 -33 
Q 819 25 488 141 
L 488 750 
Q 750 597 1062 519 
Q 1375 441 1716 441 
Q 2309 441 2620 675 
Q 2931 909 2931 1356 
Q 2931 1769 2642 2001 
Q 2353 2234 1838 2234 
L 1294 2234 
L 1294 2753 
L 1863 2753 
Q 2328 2753 2575 2939 
Q 2822 3125 2822 3475 
Q 2822 3834 2567 4026 
Q 2313 4219 1838 4219 
Q 1578 4219 1281 4162 
Q 984 4106 628 3988 
L 628 4550 
Q 988 4650 1302 4700 
Q 1616 4750 1894 4750 
Q 2613 4750 3031 4423 
Q 3450 4097 3450 3541 
Q 3450 3153 3228 2886 
Q 3006 2619 2597 2516 
z
" transform="scale(0.015625)"/>
      </defs>
      <use xlink:href="#DejaVuSans-Oblique-71"/>
      <use xlink:href="#DejaVuSans-33" transform="translate(63.476562 -16.40625) scale(0.7)"/>
     </g>
    </g>
   </g>
   <g id="text_9">
    <g clip-path="url(#p271c99319b)">
     <!-- ${q}_{4}$ -->
     <g transform="translate(65.51612 291.868119) scale(0.1625 -0.1625)">
      <defs>
       <path id="DejaVuSans-34" d="M 2419 4116 
L 825 1625 
L 2419 1625 
L 2419 4116 
z
M 2253 4666 
L 3047 4666 
L 3047 1625 
L 3713 1625 
L 3713 1100 
L 3047 1100 
L 3047 0 
L 2419 0 
L 2419 1100 
L 313 1100 
L 313 1709 
L 2253 4666 
z
" transform="scale(0.015625)"/>
      </defs>
      <use xlink:href="#DejaVuSans-Oblique-71"/>
      <use xlink:href="#DejaVuSans-34" transform="translate(63.476562 -16.40625) scale(0.7)"/>
     </g>
    </g>
   </g>
   <g id="text_10">
    <g clip-path="url(#p271c99319b)">
     <!-- ${q}_{5}$ -->
     <g transform="translate(65.51612 349.496691) scale(0.1625 -0.1625)">
      <defs>
       <path id="DejaVuSans-35" d="M 691 4666 
L 3169 4666 
L 3169 4134 
L 1269 4134 
L 1269 2991 
Q 1406 3038 1543 3061 
Q 1681 3084 1819 3084 
Q 2600 3084 3056 2656 
Q 3513 2228 3513 1497 
Q 3513 744 3044 326 
Q 2575 -91 1722 -91 
Q 1428 -91 1123 -41 
Q 819 9 494 109 
L 494 744 
Q 775 591 1075 516 
Q 1375 441 1709 441 
Q 2250 441 2565 725 
Q 2881 1009 2881 1497 
Q 2881 1984 2565 2268 
Q 2250 2553 1709 2553 
Q 1456 2553 1204 2497 
Q 953 2441 691 2322 
L 691 4666 
z
" transform="scale(0.015625)"/>
      </defs>
      <use xlink:href="#DejaVuSans-Oblique-71"/>
      <use xlink:href="#DejaVuSans-35" transform="translate(63.476562 -16.40625) scale(0.7)"/>
     </g>
    </g>
   </g>
   <g id="text_11">
    <g clip-path="url(#p271c99319b)">
     <!-- ${q}_{6}$ -->
     <g transform="translate(65.51612 407.125262) scale(0.1625 -0.1625)">
      <defs>
       <path id="DejaVuSans-36" d="M 2113 2584 
Q 1688 2584 1439 2293 
Q 1191 2003 1191 1497 
Q 1191 994 1439 701 
Q 1688 409 2113 409 
Q 2538 409 2786 701 
Q 3034 994 3034 1497 
Q 3034 2003 2786 2293 
Q 2538 2584 2113 2584 
z
M 3366 4563 
L 3366 3988 
Q 3128 4100 2886 4159 
Q 2644 4219 2406 4219 
Q 1781 4219 1451 3797 
Q 1122 3375 1075 2522 
Q 1259 2794 1537 2939 
Q 1816 3084 2150 3084 
Q 2853 3084 3261 2657 
Q 3669 2231 3669 1497 
Q 3669 778 3244 343 
Q 2819 -91 2113 -91 
Q 1303 -91 875 529 
Q 447 1150 447 2328 
Q 447 3434 972 4092 
Q 1497 4750 2381 4750 
Q 2619 4750 2861 4703 
Q 3103 4656 3366 4563 
z
" transform="scale(0.015625)"/>
      </defs>
      <use xlink:href="#DejaVuSans-Oblique-71"/>
      <use xlink:href="#DejaVuSans-36" transform="translate(63.476562 -16.40625) scale(0.7)"/>
     </g>
    </g>
   </g>
   <g id="text_12">
    <g clip-path="url(#p271c99319b)">
     <!-- 7 -->
     <g transform="translate(100.842191 452.377125) scale(0.104 -0.104)">
      <defs>
       <path id="DejaVuSans-37" d="M 525 4666 
L 3525 4666 
L 3525 4397 
L 1831 0 
L 1172 0 
L 2766 4134 
L 525 4134 
L 525 4666 
z
" transform="scale(0.015625)"/>
      </defs>
      <use xlink:href="#DejaVuSans-37"/>
     </g>
    </g>
   </g>
   <g id="text_13">
    <g clip-path="url(#p271c99319b)">
     <!-- c -->
     <g transform="translate(74.618659 464.786842) scale(0.1625 -0.1625)">
      <use xlink:href="#DejaVuSans-63"/>
     </g>
    </g>
   </g>
  </g>
 </g>
 <defs>
  <clipPath id="p271c99319b">
   <rect x="23.706636" y="10.8" width="1062.584126" height="484.08"/>
  </clipPath>
 </defs>
</svg>
